<mxfile host="app.diagrams.net" agent="Mozilla/5.0 (Windows NT 10.0; Win64; x64) AppleWebKit/537.36 (KHTML, like Gecko) Chrome/135.0.0.0 Safari/537.36" version="26.0.5">
  <diagram name="第 1 页" id="yfoErnPW4S1a19noPDAC">
    <mxGraphModel dx="1014" dy="498" grid="1" gridSize="10" guides="1" tooltips="1" connect="1" arrows="1" fold="1" page="1" pageScale="1" pageWidth="827" pageHeight="1169" math="0" shadow="0">
      <root>
        <mxCell id="0" />
        <mxCell id="1" parent="0" />
        <mxCell id="4x97aDuqSojPDIMoRsds-1" value="" style="shape=image;verticalLabelPosition=bottom;labelBackgroundColor=default;verticalAlign=top;aspect=fixed;imageAspect=0;image=data:image/png,iVBORw0KGgoAAAANSUhEUgAABjoAAANmCAIAAADMyMUtAAAgAElEQVR4nOzdeXwU9f0/8Pdn9t5kNwlJCCRyyRFuxYiKsR6hpbRVa9WfVkup1lrUVlv6LbWWnlqq1FYqrVZUtLWolXogtUoRsYLBarAiKhg5gkAIIfdussfs7nx+f2z2mp2ZnU022U14PR+azM7nM/P5zECYT96fYxjnnAAAAAAAAAAAAHKDkO0KAAAAAAAAAAAAxCBcBQAAAAAAAAAAOQThKgAAAAAAAAAAyCEIVwEAAAAAAAAAQA5BuAoAAAAAAAAAAHIIwlUAAAAAAAAAAJBDEK4CAAAAAAAAAIAcgnAVAAAAAAAAAADkEISrAAAAAAAAAAAghyBcBQAAAAAAAAAAOQThKgAAAAAAAAAAyCEIVwEAAAAAAAAAQA5BuAoAAAAAAAAAAHIIwlUAAAAAAAAAAJBDEK4CAAAAAAAAAIAcgnAVAAAAAAAAAADkEISrAAAAAAAAAAAghyBcBQAAAAAAAAAAOQThKgAAAAAAAAAAyCEIVwEAAAAAAAAAQA5BuAoAAAAAAAAAAHIIwlUAAAAAAAAAAJBDEK4CAAAAAAAAAIAcgnAVAAAAAAAAAADkEISrAAAAAAAAAAAghyBcBQAAAAAAAAAAOQThKgAAAAAAAAAAyCEIVwEAAAAAAAAAQA5BuAoAAAAAAAAAAHIIwlUAAAAAAAAAAJBDEK4CAAAAAAAAAIAcgnAVAAAAAAAAAADkEISrAAAAAAAAAAAghyBcBQAAAAAAAAAAOQThKgAAAAAAAAAAyCEIVwEAAAAAAAAAQA5BuAoAAAAAAAAAAHIIwlUAAAAAAAAAAJBDEK4CAAAAAAAAAIAcYsx2BQAAABJxPwUPZrsS0F++nqC1cFa2awEAAAAAQxLCVQAAkGuCFDqW7TpAf3U17SPi1sLZ2a4IAAAAAAw9mAwIAAAAmRcUXa7jb/k6d2e7IgAAAAAw9CBcBQAAAAMi4O/qatrh6/wg2xUBAAAAgCEG4SoAAAAYKEHR5Wre4evaQ1zKdl0AAAAAYMjA2lUAAAAwgAK+LndzLSNmcU4hZsh2dQAAACCbOJfQiTX8MCYQy/BwKISrAAAAYGCJ3g5Xc62DyOKYzAS0PQAAAE5WUoh7O6VQINv1gAwTDEZmcTKjiYhl6pxoMgIAAMCAE73truO1TmIW5xSW6c43AAAAGBIk0SN52rNdC8g8iUhgAgmFTEC4CgAAAIaUgK/d3bydMW5xTst2XQAAACALeMhPRJwThbJdFcgggZhAUlA0kJTBFdIRrgIAAIBBIno7upq2OaWgtXBWtusCAAAAWcKJAohYZVZ4TBPPQskCkXlAXuOHcBUAAAAMnoCvq6uplohbC2dnuy4AAACQJZxIytisMYjIyi0dqBgZFo8AAACAQRUUXa7jb/k6d2e7IgAAAACQoxCuAgAAgMEW8Hd1Ne3wdX6Q7YoAAAAAQC5CuAoAAACyICi6XM07fF17iEvZrgsAAAAA5BaEqwAAACA7Ar4ud3Ot31VPHKutAgAAAEAMwlUAAACQNaK3w9Vc63N9wqVgtusCAAAAALkC4SoAAADIJtHb7jpe63fv55gVCAAAAABEhHAVAAAAZF3A1+5u3i6667NdEQAAAADICQhXAQAAQPaJ3o6upm14VyAAAAAAEMJVAAAAkCMCvq6uplpf5+5sVwQAAAAAsgzhKgAAAMgVQdHlOv4WIlYAAAAAJzmEqwAAACCHBPxdXU07MCsQAAAA4GSGcBUAAADklqDocjXv8HXtIbwrEAAAAOCkhHAVAAAA5JyAr8vdXOt31RMPZbsuAAAAADDYjNmuAEDOEYOSL8jFoOQPSv6gJAZ5IMSDIS5xzok4J06c894NIsY5cc45EVH8zt6vjDEizlj4OzFGRMSIwnvCG0Q8fo9BYEYDMwnMbBQsRmY2ClaTYDUJRoFl9cYAAAwq0dvhaq51EFkck5mAFgsAAADASQSNPzgpcE49YsjlDbr9oR6/1COGvKIUCHExGApKFJJI4lySeqNRbl+o3RPs8gY7vQG3L9TtC3X7pR5/MBgiiXOJk0RcCh/COZeIE0mcQpxzTpLEiYiH/+PEOTFGjBHjvRErxpggMIG4wJgQ/hj5ahAERlxgZDYJeWZDvsWQbxGcNmOhzVhoNxXlGe0mIRLPEgSBDAIZBWY2CGYTs5mEPLMhz2xw2AwFNqPNhIGTADAciN521/FaJzGLcwpj+JcNAHJLa3dg15Hupi5R4tmuCuiWbzHMGZt/aok12xUBgBQQroJhwheQDrZ6T7gDbm+oRwz1+EO+oOQP8mCQhzgPSeTyhdp7Ah2egMsbcvtD3b5geAhVIMSDEoVCPMQlSSJixHO1wdE7GovIaBAEgcLDr0wGspkMDpsx3ywU2k2FdkNxvjnfLAgCGRgzGQWzgexmo90k5FsNDqthVIF5QonNiF/6AGCICPja3c3bGeMW57Rs1wUAIMGWvR2/f/XoJ83eEOJVQ0ehzfiVOSV/vGZStisCACkgXAVDkssbrG/2HmjxNnaKLW7RI0regNTY4e/wBD1iyBfg3oAUCUVxznkaTQhOBkYmA5kMzGRgJoEiX0kQmMCIEQm946SIEWMCCdFAUu9Qqd4kQSBGJBGFR2D1/icRJ86JJM44EZc4ZxQdohUekxWUeCAU/o/CG2JQCoR6MxBRKCgRkZeIKLykS0B2EYyIMRIEZhSYycAsRmY1GWwmIc9iKM4zji60WI0s32IY6TSfUmSZPNI2dZTdZMBMQwDIUaK3o6tpm1MKWgtnZbsuAAAxOw+5951ArGqI6fQGn3+vFeEqgNyHcBUMAW3dgQ+PefYc6znU5m12B7t9Qa8otXmCnZ5gtz/k8YcCEk85JMpsIIuBrEZmNTGrkaxGZjEws5GZBTIbmTm8bSCzgRkEMghMYGRgTBBIYCw8844RI0YChVeZIka9605RdDu2FlVv0IqIEfXGmHjCdq/eDc54ZFRXeEPiFOIkSTyyQRLnQYnEUHhpLSkQ5IEQ9wdJDEq+gOQLcF+Ae0XJGwj5AjwYIs5JCvFgiPsC5CYiCkZvRbiSZiOzmwWH1VhkNxbZDDaL0WkzjHKaJpbaZ1XkVZbZHFZD///sAAAyIuDr6mqqJeLWwtnZrgsAQC9PQAqGEKsaerq8wdSZACDbEK6CXCQGpf8d6X5tb+fuo+5jXYEev9TtD3pFyReUAiEKhSTOI4uWxymyMKeVbEZmM5LdRHYTsxmZLfzVTCaBCb3hJ4psMEbEBCYwEoiYEB02FTlzXBFxOykSoEpKosg4q2i+uG1i8RuaSXHbFFduZH33yDis8AaPfuUSp/B//qDkFblHlDxiyCtKPX7J4+ceUfKKoY7uUJc3xDn3BbgvILX3BD9tI+JcEASBkdnIbCaD3WKwm5jTZhw7wnLGWMfnphdOH52X3h8hAJz0Ro6fntkTMsYEU3dmzwkAkCnfPcNEsSZkYuOQeHzrMSm1dyuhgRm/ldRIjDUdE/NQb1EsOT2+qZnYDo1v4kZ2JbVC5dVlkcKUW8sJZVG85JuQVDf5RSclxVeNkm4mS8wZn/TyOy3vH3QTAAwRCFdBrvi03ffKBx2vfdxW3+xr7w6KISkQ4uFF0FnccKQwQWAFFiq1sRK7MNLOSu2s2M6MjJgQGe4UeeIL0VFOka+yx3TiU3bgr1NnEUrZGCMh/vGfeAnx1xU/eosThd9RGNkgMSg1dwWbXYHmrsCJLrG5K+D2hMLRrqDIPaLU1hMI3/P/He7+5+6237zCLEahrMA8uzzvc9OLaqYWjnSY+3DpAHBSMVlsmT8pVlsHgFw1Mo8px24o3DxLFa6KDM8Pf4h+SYjcJERjVHo6o2dRSGLxbcikJnHsW1K4Sq0HVyWJUvbgxu3S6tyNP2HSJSdHrJKvKzGPzYKHCMBQgnAVZEEwxAMhKcSprTuw8f22f+5u//BYd7cv/Gq+mPCaUCaBGKMCC420sRI7K7WxUjuNsAoWIyk+8xIfVJFvsn4YVQo5mFa66hl1RKXUy1I+OLmDS/VE0XvAok/0uG43i9nosBsnl1ujR3v8oRPuwImuYHNX4ESn2Nwluj0hiZPEeTBEYpD3+KX2nuDeY55ndrYIjErzzfMmFXxlTvH8qYUmgRkNgsnAhEEI9gEAAADkrHBLloU3OcXHqKh3iBURcS5LiMsS7l1kcSeKHBZ++bRia1ahLIUayffy3laiQpbeXUoHx8oK14vHMsizJ9yNpLIiUyU07wYnWdAq/tzRu8FJdptjZXEWu4uU1AEOALkN4SoYPMEQ7/QGOz3B/+zrfPmDjg+O9pxwi9HFKRmRSSCTQEaBTAI5zDTSzsrsrCyPldmZ2RDJRLFHq/y5yuRbMhqPw8jJFY5NePSql6p1lDL1spTPmk5ZGvVUairZrYbxVsP40tjd6fFLTR2Bpnb/sQ7xeIe/2ycFQ1IgxMNrZjW7xQ3vtWx4r8VkFMaPsMyd4Fw4o2jOmPxCu7HAZhAGY5QaAAAAQI7R7OSMJfS/A1V3oo6E/nWgsuSE1CdOOI3Ghamn6bjTTOETmqgAQwrCVTAYuv2hT9v8+054XtzVurW+q6279012jMhqIKuR7EbKN1GpnZVaqdhGI6xCnil+7JRqpEZFuvnjDxrgshKyqx+rEbHq08WlW888izB5tHXyaGv4oM6eUEuXeKIrcKJLbOkKuL0hjxjy+CWfKO074d13wvtM3YmKQvOXZhV/bnrRhBLr+GKLyYDh1gAAAACQMzC6CmBIQbgKBpZHDO044Np1pOeVD9s/PNbj8Yc4kVmgAgvlm8hpphIrFVup1M6KLGQUEiaZx77rmP6mJ7dG703CtPnEwzR6b1IM1VLZqzqpT7Mvi6kfp3k3krLIVwpQKisprTDPWJhvnFxBjJg/KLW5Ay1dYnNnoKlDdHuCnT3Brp7g4Xb/Q28ce7ruRNXY/EtOK6kss31mcoFqGQAAAADDjOaY/Fiu/o/3Vyg4S+P99U0GVM6damokKb1bKXZujXuYXE9KrgwA5DqEq2AAvbm/67W9Hc+/1/Zpmy8ocQOjEVYqtdKYfBppp0ILOc1kMSSEcHKUzurl+FVkiMUklI+wlI+wEGNeUersDrS6Akdb/YdbfMc7/F09wdc+7ty+v2vySPuic0aeP6ngtDH52a4yAAAAwODL4fH+/Tp28Mb7a0SsdJypP/cEALIP4SoYEA2tvvU7T/xzd9ueJo8Y5FYDH++ksQ4abaciCxVZKbq8keZSjuF9PPxGXqWkxF298wYHcmFLeX9S9ha21C4rdjeSysrowpY2s2AbYRk9wlJ5Sl67O9DiEg+f8B1o8hxu8X90rOeulz6dO95x+ZySi2eXlDlNSkUBAAAADBcJSzMN5Hh/+YmzN94/4ZJVy87UeP+EE6okJpQly4PJgABDCsJVkHnb9nX94dWj/21wuXwhA+PjHTSziMY7KN9MZsOw7uPIYBfO0LpNjJlNbNQIS9kIy6TReVWTnR9+2vPeAVdjq3/7ftfHTZ53D3d/96KK6aPt2a4oAAAAwJA1tNqHOQg3EGBIQbgKMqy+2fP7V4+88UlXKMRLLLyqlE8rIruRGQXlzpPUHUZprl2lca4MvIdFo9so7YT0+rI0+sBSVTrxs46evT6/h4UR2a0Gu9UwwmGumuR4a29X3SddJ9yBZ99ttZsNyxacUuY0q5cKAAAAkB17mnoe2X78vwddgVAaI3COu8To9h/fDfSxbB2NWFn2pIkHKc6rZ3fqk+g+kMX34WqMg9JdslpCQZ7hgplFM8bmy6ZVUHRuAY/8HsHjvgLAEIFwFWSS2xd84PXG7fu6QhIvt9Ol43mxhYSh8oI49LfopONGWUyCxWz+/JklE0fbn6ttbukU1/23eeoo++J5ZWYDbjQAAADklhd3ta3f2dLlDfb5DC2e/sdCEE1JT3MndXtDM8bqWyaVobUPMMQgXAWZ9MzOlg272sUgn+jgl43neeHVirjKakyRRNJKJ0pz7SqNV6CkeA+LSj013/GS6rqUS1HNonk34vqKdK9dpZBF53tYSLnbTmMlr+R6Gg1sypi8ay8a/dybzUdafL/99+GZ5fZzTnUqlgkAAOnq6OjcVvtW/b792a4IZNmEcWMvuuAzJcUjsl2RIexIh78/sSrIlmPtYop5CfGfEA8EGFIQroKMCYT4sU6xyxMwMKou43nGWDgk9QKQGvME05wMOLALW8offNlb2FK7LHnegVnYUqkZILtIQWCnlFjnTHI2tvqOd4kn3KLESUDXFgBAv/X0eNb9/R+r/vhgtisCOeGOHy5ddM3/s9ls2a7IcFCq/y6mWtVCTyBFe2+6WRTyaR6lVXWu0dTVX346cwhT7I5tdnmCXlHSPJ1StyqaoABDCsJVkDH1xz07P3WHOFXYeZGFn4zPg5PwknUwmYTyYssIh6nVFXhpd/u5EwtK8vGWQACA/vL5fQcbDhFRgdNZUICBqyevri5Xl8u15+N6j9eLcFVGfGe2kBCHiu+JY0wpKbodl1UjiVisHzLaRxjXWdi7qZykeMK4pGj++LWj4sqVV14jKbozviMz+bpiHZlx3ZpKlVG9ZEYqN0r1kv++7cTbn7goBZUpCQAwRCBcBRlzwi0e6fARkcXAY8Nnelc5VF0RMjb9LSlZdfKb5vQ35amD4ST16W+RpPiyerc5xR2VWBeFsjRqSNG7keq6lO9GOmXF7kZSWbx3Lp/m3eBqI6w0pkYmlBVN4kREJqNgNglEtO+ExxfU7goDAID0TK2c/JVLLy4qLMx2RSALOjo7X9j40tt172a7IsNZfExFJUnh88CO95efuC/Du5h6Fo0i5eP9Fcc+JX1WKKt/4/01JJTFlNMAYEhAuAoyxmk1FOeZ95GvycM6/DzfpBI0UqORzrnWoyy9c6U8SCVypnq++EhQusWme0BiJCg9aR6mcc9TnymhnsGQdKzN19olEvHyQovZMFTW3gcAGDKmT62cOWNatmsBWfDhR3tf2PhStmsBgwXRFgA4meD3RsgYg4EZDcSJe0Os9oRwzBPft8E0enc004mIJcdNFLIzrcTehNQT8JVPnHDuVPlTJ6QsS/uUSn11Gt1Z8ixxPXvqt1zhniuUpSNLICR99Gn3zk+6xCDnRFYjYxiHDQAAAEMHj4yPj32WJyl85sS5rM0TTZInxGXh4RfexKfz2LlVDlMoS62GcXvl15V8lNIp5WXpvRtJZUUuRvNucK52zbKCFIpNLJCr3QsAyF0YXQUD4oCLuUS6sJxPKRg6/UBDpqLZpvNGMQqG+Nsfd73+flu7KzCwVQIAAAAYaGmP9+9XYQPbNk1rDoSiwRnv3y+JZWn1jgNALkK4CjKJEWPEHCbuCVKzl718mPY6adYIGp9PBkH54RRbrYnUHiHKq1HJs8dOr3oujdWaImdQPjHFnztVRVInqNdT826oruWleTeSsuhYyau3v0upQRbuautNUf8jFQP8g0+7393X1XDc5/GHrGbBILAeXwjNBACAAdDXt3fBMKA+KhsyLbruePwueRa1DwkJqf/E1NeT0p1fx1GpytKeKZDe3UjaFTfeX71q+v5up5rREPuE0VUAQwrCVZB5Y/N5gYm9307uAPugje/rpHEOOr2Ejcsnq8bfuJOkraV7aNIQ5faE9h7peevjjiMt/mCIE1F5sXX62LyDxz0Hm7zZrh0AwLCkPpcGhj21KVuQg4Z7I3AIwL0FGFIQroLMY0TzRkpVpVTXyna1Cv4Q/7iTPu5kRVY61UGTnHy8k4wCCYwYiyyfpvTwiPXdKK3W1IfcGXgPi7yfJs2+rIS1p9Lry5K/h0W7rKSFquKSWOJ3pbLU0xI6cRlxziVOEuc9vtC+Rs/HjZ76oz3d3hARGQRy2AwXnl48d4rT1RM81IxYFQAAAAxdOsb7y8fkJyTqGuFO+sb7KxyjnDjg4/0T3zlEqncjaVf/xvvroFR7hHYBhhSEqyDzwhGNIjN9rpxmFvFdbdTgIk+Qd/nYuz56t4UVWmh8Po3Oo1F55LRwk8DMApkE+cNIdfKb5vQ35aZEqsdhJCm+rN5tTnFHJdZFXlZig0Rew8jhqa9LaZKdwnVplBW7G0llRZZd0LwbXC1kFV7mMxDiYkASg1KbO3S0zfdps7eh2evyhIjIaGD5VoMjzzB7vOOsysKSAjMxcvWElE4GAAAAMCAOtvr8QUl//i5vrK1ywstZuDnG4sIbkaUQWGxNhPB+ijW8om24WN+e7FSRY2MdgDyhKZk4wy6uOSbvemS9zTtZcZEvCe24+DyJ+cM5WVzZsvYfY7FjEk8Zua5YNllVWbQBGk1VvC5GRGQQWL7NYDMnvAdMowNVQ0Jh8svpw/kAIGsQroLMi7zngxijcjsvs1GHnx3upoNu3uKl7iB1+mmXn+1qIwOjEVYaaeOj7DTSzvJN3GIks4FZDNwkMCEWOEp3Ycv+LBipHCvS7gJLo9iEPOoHqC4LpRjm0iPNw+LueUgifyDkD3J/QPIHpC5P6HiHv6ldPNbuP9HVu4a6wMhhMzjtxjGl1ikV9onl9oI8U1xzDp1ZAAAAMHiuWrPn4+Oevh374G68Q26w5VuF6qnOz59eNLDF4E8VYEhBuAoGnEGgEhuV2GjGCDrhpUYPHekmd4C6ReoOUouXWrz0UTsZGC+0UoGZCszkNJPDwvOMzGYkm4nZjGQxcItRsYMpeZf6RLbU4RrNEyuka06aS5GgXpbywQoT+1KdSOlzrF9LqRDOJU7+IPeKkscf8ojc4w/1+EKdnmBnT6izO9jRE+jqCYYivZVWs1BgNzjsphEO4/iRtrEjrWWFFrMprmdM85IAAAAAMqt2f9f+Fl+nN5jtikAaun3Sjnq3LFylMd4/gXz2A1G0gzeaFN5AgxRgSEG4CjJP7UFgNdJYB4110Oxi6hKpw08dfmrzUYef2v3UI1Kbl9q8FJl+RzYjzzdTnonlm8hmJJuRWU1kNzJreNvYu9NkzNCj5yR7gEkS+YPcIwa9fskrSp6A5PVLHlHyipJXlDy+kNsXcnlD3d6QV0wYS280sBKnsbTAPMJhLCuylDhMIxymwnyj1Wyg+GHbJ9n9BAAAgFzw5DsnnnirOdu1gLS5vUprR6Q9xyLhYLRHAYY0hKtg4CUtGJlnpDwTleeRxMkTZK4AuUXuEqkr/J+fukTqFskTJE+Q4obtcpNAFgNZDGQ2MIsxvM0sRrKbWJ6J7GZmMzKLgVkMZDH2fjXEDfTJwMKW8qde9ha21C4r0p8UCnJ/UPIHuD/IfUHJH+AeUerxhbp9oR6/5AuE5/dxX0DyByV/QPIFpGBSU8EgsMI8Y1G+sSjfWJRnLHKYCvOMRfkmZ57RZjEkrY+gWHuMvQYAAIDBdsnYuC635KhH/Kt2ZOPfkwaqJw3yT8yRuIQTi2/xsYRPssLiy5VlVKhk8lXIzhafR97oVVjlKuF0suuSrW+lUIL6dSXOTZCXkXiyugPdDSf88ktQKVclm469sRUqAGDIQLgKMk//g0BglG+mfDOxPBYiEkMkSuQLMTFE3iB1+Kndx9v9vNNHbpF8IQpIFJCoOxBfCGdERoFMBjIJZBSYQSAjI4NABkYGgZkNzGYgq4msRmY1MquJhTdsJjIbmNkomA3cZCCh7/02AyNVdUKcAgHJH+JigPtD3BfgXlHyBiSfyH0ByStybyDkC3AxyEMSD0k8KFFI4sEQD4a4GOKBIA+GuOKfFGOUZxEK7MYRDlOJ01TiNBU7TFazYDUJVrNgNQtmoyD0riumWcuE9laO3V4AAAA4CcwpjhubE1kHXWX58vhICkuI3USDPwnNn/hTRbKxhDPK8sYyJmVL3KCkBdTjTxVNSqxwwnUlVlvxumLFymJMcadKrlt8ZZg8SX5divcwdmDv/4da/KrhqoxDgxRgSEG4CgZGNBCi2LsTJ/ogMxDZjMxGVMCIiHFOIU5BzoISBTmFOPlD3B1gLj+5RO72h0djcZe/N4YVkGQF935kRAIjxkiI/cfCG4yRQOEkZuodqBUetMXMxsi2UbAaKPzRaGCs9ygmCCQITCASBGKMhU8lCEwQuMCIMUEgLghEjCSJcc45I0ninDGJk8SJc5KIOCeJc06Mc967nxjnJIa4P8jFoOQPUnhIlBjk/iD3ByVfkPsD3B/gAYlzTtEDJU4S55JEUnSPxCXNwCEjsplZYZ6xwG4ssBsK7MbCPGNBntFhM1hMglFgRgMzGQWTkRkMLK7hFPeHqdRrpdInic4sAICBo/GYheFOcXANKFIZRx9NJK10Unv7dEJ2+Zh8lbL6P95f4RiVsjQS1OuZxnj/xHcOkerdSNql6w1FnEj3GKukg5OLR4MUYGhBuAoyr7fhpOfJop6HMTIJZApnisS0wq9p4SRENog46wlRl493+aVOH3WL5AnwniDvCZAnQB6RS0Qh+dtdkp9UPL468b1ryj1YapeSzmAinvAtOYmHH9Dh9Ng2T+85azSwfItgtwr5ZiHPasy3Ck6boSjfWJRvKsozWs1COFpHjAQWDsb1fk28sP5DSxoAYOCk+WyA4QSv39VPZ2PkJGmznJx3Y5hdDsBwh3AVZF5vwyna5ULEWXj19KRHBCceDgOp93+wuL4sljg6OrxtMdIICyOKrLieONjYF6SeQDh6xT0B7glQT4B7ArwnQP4A9wa5P0j+EEUnxiUEiYg4jwsYqbQGVSNOqSg8MZOGSPduC72b0Z1GgVlMzGpiNrPBZmZ5FkOeRQh/zbca8qxCeCP8kr6E0eMJG8pDxMOhMsU3sYT/cHtTEv/U4vraKPLnqhmWAwCAzMDoqpMYRlfppHu8v2qS0tHyHQn9faq5NUYLMYV6aFRNvSy1GsbtZepZNO9G4nEaXZwKSfG7Uv+91fNWQIWj4r/LToAGKcCQgnAVDAz5Q7YvjYNYlpSNg4RdCYlWI1mNQrGdiJJm1Ec2OKegxP0h8ofC0SsuhsIz8sgX5P4QiUHuD/GgRJxzTnSjEUAAACAASURBVCw6/653Nh8nTrEZeZxYeKfEeyM7gkCMSBAYIxIYE4ToPEQmCCQwYkQGoXdYk8DIZGAWE7MYBasxHJMSzOGPJiG832JiJgOLtWiSr0t+z5XaC1qtHn2NHo0WkPwTWtIAAAMHo6tOYhhdpRNP7AKVYXHT3xR6V6NZ5LPYFKa/xZJUytKcDBhJiq9H77ZK32+qsmQ1jDul6kt8SPtuJJal924kl5V6NiDnXFfIKvFMCWVFk8IbaJACDCkIVwEQY2QyMJOBHEwginuSKS9sSXGNBUay1gGLDldKzB/JGxctkoWQ4k6lvgDnUOpDTagnWtIAAACQVbGwj1JESk8UhfPUY4ISDk+Ko+hpxemsZzpp6dVT58G6Fp9SCZXpL1PPPddZvPpUCQDITUK2KwDDkFIHjerDgadIV05TeNxwhS15Fu3u50jHlVZZ6qWmrqH8CPWyUh2ZuiyNz5FNrbuh/M7ASFnx7TnlLMmGSowNAAAAhqneTj/VweGa6UTEEjsvSSF7wmf1slLP31U4VnNsUKrrUkxIWZb2KZnsPNp3I2mXnrYhY7piVXounWF0FcDQg3AVZF4aSzzpPWO6x/aprD6ustSfbpo+ldXHAtM8TOOepz5Tf+oJAAAAcBJDSAUAgIgwGRAGXPzMONV05QdzrPMlKVUhu47cGVjYMvEM2VzYUrsseV6F2YWad0Pzulj8B5UylYbYAQAAAGQNJ+WX+0QSiZRXa4o/Xvko5c/qZamvXRVXz1Rl6UvUSmDyLflRyncj8ZTaa1fJy+aKB6oK9572cTKg+jpkAH0VkiSDgBE/gwf3GjJPI+YyVOm8luF0yRmGWwMAMHDwZsCTmPqULZDr/31Ke7x/vwob2NPLo0jpG5zx/v2SVBZ+VqAfOOd3r1lz6c23PPzMM2IgkO3qnBQwugoyr3f1pXCXRnhaGOOk0pqO9d6Q/BESe68Hl/eraPTW8OQXp0ST1PuyIp038SeOLXRJ0UUe5Ss2Jpal0b8Ut5ezyHUpXQSp3o1IWUl9RZp3I6msyIqVmneDk8oYK/ndoORLTrjIvk6xBAAAAMicwRnvn7BW0kCO95efOHvj/RMuWbVsjfH+GvS8FVDhqPjvshOgQQr90NXd/fHBhhNtbe4ej8nYl0BKa0fnkp//vLG5Od0DK8rK1tx5Z0lRYR8KHdIQroKBgb4LNcNsoJaeeqLjFwBgYGm/SQSGtVQvrAFdhko7ZajUM2fhBkI/fNrY2Hj8eJ7NtuC86r7FUsNGFBQs+erVjrw8PZnFQOCJDS/6RbHPxQ1pCFfBwIhvOGlGK3TMHExv7SqtsnT04qTYpdFtpDNBT1kaHWFKqakqnfhZR8+eRprm3VDaG1sWAQAAACBLtMf788i4cD3j/fWt1jSw4/2Tqq98XYMw3l/v3Ugqi6tcTHxZ6uP95ZeTeJtjZXEWu4uEBin0y1vv7fL6/WfOnDlx7Nj+nMdmtVafUaVzqJTH53vp9f80tbT0p8ShC+EqyDyl8JTqaoqZWdgyIZd6WdoLWzIdZcnTU12XWlkqx6Za2FJ3WRr11NFU0mhAJLSGtOupI7IFAAAAMEgy1YGqb/rbwHag6k7UkdC/DlS9dyNpl64R+voakPo7UNEghVQOHD78qz890O3xJCe1dXYS0Z79+xf9cFnK88ycMvmOJUtsFktyUmNz88VLlqRVq4qysrTyDxsIV0HmyfstYn1C6UZvokmpu190nyvlQekem2b+hOzqx2pEgvp0cenXU/2epz5Tcj3RmQUAAAAAWYUGKaQSCAaPt7a6urvVMnh8Po/Pl/I85SNHcpWXM2AyoH4IV8EA6x1n05e+rFjfTTrT3wZ2YUt5P02afVkJo47S68uSL2ypXZY8b3xfFkv8rlSW9mRAFv9BpUwd/WsAAAAAg2uAx/trjsmP5er/eH8dddNxlOqxaYz31zcZUDl3yuZh2j3W6vWk5MoAqEoroiSzrW7npu3bNTJYLOZpEyeOKNA1GdDn9+Xb7QhXAWSMjtHUQ43OaxlOlwwAAAAwDPVxmDrR8Brv369jc2O8f8bLAohIa3kpmcbmE9oZmk60LP7R7WmdE5MBAQaG9sKWKZZyDO+LLGypkJS4i4W/D+TClvL+pOwtbKldVuxuJJUVeepr3g3VhS0170ZcWbKFLTH2GgAAALJocMb7xw9nH9Dx/vITZ2+8f8Ilq5atMd5fQ99evqY13h8NUsgBmAyoH8JVkHmxAMXJ1p+RwUseBrcu4W4Mg+sBAMhZGr+rwnCXMEsf+mqo3MKhUs+chRsIg04MBFzdPeFtSQrd/X8/IKJCh0MQDPpOwCePGxeSJEkKtXZ0hnc58/PMJtOAVDfHIFwFAyO+70KzIaVj5mB6a1dplaWjFyfFLt1LMulISK8vS6MPLFWlEz/r6NnTSNO8G0p7ez+hMwsAYOBw/Ct78uKEh6wu2uP9eWTwu57x/vpWaxrY8f5J1Ve+rkEY76/3biSVpWOWn8Z4f/nl6Bzvj58VSF/TiZa/v/wvvxjQyDN90sRLa2oUk97ZvfuHK3+b2Sr97vYfnVdVldlz5iaEqyDzhmo/31Csc1bovFE6IlsAAAAAkAV9ac4NcWx4XQ4Mlq5u9yvbtmu8K5CIxEBALVx11uzZL61Zk9kqOfP7sgb8UIRwFWSevJ+Pq/TORDNrpROluXaVxitQUryHRaWemu94SXVdyqWoZtG8G3F9RcqdfoqlJGXR0bMX7dpTrL7a2lWa9URnFgDAwMFkwJPYUO0kzIZMjffXt1rTwI73152o4y9H/8b7670bSbv0/LXVuXaV/vH+aJBCX6ktOJXyPYBmkym6ZLuru2fX3j3BUKgPFZg1ZUrpiBF9OHBIQ7gKBgZL2BjwhS315c7AwpbyB1+ajQOWWFO1o5TvRl8mAyocE71UrbuheV2Jf7jKZeposAAAQIZgMuBJDJMB06O6zmisy1CzY1P5KOUsSfmjk+a0O1CZvrJS1U3HUarHat6NpKl3LPGoFCdOp02Y8dcCokEKfaX2rsCU7wGMd+xE86///JD2QC01v7v9RwhXAWTOSfg8OAkvWS+0pAEAACCruGokSPcZdERPNCJWOkvuYz3TjQSlCCylPljPQRoRK713I6MRKzRIIQecOXPmb3+0zG61xu/824sbH3jyye987Wtf//Klsvx3PvDgy2+8MYgVzCEIV0HmJc9C4yxpOl9CunLvjerkN83pb8pTB1NNf4skxZcVt7Bl9Ch5qyPVdSntjVvYMo2+rPTKimsJyMuKPPU17wZXG2GlMTUyoaxoUm+zICcjeR53m1c0O4od5mzXpA9Ed5tbsfKqCZCDgsGQIAiCkJM/IACDKBgMulwuq9Vqt9sHrpRQKEREBoPOlzHB8DI44/0T5roN5Hh/+YmzN94/4ZJVy9YY768h9SLrikfFf2fKaQBZJAYC7Z2dHktCuMrr84a/Rl//F+UXxcGrXI4Rsl0BGIZ4wjf57lSHKSal2xXSp64TlXqnOh9X3EyryPTy97FfKM3DNO556jP1p54ZIjZseLbWrTkxvPHZJQsWLLjnv1p5Gl7f2qD9gDiy7tqqqqqf1/ahjv3y33tUKl93z4IFC+6t03OOxieuraq6dt2RxL1H1l1bVXXtE41ERKG2+gPu/lcWFD3/4ttfuGzFltd36z/k2Rfeuva6P+w/cFwx1ePx33Tbwzfd9rDH489QHQEGyb59+6644op//OMfGTxnQ0PDqlWrmpubwx937Ngxf/785557LoNFwPAxVKIYQ6WeAKBud339lbd97+IlS+L/e+y554noseeel+2/eMmS1956K9tVzhqMroKBl7DckVKiVjrp6stK2KVelo5enBS7dC/JpCMhvb4sjT6wVJVO/KyjZ08jTfNuKO2NDcQaTGLd/Uvu+nvbylduWPOHW2Y7qHfMUWKmNpcYTmhrkx/fOzhpz4NLfri2rWzhisdXLCyLpdb+fN7ynXNveXT1VeUDexnxxANrr1v0yml/fPz2Mx2DUFz94UNEzk23X7z8dUf1HWt+d+UEDNbKuIryET0e/6N/2XLarHFlI+VLISjq8fibjncGgsHwx4MNzQcPNc+/cJZG//Mrm98rKXacecbEvvVRA2SF2+3+y1/+4nK5tLM5nc7rrrvO4VD4VzEYDD788MNbtmyprKz84he/SEQTJ04sKSlZv379BRdcUFZWlnwIDHOx8f5KLUseGfyuZ7y/9mpNFM2VVJbO8f5ELKEeceP9VSbGKZSlUCP53n6M948rS+/dSCpLxyw/zjnpGWOlf7w/JgNCDphdWfnz79xiTRxd9fzmfz/23PPfvOLyyxd8XpZ/1V/+ctJGrBCugswbqr8SDdV6DzqdN0pHZGvAmOf+4LnVdP1tf197/RUNK/5278KyunsW3LZJKevWny/YmrRz4ap3V5xPNP2WNT/9eMmvNy2/pOHg2jW3zAr/RrT7zW2imyqmDmKsioiILBZqWL/kisafrln9lQnRvUlxOLdIRH55EM5sK3bYidpq1/5567HITlf9MSJ6+U93NUR/15tx1c++MmECUb1IRI6Fv1hzsGPJ2ruvvPi9FU/fubAYE2gyqmrOqRecN33za+8//+LbN31rQbrhJI/Hf98f//m/XQ2OfNvZcycr5jlytPVPD73COf35/hvHjS3NRK0hY3bv3l1cXFxeXo5IYjK/379ly5ajR49qZzvllFOuueYaxXDVhg0btmzZcv7558+fPz+8p6ys7JJLLlm9evXzzz9/00034bbnph07dpSVlU2cODGbldBYU6lf6yhlsB6ZoLiKRFr6WMEBvi6Nshha+9B3nS7Xn9ats1ossv2fHGpI91Rmk2lEYaFs7Sqb1Rb+mryau8V88vYaI1wFmccpse+Ch3tnSPEREeu9UU4ntdWo5NljzyP1stT7sjTqqbFak1ZZGgnq9dS8G6preWnejaQsOnr2ol17itWP9ewptzcU6znonVkGR/Wyp54tW3Lt/VuXX32XY/PtP968+QeJWRqfXnL94w01d27+8Tnyo82R330mfGX107Zl1yzfuvaGr9FfNt4ynWjPm7VuclxZM3sQriK+ShMXPf50/m3fvqv219cus22+N7K6S929C277V1LuLcsXbEnYUfm9jU8triB/4/tv1x2K7PS53UR07IO67mgcyr4w4TDH7Fsefqp86ZK7Ni2/wuzY/Ivqk/dp2Sec8y6XJxiU1DJc/IUqg0G46IKZbe3K74gxGoUCp13x92q73XLrzV/87tJHf7964x9/f0Py+KxgMPTYE6+faOn63ne+hFhVDnrppZd27tw5derUc88996yzzho5cmS2a5RDSkpKXnzxxfB2a2vrDTfcMHr06Pvuuy+6spXL5br11ls7O+ULfIR99NFHa9asKSws/Pa3v22J+9Xikksu2bRp09/+9rczzjjj7LPPHuirgD44cuTIypUrJ0yYUF1dXV1dXV6e0a6hTI3317da08CO99edqCM+07/x/nrvRtIuPZEjncFB/eP9sz66KkSEzr+hqcfr3bR9e0ZOtfPDD2sWf0Mx6YEnn3zgySczUsrwgHAVDAymsq3zkGHsJL0bWbke84TFjz/lWPX+nKXVZiKHOWk6oNpxjvhlyosX3vuc/a5lby/8+nQiot3/Wt9IRM/eVPVs3CH/uq1KFjP60up376zu5wXIjb9s9cPdy5+v/PFCB73eu2/qV++99/z4TO//7fZ1u09fdO81p8XvdUwqJSIqv2r1P6+K7mx84tpL76dvrXlq0Zj4vInrcBkmXLbqaevDr5QvQqwqbV6v+OOfPVn37n7tbK9sfk8taW7VpHt/8/VP9jV1dHYT0f4DxwPB4Ds79zceayei2TPHfWPRhfc/8K/Hntj6o6WXyY6tfevjf2/ZdfbcyZdfil/Lc1FPT09jY+PRo0dff/11u91+5pln1tTUnHXWWUVFRdmuWi4qKyuLX4VdFMXOzs7Ro0cnL83e1NT0y1/+srOz8/bbb6+srIxPGjFixPe///2lS5euXLny97///YQJEwhyjCRJR48ePXbs2Ntvv/3ggw/OnDlz/vz5NTU1Tqcz21XLhJO0EZhLsntvj6y79opHWy/68dMrFxbrPyokujt1NmGJDI7iQvX2WtuG265YJ37plp8tq6mI7Kp99MGtx2dd9dPLKlUPAyKiEQUFS756tSMvTzG1rKRE/6lKiorOOf00oyEhFPPJoYY9+w9MnzRxynj5s+ndjz460tSUboWHB4SrYGBE+y56Z8X3pS8r1neTzmpNA/seFnk/TZp9WSyxpmpHKd8N1eM070ZSluilat0Nzeti8R9UylQeGpYFE76ytPef/P/es2CpwnRAhcmASZEmx/k/eygcEvLUPvMvNzkqaz47rbfh7N772pZ695i5l51ZkXCSGWk8tNIwftGK7zZuvfvaO1+oD+8onl5TMz0+h+U1Wre74qyazyYHy+QTB8Ord7na2toSft3zW+3y6YRzr/oCiW1tbWZHocOMXkHdLBbTjdd/9sqv9I7fe2P7ns2vvf/NxTUTT1VeN2fvx41/Wff6hZ+Z8YXPzwnvKSrMJ6JHHt8SH/Na/eDL4Y1VK6+77OKztr25558vv3vu2ZVzqyZF8zQd7/jTmk15dsutN3/RbpcPXIfcEQqFQqGQKIpbtmzZsmXLiBEjzjrrrJqamjPOOMNutxuNRn2vsdN4HA1JHo/H5/M5nU6j0djW1tbdrTz8MFl3d/ddd9118ODByy+//LLL5DFcIjrrrLNuuummP/7xjz/60Y/uu+++MWPGJOcZYjRHDA1RkiSJoiiK4o4dO3bs2HHPPfecc8458+fPP/fcc/Pz83X/XCQZhPH+8jH5iefSM8JdvZ5aVcvieH99a1cp7NIzKVB9vL8OSrXP6uiqtrdfqw+5K8ZPSCNWRUTH1i+5bFW9zsyVSzc+tahCJbHt9Rdr3Q2OoCMug69h64YN9b4afeGqw4cPM8ZKS0tNJtPJ9pZVm9VafUZV8ky9tEwaN+7vq+4TBKEgP1/2C9ffXty4Z/+Bi84+5+tfvlR2lLunxy8GnPnKkbLhDeEqyLzehlPcfDGFx3skq+ZSjtEsas/JxF29zz6lpkSqxkEkSWVhSxb3QE9odSSWldggkdeQoncj1XWpLmyp/LjWvBtJZUWWXdC8G1wtZKUxNVJ1Ycu4lnRI9HR1dhiDAzJMx2Aw9Pa+umvvuuWZyl/+7qqJcQWdI58OqDoZMDIVsOHJ5RvG/3hpdWxVlLaXH93kpopv/eLemyPP9CPr9m6pr5/99Z/9NNNjqZKF3LtfuOfO329qEMlsNlMo3ZfaKi/gtfaGBWuT8yZNJyQiosqlG2RDsUCLwSBUzTk1+tFkNGx69b2SYsdnL1KeS3r4SCsRfbZmdnwGzvk9d30tPKPwsSe2vrzpf3ff+bXJk0YTkdNhM5uNN3xj/sZ/1U2tPCX+VHl51imTyqdPO6Vy8mCvsgb90d7evmnTpk2bNpWVlZ111lnz5s2bMWNGXl5efn6+yWRSP45nf4ZLnwSDwd27d7e2tv73v//1er1//etf161b197eTkROp/PBBx+cNm2aJEmSpDqjNl53d/evf/3rt99+++yzz/7e975nNCq0chlj11577ZEjR55//vkbb7zxrrvumjt3boavapDJl2AYhgKBwPbt2998802bzXbuuedWV1dPnz59xIgR+fn5Zv1LugxOB2rCXLeB7ECVnzh7HagJl6xatkYHqoa+rTGn1YGazdBu2/ZXdxPNXnR5X4Yx9S6rqqn251W3aY3nrn9m3W6iiqsu1/OPniiKCj9e9fX1jz/++KhRoy688MLTTz/d6XSGI8g6TjiElY8s++nNNxmNRkeefDyvTl6//+41az78ZJ9Gnh6Ph4jWvfjiC6++qpFt5pTJdyxZYktaQmu4GuZ/tyArePRbQsBCJSIljw4pnjHdhS31LuIYDIhGc+SnXWc9NdJ0dRPJep3UO8kiKT2uTiLKKygkWSQoPWkepnHPU58pKWIV+UvhOvi/tWs2GCiURk10Ky8vv+WWW4iocdsz2/fUbrjq4jd7X2knNrz9ZoNbnr+1SSSi1v3vv5/8D375aTXFr628f1NdaGvt1373+PeqHQYiT+19f9pNhppbFg36cOmQ2PD6quW/Xl/vJjJPuGrl/UvND87rHSwWHsUdzdr4ARHt/ttdv44bNDaq5pZvVRfT1MUr750f3en5uG6/s3J6uVP+HGh97f6Vm2jh7d+bnzRCzJFmhyAkmDRxdGmJ852d+y+75CyDQZClimJw94eflhQ7pk5J6BZljBUW5BFRd7fv4/pGxlhhob2kOBZFPXvu5PBS6x6PP7rT6bCt+OU1A3gxMMCam5v/+c9/vvTSS+Xl5VVVVXPmzJk0aVJxcXFxcfFw+sWgra3tl7/8ZWNjY/ij2+0uKSmZOHHitGnTKioq4tfzys/P1z6Vy+Vavnz5jh07Zs6c+Ytf/EIjv9FovP322wVBeP7557/zne/ceOONixcvtpw0Tf+hi3Pu8XjC4xBLS0vnzJlTVVU1efLkkSNHFhcXpxG3gpPZYIV261+4a/1Hsn2NdTuJHP66R+7SGCo16//9THGY09ZfXXppqlCJq5VIY4rzzg3rjxCdvuhqHc1Y97ZfXfFr9+Lfr1g0K+FdFsFgsLOzs76+/o033igvLz/77LPPPPPMiRMnlpaWOp1OQZC3bYYHZ37e+f3r2DAIQuWECXarTSPPJ4cauvZ3V4wqS54MGG/M6FGGYXqfFQ2fFg/kLs1h6qk7jPT0ZSXsUi8rMUX0edfevbT1+NFb736ssLgs9YkV0ln4PHt2vjnjrPNNZotqRn31TL4bbceP/un/riOiW+97YsSoCsXjUlU68bOOnj2NNM27obQ36ZL+u+NNV5fy4rj9NG3atHC4quJLq58b++Bt315be/eVF2+7fc3vqmvvX6Y2inr3E8uWJe/90up377zqoX86l1+/fNOTty346IY1f7hltmX8F6+ubqNvLVR4CdUA89c9+uv19Z7i6u/9bsXXZjsMRNuiaeFR3In5j9RtOFIX+1g54ZvfqiYqrvxsTbSJUv+nPyx70rVw1eYV58ua+KK4aeWm+orT4jLL+Hy+hoa0X4Oin9XCJwzHIUGlJc4pk8v31h893txZUT5Cltp4rH3vx0cnjC8rG1mgePjBQ837DzYZhNjY+1V/fOn1bR/G52ltcxPRV7+xKn7nRefPXHrrxZm5hmzz+wMNDR9r5wm/+Jz62i2fUvT8/eR2u1OeinPe2NjY2Nj4yiuvnHLKKTNmzJg+fXp5efmkSZNGjx4dl3GoTgYsLCy8/fbbrVarKIp33HHH9ddf/41vKK8+q7gUvSAI4T/lffv2LV++/MCBAzNnzvztb39bVqY83zbKaDQuW7astLT04Ycffuihh1566aWlS5deeOGF/b+iLIi0sgIB8eDBgy0nTmSrIhn50WhubtaTraWlZfPmzZs3bz7llFOmTZs2ffr0MWPGnHrqqaNGjVKNPGZwvL++6W8DO95fXsN0xuBTrGMx4bqSj9Iz3l/v3UgqS0dvtMZ4/+TLSSpWabx/XLaDBw8KgmAwGMJfwxuCIBiNxuj+8EYfniat723YkPwmHCJy1299QWtin+985XDVeT94PPnVQDJ1v12w/Ihaorj1H+vd5Fj4jctS9zweWrfkh5vaQsV7O+Qp4Qns4e1jx4698MILL7300pQpU0477bQZM2aceuqpY8eOtSa+8O5kwzl393QTkSCw6N8cs8n0tUsu0T5QYzLgyQzhKsi8odJmdne1Nx0+cOq0052FJUR9r/empx7a8o+15y688v9956cGk4mI9tRt3137mtI5Y5/znAULrvm2LT/F0qEjyirOvfiqDQ/99snf/uTbK/5stfVxDGom6bxRKtkqp06TgunOYtNl3Lhx0W3HrFsef2XqXdcu29AhkqFi0VPvLurDGcsWrnimvOKW69fu2vDo619efWlF9c2rB37KnxJ79Q9+d+/Vk2pmK8yXr/jyj5a+84/8X6xI3f4QD9W9uT88zOzj9U80UnHNNPHNrQmT/hwTzp3rsBMda2wl6m0v7Vx108bSG76zaG7kF8Dm5uZVqxICIpk1enTpr+6oGbjzZ4vZbPzCgjk//dXTtW99fNUV58pS697d39rmvuEb89WWmnrr7U96evw2m/nOu589+8zJ371pYXKe+FFXRBQIhFrbXJ1dPZm6hKxr73Dfd9/fsl2LzGhoaNA5x42IAoFAQ0NDQ0PDK6+8MnLkyFmzZk2bNq105Eifz0tEQ3cyoMViqa6uJqK9e/eq/ULY0tLicrlkO/1+fyAQKC0ttdlsnPOGhoajR4/Omzdv2bJlBoOhtbU1ZdGCIFx33XVz5sz5zW9+43K5SkuH7NszI0OYu12uJ/76V7/fn+qAnKYzXBV19OjRo0ePvvrqqyUlJTNmzKisrJwyZYqv08i4xFnSwjo5PN5f6aB+jPfva5Hp5c/6eP/+lXX//feHo1Hh1dDC4rejH+O/KqYKgmAymc4777zEEhaufneF/nZj4xPXXnq/aiSr/l8PPqj6XpbIGeqJ1H5R2PPoH7YQjblqsbyTMom7dvm3V9WHqPgrv/jx+fIe2lAoJHtyBQKBjz766KOPPioqKpo0adL06dOnTp1aWVkZ3ywf3lo7On/6h1Un2trDHwPBYFtnJxGNr6gIT9l7fvOr6zZuTHkenZMBwxZdeunlCz7Xr3oPEQhXwcDjNOALW1KKBSN7ExL7sg7Vv+/ubJty+jlCeKXAxHrufffN3f99PfkkxCgvv+CzV3/LlucIl/W5q288vO+jHZueJaL/992fGUzGYw2f7HjlH4oXE1U0cvSFly+OhquOf3qg6dC+yCz7+Mn2rGjk6DGTp48cM27P228kjlXq/Tb61Cmjxk9SuRtJ90RHz57GwpbhCCA2yAAAIABJREFUVjFLmOapkCUpofcXKfuoyYuvnDsiL/akVOuMjf+9RTGPLANjTN6ZU1jzs2c2fpMqKsLt1bbatX/eekyxsASJ70ZxzL7lL89O3UY1F9H62y5dlzyiKORqJKJXl1/6XlLkccKiP6++Sm21y3QVn1mTEI0658ebN/8gvMrWsTfX125qvHX63Ke+lqK0lm2rlsW3hNq2rrpdttB85dINT1VPmEDU0HCMqsuJqG3DI+vq3pu78DuLosOgPR7Pu+++288r0jBhwjiiYRiuIqK5VZMmTRz9wj/f+WzN7BFFsclK7R3dL/zznYryEdXzpioe2N7R/dp/dptMBiKSJOnJZ7YR0a03f0F72NTe+qO3fO/RjF5Blvl84oD+3ct9oVCoqampqamprq7uM5/5jN/ny3aNBolscp/L5fJ6w6E6Yox97nOfq6ioKC8vv+OOO+rq6pROIBdeG6uqquqJJ55obW0dBr9ZBQLihx/tc3V1Zbsi2dHa2vrGG2/s3r27urraZ57JpGKevA50psb7K4xZV/ysd7y/RnV0nU67rJRF6Rvvr5A/vbuRtEtPDEpnoEr/eP9Yi5LX1tbqGRLIGGOMxY/Dih+EFd1jNBqTwlW5w73psbWNRDT7tBQTAd21y6+4bVMbFX9p9XM/rU6eThA/ukqmo6Ojrq7uf//7X1lZ2dixYysrK8NDrkrSeWXeUGS3WY0G47HEka2Tx4+79uL0Brbn2e15Se+6BYSrIPP62MU7uIOypFDoo7rtRPSPP6/4x59XxCeZLdZb737s2KF9b/37OcVji0pHX3DZIlte77/htrz8a5fe+cBPbtyx6dmCkpELrlkS3v/tXz0wa95FRESx8BMjIr/P89DyJW3Hj8af84Mdr734yO80Knxk355tLzypmHTZzbePGj9JMSmbEoJZvVuWwrLJUyaUOgZrgQlHRSx+42l47YUN9Y7iCofqEGVXa6NbTHo3imFCzUVE1JiQ1dPS2CmSo7jC4awod5KnpfFYI2mevD/iRkUpmXTRbFrX+N7rm8rK1e6sY9J5c8ebKxY/9e5iol0rF9yw3nr9Uxu/O6Hh7TcbaMJ5Z0+IP1AcPYGorvEEUTnRrkcf3EnFX73lsri5NQUFBV/84hc1GnmMsXBqdEMD6137P5Zt5Mgi7UOGrhFF+Vd8+eyV923Y+K+d3/jaBdGo68v//t/+A03fXFxTPlr52rds3d3R0VNzway33v7kR0sve/Gluief2VZYmLf42gsEYagMac2A/HzbF77whWzXQln4b7tsiJDG3//333+/qakp3flTRqNx/PjxF110UVVVldFkeuyJp/pY3aGjp6eHiLRHPzHGZsyYEQqFbrzxxiuvvDK884033nj55Zevu+66adOmyfKvX79+377eJW/z8vLyVF5MPrRYrLYLLrggGAhkqwLRv/zhH4TkHwfFJNmPwKFDh/bu3duHosvLyy+88MI5c+aMGTNm5X+6pKahPKr0JPpHfdBFQ21S8IILLhBFMRgMBgKB8NewYDAoimJ0ZzAYDL/wIRgMDmZN2/ZsfT/cyxrMv2zZ7WZHiTPVCnvijMqakPmDLVvDPZMVs2oqy4iIxG333KPUBS/XuXX5Vcs2tVFx9c/W/EIeqzp69KjJZOrq6lILV4WFQqFjx44dO3Zs165dW7duLS8vP+20084+++zKykqbTWvlptxRkO/4wvmfsZjNFrPGG05i7Fbrzdde0xw3qnd8RcXY8nJjJGJ++YLPnSQjoQYCwlUwMKJtj/jhQko0em9ifTdJqRq9NTrfw9LSdLh+138NBqOjqMTT3SX6vPZ8p9lqJyJbnsNoMlE4bnXP42MnTY8dzGjdfcv3794pK2vEyPLFy+555Fe35jmLhMi/TWqVZLLvcRbf8dupVdXxFd217d9mq3XKnHmm6FoM0cRINlueQ607S/497ijNt9Jo/nmx+A8qZSY1UFULG0htB+ppTGVxXCSm8puPP7VYdQhS7c+rbktaaED0iGa7majiqtUbr4ru3ba8aumm2NlkHzNNPipK0eurlqu3RSq/t/Gp8RVERKH6B3+5vq34qsdvriRqrL1/2SpauvGpCfH1No+dUEFbGxraaJZr7W/XtxlqVtyU8Ca7srKyH/wg4TWLmWUQ/ETyFUqHjS9+/oz/bP/or+v+c+YZp86cPpaIPtp75K/r/jNubOnlXz5H8acvPPZq9qxx48aWvvX2J3a7+UdLv9za5vrfroNXXnZOfv5JtEjEiCLH//3f/2W7FsoU/+w0olG/+c1vTpw4ofP3H4vFMmXKlOrq6nPOOaekpMTpdObl5bW1txuNuhrTQxHnnHMuCMLBgwdtNlvvi181GQyGqqqq6MfDhw8T0WmnnXb++fL3aW3fvv3o0aN6zjmEOJwFixcvLirs10vW+6Nvq8XJfkZeeOGFtMJVU6ZMmTdv3rx588rLy51Op91uNxgMpnf2EfMqFTbw4/0TPusd76+znlpV0yhLI0G9npp3I3EdKn1rVyns0jMpUH28vw5KtY/8deOC8Sc/+Ul4XhvnXJKk8F9F2UY4QzhuFY5hiaIY3QiHt8Jzk0VRY6WLxvW33awwQp+IiMZ/48+rr1RoPR7c9Ic/6IkxqbvopzWVZUSh3at+vUm9z7OX/8D6225eWRuOVa26bELS2MRbbrlFEAS32+3xePSU7vP5jhw50tjY+MEHH7z44oulpaU1NTULFiwYNWpUXy5mEI0eWbr0uuvSOmTGpEkzJuXe0IFhAeEqyLzeiIauIb4DXRdVH77zhqe7a/H/3T3nMwtfe/7xl55Y/bXv3zlj7oXRWu3Z+WYst456jquc9Yu//ttktvbnouz5zoLi0uhT2d3R+sYL63w97qV/PKugOLLKbFK4aoCWE86orNSw/pnvX7u2uXrF5tULI633Y6/+4a7Dqr+fNO5O3tfwt+uufFRctHr90rnJI5eSnuUDpOLKNZu/pNQMCra+tuK6lbUiEU342kNrvnGqPIPfRxYrEZlt4amEYu3dt649Yl644lsVnW1t1OYKEpGrra0tEvAwO4od5vGnVhJt/ejjRs8DD9ZT5Q++L1td3mAwFBUN5AAo3kNDe/UVLXa75eYbP//9ZY//6jf/WP27bwoCu/veF3o8/h//8CuKi6xzzp95trbhUPOtN31h34Gm8M78fOvvfrO4u8e3838Hgur9nI3H2gOD2xs80AwGYWD/7g0iPS8yY4xNnDixpqbmggsuGDdunMlk6tuiv0NOc3PzAw88cPXVV0+ePHnfvn1Op1M2uir8++Gppyb9oxcRXtAq+UAi8nq9LS0tJpNpmL0NUBCEgoKCof4DonP8xSmnnHLRRRfV1NSceuqpFovFaDTq+rnQ+aMzwD9hoWDg+KF6SQqOGlcZ7igdfC1H9vd0thWOOqVwZKputmH2703cwP/i4vTedhwOY0UDrLKP2sTWxsZmR3GZM6F/ydPS2CnmqwR/5v5g48ZM9Azuvu+H69uo+My5zp116m/J2bTsmk0UouKv3PvcHTUOpfZt+BWu0bHzOkuXJMnj8Xg8nhMnTtTX1z/yyCPz5s276bqrx6m8VQZABuEqyLzeRT+jXS5EnKm8zIQTD4/FUe//UHyLi8baVTz5xSlJqzW5O9vf2bpxZMX4STPPjOWKLFaq0A0Uv1pTYvXjyzKZLPIDk66XIvcm9j0x3dPtCvjFcC0+2PFa8+EDZy34stli62xrjpXVu1gAIyK7o8BksarfjXD2+L6s3ovRfCuN6qNI4W7Iu9R6/8h7k3h84uBq27v7GFHlWbPieprdR96v69SYDJi0y1P/8QESyy3OxN8rGw7UE9G08QMylkqB3VGc3KDt3P3gj5as3SVWXr/6qqbld/191SuXP7VofCTV07D1/mXLnzV/Z8NTi8ZEj2lp2NNGRJuWL9gUO9Ha6xesjWwvXP3uimr7rNOm09Ytv7re00bTl6746mBd5kljxrQxS2743Mr7Niy5dU1ennX/gaZbb/5izQUzFTN3uTxvvLmnet7UqjmnRsNVRGS3Wz490vKr3/zD5dbVzwlDAmMsvHDvmDFjzj///Isuuih5Itvw5vf7n3nmmUceecTj8Xz2s58tLCz85JNPxo4dK4vCxK9dpairq2vfvn1lZWWJr1AkioykyHzVYSAZjUaTyeR0OmtqaubPnz99+vS0o42DM94/fji7Sm7R59m5+WnR55l/7dLi0fJF05hCPTSqpl6WWg2JiOjjt17d/+72uV+8pmhkhdakBeW7kTh2P+GSVcvWGO+voW/Rea3x/v1okIYr0/cOg0nfevypRQktqm3Lq5ZuUsuedrZeCeu7u7ct/+Hf26j4sl98b8IDX1da109sawmPvAoVV9+x5ndXTlDrSDn99NP9fv+JEyfa29vTncYeXfyroqJizJgxJ/mrAyEtCFfBwJA/ZPvSOIhlSdk4SNilXlYkxedxW+350888z1Eo61fRPHHih4Do37bx6ZZjn4b3jZs6e97nL09xLnk9FR7rz/7x129v3hC/853NL76z+UXFkxHRzSsfmX3eZzUrTcrtBa1Wj75GT6orjPuUjb653XV1RBXnzo1vGaQ9GfCT9+uIHOefl7gyZVvdmw1Ec2cpL4pNRESiSDqGTvRRSGx4feWyn2xooOKFK55esbCY3D+vq1226tvLJzy3otrQsPWhlff8va4tROYxc12H3TQmOjiq4qoHN38hNhan8Zmbr19LNzz+56sjNyW8envF3LMraE9jm6Fy6V2LkgeEQ/9d/uVzmk90PfbEViL60sKqa686T60FXOC0n3t25Weqp1ks8mlfkyeOfu7pH0qSaqtx3/6mO36uvOYd5BTGmM1my8/PHz16dFVV1bnnnjtjxgw9w6+GmZ07d27cuPHQoUN2u33ZsmXnnXfes88+29zc/OUvf9me5gK0e/bsOXTo0Pz58x2O5MWCiYjCqyNnotYwUBhjFovF4XAUFBTMnTu3urr6jDPO6PuYOK7SBdpbWNz0N4Xe1WgW+Sw2helvsSSVshR7LKNJvb2J8fXo3Vbp+01dFqm0w3j0rqjN91O+G4ll6b0b4SSF69LAOdcVH0o8U0JZ0SSu2PQeKibcsHbN1bHeR2p8esn1j5PiznjiiWNtVHzVb39W7Vj3QNJJ3bvWLf/JqtpmIqpc9Jc1S2cp/2sZtnbtWiJ67LHH1qxZo3Mau8lkCi8OWFxcPHny5IULF86ePdtoNIZ6WrmnQ88ZABCugpNRafm476/8a7o9AzJSKLSn7o39H/SuYxUMiLJwVd9MOm2u0WwhoiOffHT4kw8nTD+9/NRKIqVGCCMiKhop7zfOFQrj4QbV7p21RDRrdkKgKd3JgA3v1bmJamRxqfpn1u0iOr3mM+qjyOsfvvK6Fyp/sf7ehcVERO5Ot6NQqxGgm9hY++jKFWtrm4moYtHaZ5eebiYictT8+M7L6n644bZLah0etzv0/9m77/g4qqtv4OfObG8qqy7Lttzk3m0w7iYQMNgGAiaAaTG8tISWkArJ80AgISTAQ4BAEgKhBUw3JaaZ4ga4YcBFbpIsS7J62b47M/f9Y6XV1tGuLFnFv+8nH6Oddu9cE3Z07rlndIWLVz/y42vmDo/+dVeXHp777rVpiMhmDyXE+/1+mUh0NNR5iUi3/KZQulbVs5de9uGUex/+xdzUcuchDp8v8PJrm196dVPw47oPd1qthhuvPctsjvNrGGPsx9efHfdpXaMRw18vGKu+ofVkWDg2oFkslqysrNzc3MmTJ0+bNm38+PGJwiuDW3l5eVtb2+bNm4lo0aJFP//5z3Nzc5uamt54443MzMzvfS96Vqa+vp5iXhcYIknS22+/TUTnnHOOGPN6OL/f39LSkpOTgxn+fstoNAb/fzFu3LgZM2ZMnz69Z8rhd4Z94kWkkomicN51ThBPELBRv3I3+pnKviSbTO34pIpPxQ2FRUf9VK+QxJgn2bxKmLC/81ft27UrbBFAQ42fiOJuDGdfevmNvuLVU4kqIy/XuHXN73/z0OeNHRuKZ6vGqkJU3gwYYjKZMjIyMjMzR4wYMXny5ClTphQVFWk0CDtAd+DfG+h58b6VEn4jqczehJ8f/6z4RyVuK2z5W/CttDH97qqtsC85vdH0k/ufJmKO5vq/3HZp3H7Hv5vE+znRnKUXnbZ0pcvR8tjPV6fZs6+88y/ZhcOIaPN7r1Qd2nf6yh/Z84d0dDiiUwlGI+ZzzNLIeJ1M+GQQMbMXf6Tjbj3xvzCXbvzcQbRk/syIrSkuBmzc9UUZUcmUyeFBn6rnf/9UFdGSi85Wids01FX5Wybp0omIHJ//5ge3bR2rmmLdNXfZplf/+di/1pU6iHTFc2f6N22zZIeVkbcuuOu1x3VX37imTNZNvvqRR26YFVt6oPMtMy37Nu1rJGrbW03k/ufVy5711zY6ZCJacu+G39ofu/rmdxuJyL/2uTevnRt8J2D5wVLHnmJfn9XwHSR8vsC6D7/+69/ea25x2ayme//nEsbYAw+99dIrm9a+u+3C80696vLFabboLJKT6t1/J4/CwsJFixaNGTNmwoQJY8eOTe+7Ctl9zu12v/HGG0RkMpl+9rOfLVu2TBAEzvnLL7+8f//+8847b/jw4VGnOJ1OSvC6QM75iy+++NFHH82YMWPq1KmxB/h8PrfbfTIPeH8miuLChQtHjx49ceLE8ePHp1pdqAs9le+f3PI39ba6+s96V/n+Se9M4vsjcVvqefSpjUbMpmS+2ZIMVCWf7z9Qv07bynZu2hQWUGo70kZEcTdGMC1ZfVnkFsc3ax64+6F3y/xElDv3tvuu8f3p6se7ep1PEOdcluW48/2MMZvNlp+fn5+fP2rUqJKSkpKSkoKCgqSuC5AYwlXQ8xLMWxzHnE/K8ypdtFV5aO+jd17j93nDN/7z97eGfl525S2ptBXf52+98N2Xn0ZuY0Qky4FjFQe1eoPKuTs+/W/Fvm+WX/vTrIKhwS0Hd32189N1p37/AnvekG4NZIrjrzLmSeRuJzvn1nsqt26sJiqZMinyF//UFgO6t27aRlQwb1bnt61j6wO3PLSHqOTGG89QmYaqKisjGjkiuIzOWjJ/in3d+j9ceGnZI0/fPjduAUt1ja9ef+YfthIR6QqXXPOLW1fPpZcuXb6tY7fsbyzd+N/X17Sd8cSLr5X873X3rHv6+kUvFM666Ee3Xba0JLczpNWw/uE7nq5q/yBa7bk6v5vIVDDllHEFQ2dNKdAR6Rse/MFv3mi0f+/eJ8/acPXP1j38yPrT711ipbJ9+zrvCLqhtq71xZc3vPXOVofTI4rC8nNmXX/NmcHa6lMnFz/xzw/eXbf92Rc/e+HlDRPHF1168fzTTikxmQZVHWiIcvbZZ6elpWVmZvZ1R/qeyWS65ZZbnnzyyV/+8pfBX2845x9++OFzzz2Xl5d31VVXRWVI+Xy+7du3x62Vzjl/5513nnjiifT09J/85CdxlxDu3r27rq5u1qxZqS4whBNg0qRJCxYs6P/vDutdAzWkAqqq33v492URGf7V3yZ9csHSH9+1Knzd37N71++huBu7YLI6Dpb5dcUr73ngtsXFOrHq+URHVm7d5B87a6Q19BwZm1rFGLPb7cXFxcXFxSNHjhw+fPjw4cMzMzOx1Bp6CsJV0MtY8I/uzGV1zt3EXwaX8tGh8IvZmnbq984P+H3BvaVff9Fcf2zynMUmS1pwS8Hw0dXlB+K0FT1Po/ZAsW/HZpW9GTkFcWehGFF9dcV///3X/OGjT1t6UZyFPKmNRswhne8TTNg3ldVDEROT8WatQn/lkU507nXjto2lMYWruiCX7TsYuWXbhvVENHls+3pCf9Wb/3v1PesaSSy57b7VEYGbrMJCotIP16wrmKIjour/PruH6JyxxcG9uWc98Jr9/quuX/PSzT+ojP96YHX282+7cf1DbWfdds05JcFoV5nsJ/Lv/ej5e7a++fG2ModMRHTWAtIVnXfv26df/MYf7/7Luq0v3HPpC/eQ1V48ftaSi26/cbG9ZNXTay8hg2i1pwefPaqev3T5Q7T01jtXFRKRv2zNz667f1Ojfe5dT953VrE495eL1/1m3R3X5T/xwJJvPj5EdH7HHUHSmpqdn3z23cuvbS4rr1UULorC6Ysm3XTdWcOGdmaF5Oak/e7XF121atFjT677dMPuXd9W7Pq2QhSFcSVDLr90wZKFk+JmVx08dOy397zkdHljd4UEArLTpVaOGvpQcTH+/9Rp/PjxDz/8cPA3HM75K6+88vDDDxPR7bffXlRUtHfv3j/84Q/FxcXBel779u3bt29fcXHx6NGjwy9SW1v7l7/85ZNPPjEYDL/61a8mTJhARBUVFTt27AgtsaytrX366aeJ6PTTTz/B9wjJ6N13C7Tn+1Oi5HA6/nz/UNkkzptqyo6U7qw/ekjU6Oz5Q4eNm5mROzT4iBValKYocvWh3RV7trY21uYOGzN6+gKbPS+0LoErSt2RA15XW/bQ0SZbRnhbrfXVzbVVlnR7VtHIYMOyFDhWtleRpLzisRq9sWr/N+XffdlaX5NbPLZk9uK0bJXaEe331VxT2VJXzQQhd/gYoy098WjEvGqHxd3RVf5/UmsJOVHSOVZx+hlvNWVfcZSufyO5LKY4Sv953fI1YU+PXkcVEcXb2NU3i1i8+vEPVlrtXc+elr15823r6JxHtt/dXrpdUZRQuGrIkCFjxowZO3bsqFGj8vPz8/LybLaE1TYAug3hKuh5SWRT97HMnILzr7kj+LPP6/773T+RZen8a+5It+cRtfc8FK4Kbela5GHX/e9jE+cs7tzB2r9u/R73E7+5ruFYVcz57XZ+9n5rY73H5bz/uvNDG9ua6mVJevSOq7W6iMnky3/9p3Gz5iXXvz50gv9taNywbivFFK6KY9M9M26OKGxPU6eE6lR98+UmIpo1cwoRVb17xw2/X1/lJ7LPvevvj5wXtTBl/IqV4596aM/zv/lFxxyVbvJtP5rbeYB11i/+82rW6gsf33TPLf834tXbJ6e2KlAsWf34E2GfqzZ9WEZE6x59iEhnnbRk9bkrz/7+lOLgr2OidfKF9756/u/Kvljz/AtvfrytrOygbd4COxFRuj1h/M5f+tTqSx/fE/4OY+tZv3tk656b33z6+uVPE5F15VlzE50NcUmS/Ld/vP/6W18SkdViXHHurMsvXZhlj5+XN2xo9p/uvby1zf3WO1v/s2ZjXX1rdU1Tfl4GVgLCySC0Ql9RlAcffPDll1/WarW/+tWvlixZQkSZmZktLS3vvPNO6HibzXbzzTeHctNaW1sfffTRd9991+fzDR8+/O677w7GqoIXfOKJJxoaOhd7C4Jw2WWXzZ49+8TdHvQTx/9f0+Ty/duaaje//a/GmorQlmPlextrKhZeeGPwbc5BHmfr9o/W1FbsD35srC4r3bp+7vnXDhs3I9iYJPl3fbb2WNneJZfeYrJFvByzct/X2z9YM3LqvHnt4Srye1xfvv2c3+Oad+F1uze+d6xsX3B7w9HDpV+uX7DyumETZ6ncWG35gfX/ftDrcsxYevGwiTMTHxl+UveG9ESm38e01YffqCPD32zTSWfsasWrPquwYNbK++89O7dzW7Cq+sr7IkqtN7z7mzteyer6CTM9wYNIpKrKMiIqGdX5yKsoSl5e3vnnnz9lypRgFlVmZqbRaEziYgPPvsOHb/79vWOGD//Tz+8wxRQ63Lh9+8/u/9PShQt/e9ON6ht70OadOz/fum3BrJmnTZvWG9fvnxCugp7HqfNdI8FJDM4Svsykcy6Lor9COt/rEfO2E5XZGh774hTVak3Otub6Y0cczY1v/PPPl/zkdwaTJfbCFHo4iZyT4TGfg6fOX3bJ7O+tMFpiJhk4EZHWYFz9P3/lXDbbOgtneN1Ond5oy8rhREazNaUC6qqjEdwVdkjHk5ZK7argovS4OVZxRiN6Sq39r7x9Fw/fecJYZ137i9XWshETwraJuqyCQopa+TF2yY3nU3Xoo33SqlXnhZ4aCs+4cXXtVtt4OxEVLjhvknWjbvG9//fTJYVxHgQKVz23ZUWjI1TiUme1W6MO0xWvfvxp/T8Oz70lxVhVHIVzzyh5zG1b+aPbrjirxB73cqKueO6qu+auuov8frdO1+Ucmq5k9eNP2L8sWPq9sPuzzr3rzbVz/3Lnw5sb7YvvujG5x1cI0WjEW248JzPDMm1K8czpIzWartPq0mymKy5duOqHC/bsq/T5pAnjihIdOWpk3ovP3Jpob9De0qM33vLPlPsN0HcEQbj44ot379591VVXLViwIPhNlJ2d/cwzz9TU1NTU1BBRRkbGpEmTwt+caLPZJkyY8Omnn95www0rV64MXyRYUFDw29/+1uNpTzPUaDTjxo3Lzc0lONmcmHx/Rq7Wxs9ff6K1oSYjd8jkecuyCoqJqKGmrLZif3giuiJL2z96RWcwLb3mLpM13e1o+fK95xqry7/57K28YaMN5rTE3YjbQ8baK05I29b9R2cwL7vpblNaRmvDsS/e+ndL7dGvP34jZ3iJ0ZIWeVb7qDRUHgrGqkpOXTJxwbmMCaqj0Z3aVSr5/iq697YQtXz/vsmuMhQvOe88mlKYYjE2f/nWjQcdRFNuvWUKVe/a1fnAGr/UOhWsvPUWcny0fj1Zi0+bVXx8y50bq6uJqDCnMxlcr9cvXbr0zDPPtFgsKJ2ekjan6+u9e6SuqtQH5WZlTRg1Knb7oSOVb370UWFuLsJVAMdt4GQDHNm/29HcyBjbtfkjk8V24fW/EjXRb4tPSe2Rw3qTOT0rj3O+bf07+cNHF45oz9dpa2o4enjvuJnzzLb0qO/flvpjgiiIooaI5i+/ZP6KS9p3dBz37B/u2Pnpuh8/8PTQkokdzwf9YJST6ULEAsITQ1c4c2V0bKVg5SNvr4w+0D539Z0JM4YDpz6hAAAgAElEQVTsU1feOLXjFOvcez/Yot6otcuHEOvkVbdP7uKY5BRf8eKWq5M8VqdL+LxSuOrF7atCn6yzzot++xaRrnDJr55eknIHoZ3FYrjh2u+nepYgsInjh8Zuv/KyRVdetij564wrGfLJuv9JtXWAvlVUVBRcrxciCEJwGj+UMxWFMbZ8+fJzzz039jcovV4/dy4yQ6ErPfScwhXl68/ebG2oyRs+buEF12n17YknRWOmFo2ZFt6K5PcZLbbFK3+sNZiIyGhJO+WcKz5+/i9tjbXNtUfzR8QJVyXTT8nvM1rSllx+m85gIkZGa/qCi657/6k/ttRVN9ccMY6eFHuKs7nh85ef8DhbS049/dTzrhJiXqY5qPTNs7N97jV3deM/Q/Xbnnv43+VxdwUXA2569uFv4/91DV81PqVwVVlZJc2NmCAr3bjJQVRYPLRzYoAxluh9rIOerCi79u1raWsvZr/v8GEiOlZfv/6LL0LHxN04oqhoeGFhdV3t7//2RJvTmUxbSxcunDBqVDBXa+bEiXHTu04eCFdB7wifu1CNViSxcjC12lVqbcXskWXpmy8+FkTxR7968PO1L2z54PWs/KFLLrgyfDJHpXZVdEoT51s/Xvufh3+7+q7/y8jK27Xpw2fv/2VB8egb7/unLTPL43T8/Xc3Hin97sKbfjN/xaWMddYg9HncTbXVlrTMtMysrmM7qY1GzOfQlJPaJF1Xf18JG47Z2v5poL43uP8a1A+TAACpEgQBxX1BjXq+P+/IC08m3z9xtaa2xmPHKvZpdYbJ85dp9AZOPH6+PxERjZ62IBTPIqI0e256zpDailKPsy3R+6MpwWJETjyU8j9m1iKdoTNQYcvOz8gfeuzwXkdTXewFfV73xleebKk9Omb24lNXXBGKVamufugYw9BCiiRqV6nk+6tQyfePvpPIYe5sK/Q3wMP+7C/8fndoTtFRWlpNRIawB7zCCx9Ze2H8M6uevXT5/9E1T764KmESdpIKi0cRlZY+dN31e08rDAVF2r55b30lkX3uvK7qapwkfH7/v159bdt334Vv3LFnz4490cXtozbedNllwwsLC3Jy77zhekmWHS7Xky+9TETX/fBiq9kcPObzrdvWbdhw1vz5C2bNJKLcrKzevZkBBeEq6HnxAi4Jl6n3TGHLiKMStxWz/K2i9Ntvv/y0aOT4keOnFwwb/bffXf/Os49k5Q+ZclpnkklEW9Ffcp1ted2uVx+/d8M7Lw0dM6GgeHR56bcvPnSXwWy+5La7bZlZRGS0WC+66c7HfnXNq4/da7NnT1twZuhcR0tjbWVZ/vBR9dWVj/zsKo/TEdv5RLWriOjyXz8wdtbcBKMR81l1aWTnSCV4Moh4yktYgDM2+7ofJIIBAADAyaynJlATL39rrjvqdTlyh47JyC5Ub0tvNNvsES9AFLV6sy2TiNyO5qTmIqN3MiLSG81pWQXhOzRavTktk4j8XnfUOT6365PnHq4+8N2QsVNnL1slanXhl0vcZHcWA8bZlFSGfnIPkMlPoPavB9L6Ndctfyg83CEumdu+zKvq+UuXP9RVZfaHzpvxUOK9JbesVXkddsjcO55Yte/m5w9tXffG1ogduXN/8dfbJmN+lIiINKI4Z9rUIR0vLT1WX//Frl1F+fkzwnJ+424cObSIiGwW84JZs4ioobnl2TffIqK502dkZbSXhamqrSOikUOHLjn11BN1QwMGwlXQ8xKEdLoqrKiyP7nClsldq5PX7Xz/5SdlKbBw2WUGk8Vgsqy4+van7rv9pb/+rz1vCBFJUmD/11801VYRdX5fNkWXSOcBv08OBL7Z8jERzT/3khXX/tTZ1vzs/T/3ulw/uvPBYSWdedfDxk6+9Pbf/+ueW1/8y52ZOXnDxk4O9rOm7EBbU/2cs3+gN5pTuc2UpFjYUmXMu74SJ2KRh/WvySwAAACAHud2tBCRyZoRHvpJEmOMeuHdGoyx8Iz+cLs3vKfIUlpOwdwLrw1PyBrMTtQDqS69sLCgy6rnhbMuOO+8UPqSqXjJRSvntv89FK58/IOzk6p0lLgP4UXcRV1WQaEzPV6PrLNuW7PlNrej0ePv3BinCOtJTafVXrZsWejjxu3bv9i1a9KYMb/8f9eqb4TjhHAV9LL2PJvuzGV1zt2ksvxN5ejw8IssS2ufeXj/N1+VTD11/Kz5wV0TZi0894qb3/73w1s/ftuSnqnI8tv//r/YpjI6XgYcbGvXpo/amhtEjeaSW++edfry5oaaJ++8ob6qYsXqn06Zd0ZUT6bMP2PFNbe/+Y8/P3PfHT954JnM3AJFlretf4cxNmbqqYUjxvzmqXciOhpbu2rsxKhdcXKkWYJ/RpwVe2ehQ1T/vlj4hwRtJjG/BgAAAHBi9X6+P5EsB4hz9ba6Cpsk21bkztTaGj1zQW35/pbao19/9Pqc864Wwt4HojoaMUvvklgMGP/oLh8PU56xTtxPiu1ML5p1+9q1t3d9WMn5d911fvxduvTU6rJ3IW4J13Amq/3kiFiqaGptvfOhh481NBBRQJKcbve3+/ev+ln72+RXLV9+wZntv9nptLqCnJx0a8QrFuNuhOOEcBX0vCSyqfuYoiifvPnslg9fN9vSz/vRz/QdE0qMsUUrVo2cOH3o6ImfvPFvrU6/+jcPFw4fEx6gee3JP1aURqxbnjr/zG82f3z2qhtLps9paaj71z231lQcXLH6p6df9KPYuA9jbPEPrqqvOrLpvTV/veOqnzzwjLO1+dtN64eNnTx0bJz6lwAAAADQc1LMN484tYvoicmaTkSutuaA36szmo6rLeKMWPBJMpi0Fc7vi17Z143EIas9d8zsxR89/efSLz4mojnnX510nfXYPPrk9Vy+f4+3BSc3ReG1jY3VdZ1V3nx+f+ijy+Opb2r6dv/+4Mcfr7qMiMKrqkdtTLfZpowdK6Ko4vFBuAp6mXphyy5KOQa3dRS2jLMrclOwJBPFtBVTrem7rz599/lHRVGz8oY784aObN9FxBgXRXF4Sfu72xhjZlu6NTOLwhKOtHpD2IU5EWXmFNz8p2cEUXQ7Wp/6/a1H9u8+e9WNiy64Ms6XKyciEjSaFdfd0XCssnTHlo/XPNXaWOf3eU496wKj2aoyGrG3k9xodIxh6JCOb32V2lUqhS0jynwmX9gSiwEBAACgD52QfP+M3CEGs7W5trKhuqxw5MRER7OugyiMiDQ6fTD+1VJXxTkXOh7M/F5PbVlp5NEs0a2ptMWIsotGLrz0ps9efGz/l5+YbOlTTj9fEDXUxWh0p3aVSr6/iq6LrMc9K/yfURfAAykklpWR/tpfHwn+/ODTT6/577qoF/Nt3L791w+qlAuLEDr3q2++/ePf/x7cKCtKQ1MTEa3+zW9CkSyX201Ez7/11hsffhjcsmj27OkTxvfQbQ1sCFdBz+sMUPTX+YwJsxYsWr5q9ORZ42fMT3TMxNmLcoqK7bnRFQrnn/PD6QuWGi228I3BySiTJe2HP/ldWemuOd//gRjzLu1wRrP18p//oXzvN5Pnfa9y/24mCDOWnBtxRH8duhRE/AswCO4HAAAABqkeek6xZeYVjpp8aNem7R+tMVnTM3KGBLdzzj2OFqM1jaWYapFdNOrQrs3l3301csppWYXFxIhzvn/bp/WVB3umx0QFoyfNOf/qz156/OsP39Do9BMXLutekGhgGLx3Bj2ozencfSDh/8VOnzPntquuUjn94JGKux7urCfjD/jDM7aCahsaora0Op2tTmfw5xZHnPdunZwQroLeET53EVHuKFoSKwdTq12l1lbHHlHUrLg67oLyznNzi4pzh46IvhyjYSWTwroU3VbhyLGFo8aqdqL9n+nZ+VOz84lo2NjJV9/5YJdzWVf8+s9X/PrPccdSdTRiPoemnFTGXL12lVrDMVvbP2EyCwAAAPqOer4/Jx7MxUkm3z9xtSbGhElzljbVVDTXHX3v6XtzikbbMnI453VHD5qs6QsvvDGYpJ9c7SoiYoWjJ6fnFLbUVb3/zJ+GjJ6kM5qbaiqcLY1DSqZW7tsZ3n2e4JIqbXWU1+LDJs2a3nThtvde2vbeS4yJExYsDT4KJhiNjjEMjkNytatU8v3VRiFxvn/0nSSZ748HUkhCRXV1eVVVor16nS70Ur+4Gpqbwv+lnTdjxhdrXg7+vGvfvlvvvW/cyJF//uUvQklbz7219rEXXrjpsssuX7E8dNbG7duP6x4GC4SroOephqf6sb7rc9KVAvqHJAcqicgWAAAAwGBiTrOfsepnuz576+CujbUVpbUVpUQkarRDRk0WxZR/8zKnZc674NoNrz7Z2lBTvnsrEVkyshZcdENjdVl4uOo4McYmzF8qBXxff/jG9nUvm9Myh089tf337cH0BJfEIkwAIvpy1y6Xx0NELo/n94//bcLoUZeee24oAvXt/v1//Ps/VE5vcbR5vN64u7Z++63H5yvIzTHq9ep9CBZuz0xPG8zZjklAuAp6HqfIuQuuVo0piWpNqdWuUnlxikq1JpV+RmyKXuHY1X3FbyXhIaqjETZXlHTtqjiHxFTyiqOjlFfc7ieqXaXaT0xmAQAAQJ/qqXz/rqo1aXWGmWdcPP30C30eFyNigqAzmgSh/dcuoyXt/Jvui9vA3BWr565YHXXhzLyhy398r8/tIIWTwAxmG2Msf+S4ifPPCW/YaM34wU//HPe+Flx03YKV14VvnL/yhvkX3xDeaUEUp5154bQzL2wfppg7jb7J0D+Tq10VZ1Myv4Mn+Yt68vn+eCCFrrQ5nVt2fq0RRYXzptbWxpaWTTt2FGTnLD71lOABlTU1lTU13bhyXWPjR5u3CIJwyuTJXQahZk+e9Pqjf+1GK4MMwlXQO1jED71d2DLJo1X+s8Di9CNe16K/+JJbNBe5lSU+RHU0Ep6nOhoxh4RuVW00VO8r8i83fptJPLAAAAAAnFgJS6t2ThmqTmzGPyveIYIoGi1pEY92oUVz6hOoLLotxpjBbAv9nGTf4vcwuXNVRyNm6R2LPKuLC6fyTJjcawFrmnydwxL2qNq+cDPsCm6/kkLrcFLaffDg/vLy6RPG7ztcVpSXd+X55/3ukb/e8/jjWm175CTV2lVBkiz/67XXy6uqJo4ePXvKlFR7JSvKgYryVM8aBBCugl5zEgYoTsJbThYmswAAAKBP8TiRoBSvkET0JDq7PH5kJ4krpNrPVCNBXQSWuj45mZNUIlbJjkbXY37/qxVJXAigaz6//40PP9JptfNmzNx3uIyIJowevWrF8keff+GDTZsWzZ5NqdeuIiJJlv/24n/Wrl+v1+muPP+8NIslmc489sILxxoazUYjER2prv563z4iysnM7PbdDUQIV0HPi12FxlnMcr6I/fFnbxIuflNd/hZ/6WBXy986doW31fmw0HlW9FNHV/cVb2t7Lc8U57JSayvsSSC6rY5vfdXR4CqTd51tJSxsGdZge5wKkTwAAADoOycm3z9irVtv5vtHX7jv8v0jbjlh2yr5/ip6r2pPuhG/BUMcew8d3v7dd+NGjhw1bGho48qzz7anpc+fNXPH7t1E9OmXX369d6/KRQKS5HS7w7d8sHHjf959l4iuXbly3owZSXbGZrE+99ba8C0lxcXTxo9L8vTBAf9HhZ7HQ/+IG0FROS3R/uQygVNoS+2kBJGzZDLDU2621+ayjr8tlTHv+krH008AAACAE2ugPLEMlH72bxkm7QXT7X3dC+h3fH7/i++84/J4Fp0yO/TaPiLSiOL3588LfXR7ve4EldQTOXPevL2HDmemp/3wnKWxQdjLVyy/fMXytevX//Hv/1gwa+Zp06YFt59x2hzG2NFjx6xmU0lxsc1inTK2RK/Tdff+BiSEq6D3ha0hj79TbT8lNZcVsSlxW0nM4nSxSWXaKOUdqc1lqcyBddXpyM9JzOyp7FMdjXhbOxOxAAAAAPpIZ75/vCdL3pH8nky+v3q1JgodFdNWkvn+RCyiH2H5/gkmE+O0FadH0VuPI98/rK1kRyOmrSRmoznnlESO1eOXjlY/IIrFIE4rSmo1FpxUdu0r3bJzZ0FOzmnTprU5nbEHBN/Wt2j27JuvuDy4paG55brf/paInrz77tAKwUNHjvzvo4+Fv9RPI4o//dHV6q1/vXffe599VpibGwpX5WVnr1q+rEdubeBCuAp63kCd+Bmo/T7hkhyoJCJbAAAAAP1LT+b791I/ekJKayDiOjH5/km4Yk5uz14QTk5D8nKzMzOXLlxQkJMTN1wV+7Y+RZE55xk2m07bGVcZOXTos3+6P+pcWVF27dvX0taWqPVj9fVEdOjIkfVffJHomHSbbcrYsaIgJHlHgwDCVdDzOEUm0/Dg7AzF/XLqnL2Jv58SVaOKPrzzuy9xW+rvYUnQT5VqTWptqexI3E/V0UhYy0t1NGIOSWJmLzS1F7f7nTN78Z834vYT2VUAAADQp3oq3z+5ak29m++f9M4kIkPHl++f7GjEbEomZnXigoMAlJ+dffHSpYtPmR27q76p6dv9+2O3V9XWNbe2GvT6zTt36rTa2ANys7ImjBpFRD6//1+vvrbtu+/U+7Buw4Z1GzYk2jtz4sQ//fyO8IWKgx7CVdA7WIKfkzxlEDtJR2Ow3Q8AAABAak7Sh0CAgYExduFZ34+bu1RaVvbrBx9KdOLhysr/+eujcXctXbgwGK7SiOKcaVOH5OUlusj23bsra2rGjxo5ZnhxomOK8vM0oqh2D4MOwlXQO0LJNO2r4rszl9U5d5NKtabefQ9LdF2mFOeyWGRPE50VfzQSnqc6GjGHhG5VbTRU74uFf0jQZvzUMAAAAIA+cgLy/aNz8iOvlUyGe+J+qnWtD/P9k6tdFWdTMosCE+f7A/SGROvsSoqL77v9tqiNLW2Of6xZ09zWRkQWk2n1RRfm2qNL+OdmZQV/0Gm1ly1TK0R192OPV9bULD7l1MtXLO9m7wcjhKug57VHNMLWi8X5eu84VLWUY+iQRN+TkZvav/viPUp09XDQsStBYUsW9oUe8dQR2VbkA0l0Dyk0Gl3dV8LClvG/rlVHI6atjrILqqPBE4WsVJZGRrQV2sWjQlwAAAAAJ9yJmUCNWOvWmxOo0RfuuwlUleV9cXbFmUBV0WWRdYATIzszc8mpp4ZvcXu9D/zzqea2tnMWLSzMzfvnK6+899lnf7j9dpX8KegGhKug5/HQPyICFgkiUtHRobhXTLWw5fEUjOyqnyr7kpomipp1SjxJlmgi7MQUtlQZ866vFBOxQnYVAAAAAAAMfGVHj977tye+O3CgeMiQay+6KCsz0+V2/+fdd6+9867brrrqe6fNEU6maui9CuEq6H2qyTVdTxglM5cVsSlxW0nM4nSxSWXaKOUdqc1lqcyBddXpyM9JzOyp7FMdjXhbk/gLBgAAAOhdPZjvn9zyt97N94/uYSo5+NQ5sRhxX7FnJZPvn+xoxLSVxGy0Sr4/wInHOS+vqnrurbXvb9ggK8qEUaP+8NPbc+x2Irrh0kvMJtNTr7zy20ceeeaNN67/4cWnTZ8erDO1v7z89Q8+7PLiwVLun3z5RVVtbZcHX3DmGWOGDz/uGxoAEK6CnjdQv1QGar9PuCQHCuMJAAAA/cfJk+/f3SZTO77P8/0BTgh/IHCw4sinX3354ebNNXX1RGQyGH504YUXnfV9vU4XPEYjildfcP7kkjEPPPXU4crKnz/wZ71ON2b48LMWzM/JzHzzo4+SbGvPwUN7Dh7q8rB5M6YjXAXQQ05AYUvqomBk+47jL2wZ/Q3bd4Ut1dtS6WcSM3sqhS2DC/tYxDLPBP2MsxEAAACgj/RUvn+cnPW4n3sz3z/pnUlEeo4v3z/Z0YjZFO/iL21qSHKlw+FaT9zOAfS4lra2ux97rLyqioisZvOyxYsvXbYsKyM96jDG2MyJE5+9//6169c/++Zb9U1N+8vLrzhvxdgRI2LLtB+nkuKEbw8cZBCugp7XzcgEJk7CDYLRiAhmDYL7AQAAAOh9J/FD01cHHH3dBQAiIq1Gk5eVlZmexhjLsdsvW7Zs63ffnrNo0YwJE4JL/BLR63QXnXXW+WecsfvAgbKjR0+bPl0UhKgy7ZA8hKugd4RCViz4R3fmsjrnblKp1tS772GJrsuU4lwWi+xporPij0bC81RHI+aQ0K2qjYbqfbHwDwnajJ8aBgAAANBHTkC+f3ROfoK2jj/fP845CdpS2dEj+f7J1a6Ks+l4Fi+GKbYbeuAqAJFGDh367J/uD31ctmTxsiWLkz9dI4pTxo6dMnZsL3Tt5IJwFfS89ohGMt9AA2X6KMl+DpTb6QMYGgAAAOhTeJwLNyhGY0SW8RdnFfV1LwCgtyBcBT0vWN6oc8qFiLMELzPhxIO5OPFmbzrnblKpXcVjX5yS5HtYiFhEP8Lew5KgWlN0WyrzS2Fb2285xbmszrZSqV0VNv9FnaPAGHUxGpwS5FhFjwbF3nLETXakVSG7CgAAAPrOicn3jyjN1Jv5/tEX7rt8/4hbTti2Sr5/OOdf58XrLgCcpBCugt4R/SXbnYeDzkNSWf6m1lbXE0SqF46zP8WHA+qin6qj0Z3FgHE+J/GopLJPdTTibU3iLxgAAACgd/EEU6BBLGzKMM7sauiQ6FVscZa/de5K0FaXE6jRk5NhE6iJzlJpK6qHYZdM+BIfUh+NyLaSHY3YtnpoNSAADF4IVwFA74iTNwYAAADQRzrDPvEiUslEUTjvevKTJwjYqF+5G/1MZV8UhXNJpoDMAzKXFK5wpnCuECkKKbz9fzIn4iQIJAqMCUxkJDAmCCQITGCkEZhWw7Qi02kEUUzcbvxQWHTUDwAgLoSroOfF+1ZK+I2kMnsTfn78s+Iflbgt9cKWCZ4MootmJmi16x4m0U/V0UilLZV+JrE0UuVpLGJmL4V+4nkEAAAA+lRP5fsnt/ytd/P9k97JiDwS9wS4N8B9MvdJ3Cdxb4C7/IrLx51+xRtoD1qFBbAoIHO/xDmRVmRakTQi04pMK7DgDxqR6bXMrBPMesFiEE16waAV9Fpm0Ah6LTPqRItBSDDYKmMHABAN4SroMelGrd2sJSJHgMk8NpvmOOZQkpnLOv62VOayerytbp7bkbrdnQZTPE1lzLu+UnQ/PX7Z5ZWJqCBdr9MIKXQDAAAA4KRy3HEczrk7wJs9SrNbafUozW7F4Vfcfu4JKJ4Ad/vbQ1HJCMg8IJN6mrxGIJNOMOoFky74PzHTIqaZNZkWMdOssRk1GpX0KwCAxBCugh5TkK6bPMT8wZ7mGo/c5mdWbeckVq8Xtkzu6B4obBldlym5Gk+RW1niQ1RHI+F5qqMRc0joVtVGQ/W+WPiHBG2G7ZJk5ViTr6HNbzWIpxTbLHoxYcMAAAAAvaQ9358SJYfT8ef7R+fkJ2hLPd8/wbqEhJfruGSrhze45HqX0uiSWzyKw8cdPsXpVQJKopZ6hqRQm1dp83Y2wxhZ9ILVKNqMYppRtFs12TZttk1rt2p0Yse0JRYDAkBXEK6CHqPXCGPzTHk27eEGeUcDZRnIMGj+/Ury2xRfujE453XN/u/KnQGJTxliHJ5lEAUMEwAAAJxwx/8AknK+/3E1lkyPJZnqnXJZs1TZIjd7ZI+fuwPcK3FZNUQlCsxmEPPTdHlp+myr1qIXjFrBrBdNWsHU8afNIGoEoc0ruQOK2yd7/IrLLwd/dvuVZrdU0+qvafXVOwIBOTr3inNyeBWHV6luDjBGBg0z6gSTXjDrxSF2XXG2vjjXYNAi3R4AujBowgnQL8wbZTt3sv3pzcd2t3A/pzOHcJuWiIizhC8z6ZzLougv5c53iMS87USlWhOPfXFKEtWaginRLKIfYe9hCT2cRFfMjGxL5d0oYVs567iveDdBCUejo62YpxfV0Yhpq+NJS3U0OCXIsYoeDYq95c6b5MQr631vf1l/uMadl6a7ak7+yGxDvAYBAOC4bPlq645d3/R1L6AP+Hy+vu7CAHFi8v0jSjP1Yr6/wnlli3SgQSprkpvdilfifpkrCVbsGbRCSa5xuN1QlGkoytQXZegL03VpJo1WYDoN0wiCKDBRYAIjgVHHDyy4gk9WuMJJ4Tz4Q8dHkhQekBS/zD1+uabVf7TZV9nsq2z2HW3yfVftbnIFQq1zTp4A9wTkJpdMFCir9311yGXWC0Oz9CUFhpG5eDIEgIQQroKelGnWXrcgf1+te/2+lr3N3Onnp+XRmLS+7la/MsgStVT7+eXe1k+/bT7W7DNohJUzspdNsRsxkwYA0NO2bd+582vEqk5esiz3dRcGvgHy3OVXqKI5sKdW2lcfcPu5zClRiMpmEE8daZtTbJtdbB2XZ7IYNMEglMDaX+2XJFFgIpH6AI3PNyu8PaoVDGkdqPXsOOL4qtz5ZVnbwTpPxC1I3C/JDo9c1xrYUebSa1hschYAQBDCVdDDhtkNvz13eKv70NeVziMuqj7Mx6TTrGwqtJBIxGImlFTmsjoPSaVak8q1euA9LCqTaEnuSKYtlcJX8fZ21enIz0nM7KnsUx0NIiJFIVnhe444P/+u6WC1h4isBs25kzP/34J8uxn/wQEA6DFmk2nyxPHvf7ReQbTi5CaKolanmz1zusVi6eu+9Dub61hJGlm1JDISBCLixOI9WfKO5Pdk8v1VsunD09mPO9+fcwrGgDwSHWmVdx8L7G+QvFLE8cGiolpR0IlsSIZ+5nDLrGHWOSPTxuebuhqbHsMYiSwiqjVtqGXaUMvqeUREDU5py6HWr8odX5U79lS7PAElIPP28JbMJcSqACAxxpN9LwRACo61+l/4qvYfG441OgOegGLW8DHpNDad5Ri5QUN6MWyhGeso3h0q4h3xQ/BTeKQmfFd4Ve/wtwtHZVKz8B86fowJ27CIq0bsCl8ZxyKPiVozx8LaiupH5Imh+45/X7F9YNEnUewYxt5XzGjF3HmcLH4AACAASURBVHK8MQy/LZUxDPtJ4eQNcJdXPlLn+abcseeIKyBxq0EcbjdcvyB/2ZSsTMSqIHncRb4v+roT0C8xM+lP7etO9CNut2fnrm8Ol5X3dUegjxUNKZwxfaoV4SoiIrr5pYNPbz4W+hVHYDzfSKPSaJiF0vUUfBBtTy+KfdKLfeyhmMczlSe98IfCiMezyEvFHBbVGb9CPom7A7yyTTnQEChvll3+6NtkjKx6Md2kKc4yLBmbcc6kzNE5xn5eIbTRFfh4b8t/dzftPOJscUttXtkvdRbZ0muExodO68PuwYkhuxq4u5krRF4iqV//GwvJEjgZiGmI9FbRksWEHvu9D+Eq6EXbK5wvb6t7f3dzTavP7Ve0AuUa+VArjbBRmo4ZNWTQUPBrNSLUEhuuSrgrUbgqURRGNVwV+jH+rkThqphnDvVwVegPlV3hnY9oN9GuZMJViSJ0CcJVqs9toc4HZO7xy06vUtfqP1DlPnzMXdcSkBVuM4gF6fofTM+6YHp2Sa6RAFKCcBUkgnAVAHTlsU+rH3i/stEZiPolR2SUbeDDrDTMShYtGUUyapleJI1A1NfhKoWTXwnWeOKuAFU75IpmubxF9sdLncw0a/JsuqF2w5wRtkVj0iYUmAdc2fKqFt+npS0bD7btrXHXtPrrHH6tyBaOSXvlugl93TXodQhXDUIIV8EA5fbLn+1v/XR/y7Zy58F6T7NbUhRuFCnfTHYDZRkow0BmLbPqyKwlMTImxWJjKLG7Ov7o3BTxBKCyKzLWE3vB6EhO3F3hGzsOixsvo86HmOjgUex9xetnZLysq/tKaqAS33LsGIbdckDhTo/s8EhtbrmuNVDf5j/W5K9p8nkDikZkuVbdyGzDvFFp80enzR+NumXQLQhXQSIIVwFAVyoavS98Vffl4bayRm9lky9uaaR0HdkNZDdQpp7S9GTRkUVLFi3TCB0Pa3HCVTFPg51/xJl9jHkQi37i4pzcAe7wc6ef2ny8yaM0unmDW2l0K4GY9/oJjOwW7XC7YbhdP3Wo9ZTh1qlFVoN2YP+qL8m8vNH7VbljV6XTpBfPmZQ5c5i1rzsFvQ7hqkEI4SoY0Jw+ufSYe/sR5xeH23YecR6s9wT/vRMYWbWUpqMMA2XoKV3PbHqy6ZhVx/RifwpXxXvIiDwirHuDMVzl8iltLqnFLbe6pCan1OQINDkDTY5Aq7t91s+gFcbkGqcPtcwZmTatyDI6x6gV8fUD3YVwFSSCcBUAJCEgK2UNvr3HXHur3Xtq3HuPucsavN7YIBARIzJpKF1P6XpK05FFSyYtmbTMrCWThpm0TC9GPSslSLyiuOGq9l2ckcLJFSB3gLsD5Apwd4C7/NTq4y1epcXL23xcitM7EhjLsWnH5Zsm5JvH5RvH5ZvH5ZmsBrGnBgrgxEO4ahBCuAoGAUnhVc2+g/We7RWO0lrv/lr34XpPq6c93iEwMmnanxLMWmbVUrqBZegpw8AyDKQR4jwH9LvFgDHTcQN3MaA3wJscgUan1OSQmpyBNo/k8shOr+L0ym6fHHoNTY5NNzbXOCrHODbPNKXIMirbkGXR9vO6CTAAIFwFiSBcBQCpkBV+tNlX3ug7WOfZddS5vcJRWuuJG7cK0jIyaEivIYNIBpEMGmbUkFVHVi0ZdUwnkEZgWpE0AmkFphVIK5JOZAJjfpkHFJI4CyhcUlhAIYlTQOHeAHcGmMOvuALklbg3QF6ZeyXyBrhPJpVfw4Zk6GcMs04rMo/LNw+z64dmGmyIUsGggHDVIIRwFQwmLp/c7Jaa3dKxVv+eGveuo66vKx3ljb7waosiI4PY8bigIauOZehZupGlBZOwdEwj9r9wFUXPuXU/XBWTQtWr4SpvQGl1S01OudklNTulJlfA4ZY9AcXrVzx+xetXwl+TbNaJJXnGGcOsEwvNJbnGLIs23aRJN2oGXN0E6L8QroJEEK4CgG4JyLzRFahr81e1+Pcec++ucn1b5TpU7/XFTWoKIxBpRdIJpBFIFIgRiYwERgJjAiOBtW+U29/i1/E/av9BUrhfJr9CchftkCiwvDTd+HzThHzTxELzcLshL02XbdGa9YhSwaCCcNUghHAVDEqckyegOH2S26/Utfn3HvN8U+X8rsq1t8bT5AqEHykw0rD2BwWNQDqB2fRkN7IMA7MbWaaRZRqF8Je8hMeCEqxxSxyTigwVRcR6YuNfERfoDFfFXwwYFoeKWXAXdimVRYsx3Yt/X4nTtTiRLPN6h9TolOrbAo2OQL1DcrjlgMwlmUsKl2QuyVyJ/A9Drk03aYh5Yr5p8hDLmFyj3aw16wWzXtRrEKKCXoBwFSSCcBUAHB9F4V6Ju3yyJ6A0u6Xvqpw7Kl07Khx7a9xOX7zC5r2JMSq2G2YMs04bapkyxDwkQ2/WiUadYNaJGhRVgEEK4apBCOEqGPQ45wpnkqLICvkkpbzRu63csf2Ic0eF42Cdxx9TJpN1hIaEjj/tRiHd0FFuQMcsWmbSMrOezBrBqAvWzlQNV0WvjBvA4Sq/pLj8isunuLyKy684vbLLqzh9issvN7bJTa4A58Q5KZxzTkq8/wZY9OLYfNP0IvOMYdYZw6yF6XqNyETGRIGw1g96HcJVkAjCVQDQo2SFywpJiuIN8Iomb+kx9/46T2mNZ3+tu6zB6+0q9yolosByrNqSXGNJnmlMrrEkzzw2z2jVi6LAgk9ZDE9YcBJAuGoQQrgKTmZOn3K4wVNa495f5ymt9eyvdR9t8gYUkhWucFI4l5Wu/0U2aMioIbOOmbXMpGNmLTNqBJ2GjFqm15BBwwxaZtQwvYaFwjFMCIWPwgJXLDocxaLiR2EBq+APnGLjVu3RJ965OWzRH2//mXfkQwV3SDL3SdwT4J6A4g0oPol7A9wb4G6/4vLJweCU0y+7fYpf6mI0BMYEIZjBzgTG9CIbkW0ck2csyTWOyTGV5JmGZhoG+utmYABDuAoSQbgKAE4Uv8Qrmrz7az37jrkP1HlqW/0+SfHL3BtQAnL7D36J+yVFVrhBK2pF0msEvVbQioJOJL1G0GnENKM4MsdYkmscm2sckWNMN/bYb3EAAxTCVYMQwlUA4dx+uaLRV9boPVTvOVznKWvwVTb7fJISkBWZkyxzmXNJ5jInSeYy54pCStL/qmsEMmhIp2F6UdBrSK9heg3TiaQRmUDEhGC1AiYwLjDG2usXEAuWMBAYIyYwYsFaBowpnCsKcSKFM07t2UwK5woxhRPnnBO1H6CQwokTBWTFJ/H2/wW4V1J8Ae6TeJdVD0IYI5Exjcg0AhOF4J8kCoIokFZkJp04LFNfnGUYmWMcmW0stuuHZhqQcw79CMJVkAjCVQAAAAMZwlWDUK+FqxDghwHJpBPH5ZvG5ZtCWwIyr2z2NTgDrW6p1Su3ugOtXrnVLbV6pDav3OaVPX45IJNfUvwyD8iKX+IBWZEUCsiKrHBJpoCsSAqXFJIU7vQT+TnRiS5hoI4x0oqCRgj+yUSBtJr2jzqRaUVBp2E6UdBqmEknpBnENKPWZhTTTJo0g5hm1NiMYrpRm2PTFqTpsKAPAAAAAAAA+i2Eq2CQ0IpsRJZhRJYh7l7OuSegOLyy0yc7fYrDKzu8Abdf8fgVT6D9T3dADv4QzOv2y9wXkAMy98vcL3G/rMgK55xzzji1J0xxIkXh0X9yzjlxYorCg+sBGaOOPCwW/pFR8AcuMIEFc7WIiJFGYDpNMALFdBqm14g6DdOKgl7DTDrBqBNNWtGgZSadaNQyo04060WLXrToRatBsBq0VoOACugAAAAAAAAwcCFcBScFxphJJ5p0Ym4SBwdk7g0oPknxtpeIav9BUjgFl+xRaH1f+zJDJaxsOee8fYvCeXuVKMaIt68WZEwQWKg8vCAE1xW2h64EgRhjWpEZNIJBK+i1gl5kBp2o1zCDRsB6PQAAAAAAADgZIFwFEE0rMq0oWkns644AAAAAAAAAnIywYggAAAAAAAAAAPoRhKsAAAAAAAAAAKAfQbgKAAAAAAAAAAD6EYSrAAAAAAAAAACgH0G4CgAAAAAAAAAA+hGEqwAAAAAAAAAAoB9BuAoAAAAAAAAAAPoRhKsAAAAAAAAAAKAfQbgKAAAAAAAAAAD6EYSrAAAAAAAAAACgH0G4CgAAAAAAAAAA+hGEqwAAAAAAAAAAoB9BuAoAAAAAAAAAAPoRhKsAAAAAAAAAAKAfQbgKAAAAAAAAAAD6EYSrAAAAAAAAAACgH0G4CgAAAAAAAAAA+hGEqwAAAAAAAAAAoB9BuAoAAAAAAAAAAPoRhKsAAAAAAAAAAKAfQbgKAAAAAAAAAAD6EYSrAAAAAAAAAACgH0G4CgAAAAAAAAAA+hGEqwAAAAAAAAAAoB/R9HUHAAAAAAAAAOBkwogE3tedgJ7Qa0lQCFcBAAAAAAAAwInCiLRE2r7uBvSU3olYIVwFAAD9jY604/q6D9A/4bkFAABgAGOilhMxhq/0QUgQNYz1ZOCKcY4EPAAAAAAAAADoZYqseNsUydfX/eh1W3d83dDYTESiKJy5ZGFfd6fXMVErGKxM1PXgNRHSBAAAAAAAAIDeJ4iCMY1xpa/70euaXIGnX1jT2tp22WWXipasvu5O72MCY6xnL4lwFQAAAAAAAACcEEzo2SVj/RNjYlubo6WlhTGBCQi8dMfg/7cEAAAAAAAAAAAGEISrAAAAAAAAAACgH0G4CgAAAAAAAACgx4Reaoe323UbwlUAAAAAAAAAANCPIFwFAAAAAAAAAAD9CMJVAAAAAAAAAADQjyBcBQAAAAAAAAAA/QjCVQAAAAAAAAAA0I8gXAUAAAAAAAAAAP0IwlUAAAAAAAAAANCPIFwFAAAAAAAAAAD9CMJVAAAAAAAAAADQjyBcBQAAAAAAAAAA/QjCVQAAAAAAAAAA0I8gXAUAAAAAAAAAAP0IwlUAAAAAAAAAANCPIFwFAAAAAAAAAAD9CMJVAAAAAAAAAADQjyBcBQAAAAAAAAAA/QjCVQAAAAAAAAAA0I8gXAUAAAAAAAAA0GMYY1E/QKoQrgIAAAAAAAAAgH4E4SoAAAAAAAAAgB7DOY/6AVKFcBUAAAAAAAAAAPQjCFcBAAAAAAAAAEA/ounrDgwSXJJ8X2zx791r+eElgtV6PJfyf7MrcPiwcdFiIT097gHeL7b4v/1WMBlNy1YINhsRKa2tXJJEu/142gUAAAAAAAAA6A8QruoJiuJ84Xn/N7uIMe+Gz01Lz+n2lbgkeTduCBw65N+5w3b9jWJ+fuwxcnVVYN9ewWLhPh8RKQ5H2z/+rtTXGZacbjrjTBKQMQcAAAAAAAAAAxhCGz1BEIxLljCTiTj3btksVR7p9pWkgwekykoi0o4bHzdWFYv7fEyr4ZLk+eD91sceVVpbu906AAAAAAAAAECfQ3ZVF6SqKs+H7/OA1OWRTBQ5EXe7nS++IGR2vS5PzMoyLT2H6fWdmzj3btnM/X7BZjMuWpTwTEEkIh4IKM3NYna2mJVlu+knrtdf8331pVRe1vrgn80X/1A3fkIydwcAAAAAAAAA0N8gXNUF7mgLlJZyvz/5U+S6OrmursvDlLx8kiQKC1cFDh8KHDhARLpJk8S8hKlVYk4OERHnpMjBLUyjsVy0UlM4xP3OWsXjURobk+8tAAAAAAAAAEC/gnBVF8T8AtO5y0iWu3c6VxRSFKaJM87MaqWo1KoNG7jPJ2RkGBYuTrklxgxz52oK8gNlZYZ587vXWwAAAAAAAACAPodwVReEtDTD3HlExL1e39c7SZZ1EycJNpvzPy8GDuzXTZpsOO20+JlQiuLbucOzbp1gMduuu4EZDP7d3ymNjYLdrpswMfbwwOFDgf2lxJhhzmnt7/hTFGKMGEu+t5phw5ktTao8Ih05woxG/YyZ3btrAAAAAAAAAIC+gnBVshSHw/Pf97jfL9rtJIpyXZ3icHg3bfRu2ijYbLopUw3z54v2LCLiXq93w+fejRsUp5MYYzqd4nCIBoN3w4bAgf3a0WNiw1VckjzrP+Y+n5iXbzh1TnCL4+l/cUebafkK7chR4UErptORIHBZ9u/ZHTh0SKquVlpbuaONe71c6qyxJebl68aOY2bzCRkeAAAAAAAAAICegXBVdwgWS9qttykOh3/Hdu8XW+T6+mB8SsjIFNPTpMpKHggQY5rCwthgU1z+nTsDBw6QKBoXLQ4GmKSDB6TDh7jf73rjdd2kyXJ1leJwKk2N3O8PFdLybtqU6ILMYGCiwCUphdQsAAAAAAAAAIB+AOGq7hOsVsPCRYaFi+TaWucrL0tlZUpTo9LUSERMqzUsWmz83hlxq1ZFURwOzyfrSZa1Y0p006YREZck90cfcb+fGQzGRUvc76xVnM7YE5lGwwwGIdMuWC1i4RAxM1MzdJhgsSCjCgAAAAAAAAAGLoSruk9ubPBt2+bbtk1pbiLOiUiw2TSFQwLlZdzj8Xz4gffTT7SjRhuWnK4tLk6YYMW554N1cu0xZjAYz2gPb/l37pSOVBCRfvp03fjxvq++ZEajYM/SFBQIaWmk0bjXvsV9PtOK8wynzT2BdwwAAAAAAAAA0OsQruoOz6efeNZ/zF2u4Eem1UaEpRQlcPiw56MPA4cP+ffu8e/dYzhtrvkHF8a9lHTkiG/HDiIiSXL++xkuSdzrDe4SMjIMi5Yws9l204/DT5Hr65lWy32+br+vEAAAAAAAAACg30K4qjt048Z7P/+cNBrNiJGGufO0Y8dGLPoTBO2oUdpRo7jb7d24wbdtm27q1ESXErOyhPQM+VgNlyQevuJPFI2LT29/RWACcn1dD9wMAAAAAAAAAEB/gnBVijhX2hyCPct6xRXMaCJBICKluTnR4bpp03XTphORXF/PpUDsAcxsNi1dqjQ2CvYsMSdHrqtzrXlJcTq1I0fpTzkl7jUFk4lZrOR0cq8vfLvS1qa0NEvl5dKRCrmxSW6o18+YaT7v/OO6XwAAAAAAAACAEwvhqtTwQMD58n969pq6CRPbLy5J7rVvKU4nM5lMS5cmLNMuikwUiEiqPOJ8/lnpWK3S2sI9nmD9rHDysWM921UAAAAAAAAAgN6GcFXSBIGZzULi/dzr5ZJEjDGDgYliwgMS8+/c6S/dR4wZFy3WFA1tP8vlCpSXS0cr5aqjcl2d4nRyrzcYmZLr6uS66PWAzGAQrFYxJ0csHKIdOSrFmwQAAAAAAAAA6GMIVyVLtNvTf/7LRHvlxsa2vz3Gm5s1RUW2625gBkPsMY5/PyMdPsSMxvhXqK11//c9kmXN0KGGufNC2327vna99mr8VhkTM+1iQb6maKiYl68pKBDS0xO+ghAAAAAAAAAAYCBAuKpn+L/eqbS0kCgaTpsXN1ZFRNYrr0p0Opck19q3lNYWZjCYli0Pv4KYmcn0ehIEwWIR8/KCkSm5usq97r9Mr7dccommeETYhbjrjdeVlhbLxT9kJlPP3R8AAAAAAAAAwAmCcFVSlNZW/3ffkizH3cslybtlM3Eu2GyKo837+WfqV2NWq27S5M7SVJy7174VCC4DXHK6dsRI7nJJx2oCBw9KFRWG2adk3vfHqCsEtFqm13OfT6qtDQ9XeTdu8G7ZTLLc1tpiu/7GRIEzAAAAAAAAAIB+C+GqpMg11e533uZ+v/phSnOz+913uryamJevG1NCHeEq7+bN3i+2EOfEmOfTT9zvrwvFxZhWS/PmxblCdjYzGrnPJ1dW0qlz2q+zZbP7vXdJlgWLxXT2OYhVAQAAAAAAAMBAhHBVKgRBU1TEjBGL7LjHLVVWkqKIOTlCpl39Akp9vdzYELWRez3t8SnOudsd2s50OsFuF9LSY6/DrFYhI0NpaZGqjnKfj+n13i2b3Wvf4n4/0+vNK3+oLSnp3i0CAAAAAAAAAPQthKtSwDQa05nf144d17mJc+d/XpQqKoSMDOs1/0+0t4erpIoKpbVFN3lK1BVcr78qb4oOV4n5+UynI1EU0jM0Qwo1Q4dpi0cI2dmdqwXj9UQ7YqRUVibX10tHK/27d3s3biBZZgaDZdUVunHjEp0IAAAAAAAAANDPIVx1XPy7dvl3fU2iaPr+2aFYlX/3bufzzxJjZr9fP3NWlxfRjZ+Q+Yf7U21aW1Li3biBe72OZ57mHg9xLlit1iuvCpay8u3Yzl0u/exTmF6f6pUBAAAAAAAAAPqQ0NcdGMDkmmrXW29ySdKNn6CfOTO0XVtSoh0/nvv9rtdf8+/e3UutawqHiFlZRMTdbuJczC+w/fjmUNl1qbzM9eYbLX/8g9zY2EsdAAAAAAAAAADoDciu6ib/nt2ul19SnE7BatUUFHg3fB7czgMBqfII9/mYTsd9PucLz1kuu1w3YUJqV1cUqbrK/803/j17uNttu+FGMTs7Yr/T6XpljVRdHfyoHTnK+qPV4bXV5bp6ImJms2AyHs9tAgAAAAAAAACcYAhXdVNg317F6SQixeFwv78u0WHc53O9+oqYmSHmF6hfkPt8gYMHA6X7AqWlcnNT6OWAYm4uM3aGnLjX6/7ve74vv+CBQGij3NCgtLaKHeEq7nIpDgcRiVn2qMLwAAAAAAAAAAD9HMJV3aSbMtW3bRv3+5nRyASBGY2CPYuImFajKRrKtFoi4j6fd9NGxeX07dhhOid+uEppa3O9uiZQXh5c0xe+ixlNmqIh+mnTg2lT3O12f/Sh74st3OcjImJMN2GiprDQ/eEHSmuLa+2b1suvDB6pOJ2Ko42INEVDe3cUAAAAAAAAAAB6GsJV3aQdMTLz9/eR0EXxL83QYXJzk+GUU9s/y0rUAUwU5cYm7nK1f+wIUekmTGRmc/tJx2rcH3wQ2LO7PaOKMTE723zRxdoRI7gkBSoqAvv2Bvbtczz9lOXyKwWLxb93D/d4mE6nKSzsuTsGAAAAAAAAADgREK7qLsaIsf/P3n3Ht1Xd/x8/V3tatuU9knjEGc5eZBPCCmWF0bRQRgulUGhp6Rdo+6W0BUq/tKVN219LoV8oFCh8SQsJO0DikIQMMoCELCexHe8p27IsWfPe3x8CY5x4xFYs2X49H3nkId177rkfOdeK9NY5R3220ozJDjU1hVe2Unw+/8EDQghJqxGaz37yktmszctVmUy6mTN1U6eprNauh/t27+rY8F7I4egceKVOSjJddrlucmH47JJGY/n6NW1PPB6qrQkcP976qwfVKSmh+nohyyqbTZ2ZFdkHDQAAAAAAcKYRV51x3h3bQ7U1X9yXJG3BBEmv79xgvvLqno6VTCa5rU0oipAkTUaG8cIVnUFVJ5XVGnfLd1zP/jN4okwJBILV1UIIoVYbFi3uFn4BAAAAAADEPuKqM0symtTx8Z1xlaTX66bPMF5wYT8P100uNCxaHGpuNl1wgTotvadmKpvNdsf3vB/u9O3YLjudQq02LD3bsHhJBB4AAAAAAADA0CKu6hdN/njb3fcIIVS2+NM91vrtWwZ+YkkyXXJpv1qqVIYFCw0LFg78XAAAAAAAADGAuKpfJI1GbU+KdhUAAAAAAAAjXx9fbAcAAAAAAAAMJeIqAAAAAAAAxBDiKgAAAAAAAMQQ4ioAAAAAAADEEOIqAAAAAAAAxBDiKgAAAAAAAMQQ4ioAAAAAAADEEOIqAAAAAAAAxBDiKgAAAAAAAMQQ4ioAAAAAAADEEOIqAAAAAAAAxBDiKgAAAAAAAMQQ4ioAAAAAAADEEOIqAAAAAACAiJEkqdsNnC7iKgAAAAAAgIhRFKXbDZwu4ioAAAAAAADEEOIqAAAAAAAAxBDiKgAAAAAAAMQQ4ioAAAAAAADEEOIqAAAAAAAAxBDiKgAAAAAAAMQQ4ioAAAAAAADEEM2Z6LS+vr6srCwQCESqw+Tk5Ly8PK1W21ODioqK8vLySJ1OCJGdnT1u3Lie9iqKUlJSUltbG6nTqdXqnJyc9PT0nhp0dHSUlZU5HI5IndFoNObk5Njt9p4atLa2lpWVtbe3R+qMNpstNzfXYrH01KChoaG0tHRYXzZZWVk5OTk97eWyGYChv2xSUlJyc3NH8LONSqXKzc3lshnuzza9XzayLJeUlNTV1UXqdFG5bHJzcxMTE3tqMBoum8rKyhMnTkTqdKIfl01paWlkn21ycnIyMjJ6ajAaLpuIvyQe+v+ken9tcyYum9Hwn1ROTo7Vau2pQX19/YkTJ/x+f6TO2OdlE/FnGy6b1tbWEydOuFyuSJ2xP882XDanZQgum+Li4vDz/4kTJ7Zu3Tr0l018fHxOTk7vr23Kysoie9nk5OTodLqeGpzuZXNG4ipFUUKhUCgUilSHsiwritJ7gwieTgjR++kURQk/xgieTpbl3ttE9kcaCoWG+Ix9/iNy2QzgdLF22ZyJf8TeG3DZnC5ZlmPtson4GXm2EZ8/xkidjstGjILLRpKkiF82fV6oXDYRP+MIuGxGw7NN7w0URQkGgyP4son4GWPwshn6f8SInzEUCvV+xsj+SMVIvGzCL+NFl/8Lhviy6fMfUZbliJ+xzwandTomAwIAAIx8fb4TGAEkSYp2CWdWrP0jdr4ZG8FGwAPszyccQ1MJMKp0/mbxKzZgxFUAgDNrxL+B7FPEfwKj4XVP7z+00fATGOLHeCZyh6H/3e9z9MGQVQIAGOU6/xPklfCADY+4SpKk3v+NuQIGYMT/0LhszoTR8N5jiC+boX/71OdDGOJ/Zd5Ajgwj4FcDAAAAseOMrF1ltVqzs7P7nAvaf2azWaXqLVmz2Wy9rB46ADabrZe9kiQlJib2svLc6ZIkqZcFF4UQWq02NTW19zanRavVmkymXhoYDIaMjIwIrrtmMBj0en0vDSwWC5fNaZEkKS4urpcGQ3/ZGI3GzMxMn88XqTPG4GUTHx8/rC8bIUSfzzYpKSm9LMp4umLw2cZsNkf8slGr1b00GPrLxm6397LO5QBw2XDZDACvbc7Ef1JcNiPgsun9J2axWMaMGRPBwPW4SgAAIABJREFU1WS4bLhsBoDLZvCXTXl5efhnGP5ZcdmI079sJD69BAAAAAAAiJQ333xz9erVLS0td9xxx0033RTtcoal4TEZEAAAAAAAAKMEcRUAAAAAAABiCHEVAAAAAAAAYghxFQAAAAAAQMR0fmky30c/YMRVAAAAAAAAiCHEVQAAAAAAABGjKEq3GzhdxFUAAAAAAACIIcRVAAAAAAAAiCHEVQAAAAAAAIghxFUAAAAAAACIIcRVAAAAAAAAiCHEVQAAAAAAAIghxFUAAAAAAACIIcRVAAAAAAAAiCHEVQAAAAAAAIghxFUAAAAAAACIIcRVAAAAAAAAiCHEVQAAAAAAAIghxFUAAAAAAACIIcRVAAAAAAAAiCHEVQAAAAAAAIghxFUAAAAAAACIIcRVAAAAAAAAiCHEVQAAAAAAAIghxFUAAAAAAACIIcRVAAAAAAAAiCHEVQAAAAAAAIghxFUAAAAAAACIIcRVAAAAAAAAiCHEVQAAAAAAAIghxFUAAAAAAACIIcRVAAAAAAAAiCHEVQAAAAAAAIghxFUAAAAAAACIIcRVAAAAAAAAiCHEVT3y+Ntf3fv0oeo9vqA3Ih1WNB17duvv65yVPTU4Wrtv9dv3/vW9+2taToS3dPjdDW3VETk7AAAAAADAsEBc1aOjtfv//eHjD7xyy/Mf/CEiHRYdWvvmJ8/f++LXDlXvOWWDhrbqncff21VS1NbRLIQIhPyPb3zgB89e9s+tj/oCHRGpAQAAAAAAIMYRV/Vob9n7gZBfrzGclXfe4Hurc1buLt0khJicOXtC+oz+HBIMBTQqjSLEW5/867/XXNc55AoAAAAAAGAEI646NUd7/Sfl24UQqbbscckTBt/h9qPrm1x1Bq1p5exvqVWaU7ZRqzSSpPIFvS3uJiGEUWf+3oUPf3PJPTqNvqq59KcvfWNr8ZuKUAZfDAAAAAAAQMw6dW4ySry69+m3971wyl3BUKDd5xJC1Dkr7n7h6tPtefqYRd8975eddx3t9ZsOvSqEmD5mwfi0aT0dlWBO0msM3oAnJAfDWyQhrZj+9TFJ4//8zk9aPc1VzaWnWwkAAAAAAMDwMqrjKo/PFR7H1At/0OcP+k6353afs+vdD4rfanTVWg22lXNu6mloVS8mZ85+eNVzHxS//ZUZ35CEdLqHAwAAAAAADCOjOq4alzxxfv75J293tNcdq/tUCJGZmJOdmD+AnsenTe3SW/2GAy8rirywYEVOyiQhhKzIkiSdVvCUaEk9e9JlTa7akvqDGrVu5rjFeo1hAIUBAAAAAADEuFEdVy0Yf8GC8Rd02xiSg7978y4hhFlvveO8h/JSCwd5lnf3v9TQVp1kTescG/XSjr/sLt107aIfzhq3RCV9sXyYQWvSqLUiIA7XfNTqcZQ2HGr1OGpayryBjg6/u7NZgjk5P3WK3po2yMIAAAAAAABi0KiOq07p08oPD1XtEUJMyZp38iLrITm4r2K709OcEpdZmDW3z95KGw5tPPiKJKkumLoqzZYthKhzVn5w9O0mV92zWx+tbSmvcBxt62ipdJR6Ax63ry181IYDL/fUoVFnNukt3oC7pwYAAAAAAADDGnHVl/gCHa/ufdoX9Bq0pq/MuPbkdaZ8Qe+/P3yitOHQnNxlfcZVgZB/7Z6nXF5nTvKkcwuvFEIoQnnrk381ueo0au2Vc295Z/9LpQ2HTj5Qo9Za9HFJcRlJlrRxyROSrel5qYUWQ7zVYIvUIwUAAAAAAIhNxFVf8sHRt4trPxFCnJV/7oSMmYPsbcuRN/aWbdaotVfO/bbFYBNClDUc3n50vRBi1rgliwpWHK7+yBvwZCXmZSSMTbNl20z2f2x+pLGt5pIZ112z8M7BPxwAAAAAAIBhh7jqCw1t1ev2/CMkh2zGxMtm3TjI7+Bzehyvf/RsSA5p1Kqn3v/134sebPe5FEUWQlgNtivm3KxV67573i+7HuLxt1sN8Y1tNSElNKhHAgAAAAAAMGyp+m4yOihC+c+uJxraqiVJde6Uq7IS8wbZYZwpMdueJ4QIhgKtHofL6wxnVZKkOn/qqtyUyb0cW9taMcizAwAAAAAADFOMrvrM5sOvbTu6XgiRl1p48YxvDL5DSUhXzb1l1rglNlPiGHuBx+/60/qfVjWXjEua0FP/Jp0l0ZJS2nDIH/CG5GDnylkef7vT4yipP3is/tO61opKR8n4tGl3XfTbwRcJAAAAAAAQa4irhBCitrX8Px8+EQwFtGrdlXNuthhssiK3uptkRe7W0htwB+WAEMIf9DW56k7uSiWp4s1JKkklhBiXPHFc8sTw9pd2vlLdUqbXGL6+4A5Lzyum6zUGIUSts+LJ939d76yqbi5t97UFQ4FuzWxt1R5/u0lnGcSDBgAAAAAAiEXEVaLd6/zLe/c3umqFEGqVxqy3CiGa2xt+9u8bWtyNPR21v2LHHc9cdPL2BHPyr776bJI1revG0oZD7326RlHkZZMvnz52YXijL+itcpSUNBw8Vre/prWi0Vnt8raGA7LGtpqig2u79WzUmRPMyVmJebkpk/JSC4068+AeNwAAAAAAQCwa7XFVIOT/300PH6/79MydwuNv/8fmR1xeZ5ote+XsmzpXcC9rOPQ/r33fG/CcfIgkqZKsafmpU/JTp2QkjB2XNLFzxBYAAAAAAMDINqrjqvDy6h+WbBRCqCSV0mVXoiXl16ueP+VkwD+989OKpmPTxiy4dfnPT+4zPBmw6yle3fv08fqDGrX2G4t+mGhJ6dyVZM0w6sxqlcZmShybVBBOpgKhwF/fuz8Y8t+45O65ued07fn9w69uP/rurefeb7d8aegWAAAAAADASDKq46rNh1974+PnFEU2662XzLzh1b1Pd+5SSaqu0VInj79do9IKIXQafbcZf72f4tzCr87NO8cX9NY7K4/W7j9cvXdCxszHb3q3W3tHe71Fb3O015U1HO4aVx2q3vPs1t+7fa6H1t76s5VP9OfUAAAAAAAAw9HojatK6g8+98HqYCigUWtvWPJfabbsrnFVRBTXfvLs1t8HQwFJUm0/un7ToXX+oK9z79Qx808+xGKwJcdlONrryhqLFaGEZw4erd3353d+6va5DFrTqrNuJ6sCAAAAAAAj2OhdDik3dfLsnKUatfaqubecPemyM3GKDr8nnE8piuzyOjuzKp1Gn5EwLs2WdfIheo1hjD1PCFHdUtrqdgghjtbu+8Pbd7e4mzRq7bfOvndhwYVnolQAAAAAAIAYMXpHV0lC+vr8703OnHP2pEs7lz+PrIyEsWa9NRAK2C2p49Omjk+bmpdamGrL1msMvRw1bcyCjQdfaXLVHqvb7wt2PLnp196AR6fR37zsv5edmVgNAAAAAAAgdozeuEoIkWhJOaMBUEpc5hM3bzjdo3JTJtstaQ1t1X8vetDtc8mKbNZbv3veA+GlrI7W7S9rOLyoYIXFYDsDJQMAAAAAAETZ6J0MGLMSLSkF6dOFEC6vU1bklLjMn1/x985l1xucVf/Y/Midz156vP5AVMsEAAAAAAA4I0b16KqhpwilyVX3UdmWPaXvVzaX/HDFIxMzZnVt4At0vLLnyV0lG8N3xySNv+/yv8Wb7J0NKh3HhRAGrTnBnDyUlQMAAAAAAAwN4qozLhDyVzqO76vYsadsc0XT0c4F1+NN9kRLamczWZE3HnzlpR1/cXmdnRsdrrp6Z2XXuKqqpUwIkRyXwWRAAAAAAAAwIhFXncIbHz93rO7TU+6SlVBjW7UQoqzh8Oq37+2ph/FpU8+f+tU1Ox/bcey9FneDrMhd9xp15vGpU8/KP9dmTBRCBEL+zYdf/8+uJ1rcjUIISVIVZs05e+KlT73/P26f69mtv7/30j+FW7p9riZXnRBijD2v9/XaAQAAAAAAhiniqlM4XPPRntL3e2/jaK93HH+vp71BOXDxzOsa2qod7XXhLeGIakHBhbPGLekcLeX0OF7Z8+TGAy93jqhKicu8cek9s3OWCiGqW8pe3fvM8foD//Pq9+666LeptqwTjUfqWiskSRVe3AoAAAAAAGDkIa46hUkZszQq7WB6GJ82VRLS7JyzWz2OxQUXzcldZu8y708IcbRu//MfrD5Wt79z4JXdkvb1Bd9bPOEilfTZ+vdXz7u1rrVy5/H3yhoP/+hfV+YmT6pqLvUGPPEme25K4WDKAwAAAAAAiFnEVadwyczrI9LPskmXLZt02Sl3WfRxTa66cFaVmTDu6nm3zR9/fmdQFaZV624/7wGD1rT5yOvBUOBo3X4hhCSplk2+PCNhbEQqBAAAAAAAiDXEVdGRkTDu6wvu2FP6/so5N+ekTJSEdMpmeq3xtvN+sXTixa999M/ypmKVpDl70qVXzv12T+0BAAAAAACGO+Kqz0zMmPXP27YN5RmXTrxk6cRL+mwmCakwa25h1twhKAkAAAAAACDqVH03AQAAAAAAAIYKcRUAAAAAAABiCHEVAAAAAAAAYghxFQAAAAAAAGIIcRUAAAAAAABiCHEVAAAAAAAAYghxFQAAAAAAAGIIcRUAAAAAAABiCHEVAAAAAAAAYghxFQAAAAAAAGIIcRUAAAAAAABiCHEVAAAAAAAAYghxFQAAAAAAAGIIcRUAAAAAAABiiCbaBQAAAAAAAAxXGzZs2LRpU9ctNTU1brc7vKukpKTrrpkzZ1500UVms3lISxyGiKsAAAAAAAAGKCUlZcOGDV23yLIsy7IQ4tixYyfHVVqtdkjrG56YDAgAAAAAADBA+fn5OTk5wS7CWZUQQpblrttTUlLGjx+v0+miW/CwQFwFAAAAAAAwQFqtduHChf1pWVhYmJKScqbrGRmIqwAAAAAAAAZIo9HMnz+/zyl+Go2msLAwMTFxaKoa7oirAAAAAAAABkiSpDFjxkyYMKH3ZhkZGfn5+Xq9fmiqGu5Yah0AAAAY7ZRQQJFD0a4i1qnUGqHiDRSAUzCbzTNnzjxw4EAvbfLy8rKysoaspOGOZ1sAAABgdJODituhyMFo1xHrQmqtypwkqdTRLgRAzDGZTNOnT1+7dm17e/spGxgMhoKCAhau6j/iKgAAAGBUk31u2eeKdhXDQdCr6MyS3hLtOgDEHLVanZ2dnZeXt2/fvlM2SE5OHj9+PDMB+4+4CgAAABjVFDkghFBkIRhf1QutkIQQjEED0AO73T558uSe4qqsrKz8/PwhLmlYI64CAAAAIIQQIihEzC1gJQmhCCEJIYRQem5w8u1ubbod3tmyp0O+vEsjRB9f+QVgtLPZbIWFhXFxcW1tbd12GQyG8ePHp6enR6WwYYq4CgAAAMDnFCnaFZxMOulGTw16aXPyrj677bqrp0gLAD6jUqmys7PHjRu3f//+brsSEhImT56s0ZDAnAZVtAsAAAAAAAAY9nqa8ZecnFxYWDj09QxrxFUAAAAAAACDFR8fP2HCBJvN1nWjTqcrKCjIyMiIVlXDFHEVAAAAAABABOTl5WVmZnbdYrFYZs+eHa16hi/iKgAAAAAAgAjIyckZO3asWq3u3JKYmDhjxowoljRMEVcBAAAAAABEQHx8/MSJE61Wa/iuWq0uLCxMSUmJblXDEXEVAAAAAABAZEyZMsVut4dvazSaRYsWRbeeYYq4CgAAAAAAIDImTJiQmpoqSZIQwmQynXXWWdGuaFgirgIAAAAAAIgMo9E4c+ZMs9kshFi8eLHFYol2RcMScRUAAAAAAEDEzJkzJ5xSnXvuudGuZbjSRLsAAAAAAACAkWPatGlpaWk+n2/JkiXRrmW4Iq4CAAAAAACIpIULFxYUFES7imGMuAoAAAAAAOA0yLIcCoUURQmFQiFZlkNySP78lqyEQqH8/PFZ2dnV1TUqtVqtVqlUarVapZJUKrVKreqyRcUaTacmKYoS7RoAAAAARE3I3aR4WhRZCK8QQSna5cQkrSIMQpIklSVJZYyPdjUAzixZln0+v9fn9fn8Xq/X6/uM1+f3eb0+v9/r9fr9gTCf3x8IBAOBgN/v73o3EAjIiqzVaHU6nVar1eu0nXThTVqNTqfT6XR6vU6v0xsMer1eZzAYDHq9Tq836PXhWwaDXq1WR/tHEgWMrgIAAAAAAKOUPxBobW1tbm5pcjQ3t7Q4HC0tra0dHR2ejo7P/vZ4PR0ej6fD09HhCW/1ekOhUETOrlKpDAa9yWg0Go0mo9FoMpqMRpPJZArfNRpNJmNcnDXJnpiYkJCYmGBPTExMiDcYDBE5eywjrgIAAAAAAKOFo7m5qqqmvrGxrr6hoaGxyeFodTqdTpezra2trc3pbHN7PH12IkkqjUarVmvVaq1GrVVrNGq1Tq3RaMJbNFq1WitJUjAYCIUC4b9DoWDn7c+2BAOyHPJ4Ojyejl7OZTAYbHFxcVaLzRZni4uz2Wx2e2JqcnJqanJqSkpmRnpKctLIG4FFXAUAAAAAAEay5paW4yVlh48UHzh0uKKyur293e3xeDwet6fD6/V2WyVJEpJOZzQYLQaD1Wi0GAwWo9FqMFiMBovBaDUarUaDRaPVS5JKpVKpVOrwDUnqflsIoSiyLMuyHFIUWVZkpfO2LCtKSJblUCjY0eHyetu9Ha6ODpfX5+7ocHV0tHu9rg6vy9vR7vd5vF6v1+utb2jorFCv05lMJpPJaDGbLRZzRnr6pIkFkydNLMjPS0tNGeof7pnB2lUYThqbHI2NjfUNjS2tTrPZlJaakpKcPCKDZAAAgCHD2lV9Y+0qYBhyudoPHSk+cOjw/k8PHjte4mxr83R0eDyeQCDYraXVarfbMxMTs+z2THtiVkJCut5gUqnUJ/1Rdd6WpMgska4oiiyHTvojd94O+L1OZ4OjucrhqHI4qpubq1tb67olORqNxmgwmEwms9mUM3bMjGlTJ0+eWDhpYpI9cfgu5U5chWGg1dm2oWjTf9a9dvDgEVmRFUXIsix9FmVLOePGXnLRhVdcdklykj3alQIAAAw/xFV9I64Cho/auvqt23cUbdqy/8BBZ5srFAyGZLnrUlM6nSE7e3Jy0tik5DEpyTlJydkGg1mSVJ0DoyRJJUmx8mSofEb+fEyWHAz6mxorGxtPNDaWNzaVV1cXt7e3dLZXqVQatVqlVlvN5gkF+UuXLDrvnLPHjR0TxYcwMMRViF2yLNfW1a1/r2jNy2tLy8rDzy/h5w9JJYVDK1mWw42TkuxfveLylZddnDtuLIOtAAAA+o+4qm/EVUAMC4VCwVCoubll996PN27avHHTZk9HeCkoqXOyns2WkpU1aezYqdnZhenp+VGuONIcjqrKykPl5Z9WVR1qaqoMj89SlFBn4HP24kXnLj970YKzMtJSNRrNsHjLTFyFGOUPBD76eN8TTz2zfeeuQCBgMOitFmtykn1MdlZmZkZiQnx7u7uqpqaysqq+odHZ5vJ4PCqVakJB/u233Lzs7MVmkynajwAAAGB4IK7qG3EVEJO8Xm+To/njffu37fhw2/YPq2trhRAqlVqnMxkM5uTk7LS0/PT0goyM/ISEdI1GH+16zzhZDjmdDXV1x2tqjtXWHW9sOOHxtPl87lAoKISIi7MuXnDWogXzZ8+akZGeZjaZYmcQ2cmIqxCLfD7fhqLNj/3vPw4fKdbrdWPHZC88a97C+fPOmjvHarV0benxePZ9enDHh7u3bNt+/Hipp6MjMyP9xuuuuWrlpQnxvJIAAADoG3FV34irgBjj8XTU1tVt+WDHOxs27trzkRBCpVIbjVaLJTElNWds9pQxY6dmZk6IdplR1thUUVH+aXnFpzXVR93tLW6PMxQKCCEmjM+/8Pxzzzl7ce64cd3eYscO4irEHEVR9nz0yV0/vq+mptZsMi1ZvOBb1187Y9pUrVbby1GlJ8r/8c/n31r/XqvTaU9M/K8f3HHFZRfr9SM/PgcAABgk4qq+EVcBMcPj6ThRXvHB9p1btm3fvnOXEEKnMyYljUlNzcnKnJieUZCROUGr0UW7zNhSU3ustvpodU1xbe2xpqZKj8cphJg2pXDxwvnnnrM0LycnLs4a7Rq7I65CzHE623704/s2bfnAarWuOP/cb153zfj8XI1G0/tRiqLU1Te8+NLLL72ytrGxafq0KQ/87CdTCyfH8uBGAACAWEBc1TfiKiA2lFdUvvXOex9s3/nRJ/t9Pp9Go8vOLswZNz0vf05KSo7JFBftAmOa3+9taDhRXr6/pGRPZeWhcGg1fWrhvDmzL714xZTJk6Jd4Jeof/nLX0a7BuBL/r123dPPvaDVapcsWnD7d24qGJ/Xn3XgJEmymM15uTntbnfxsWNVVTUmk2nGtCkGBlgBAAD0Sgl4RMArFCGCQsjEVaeiFkIjJEmSdCZJa4h2NcBoFAqFDhw89PiTT7/86uvHS8pUKm1u3sy5cy+fN/fyiZMWJSVla7W89euDWq2Ji0tKT8/PypqUnJSt1mhdbU3VNdUHDx0ur6i0Wi2ZmRmamFmFnbgKsWXnrj0P/+b37W73mOys737nWzOnTe3/dxZIkmQyGhMTE0rLTlRWVVdUVmZmpBeMz1epVGe0ZgAAgGGNuKpvxFVAVHl9vvc2bHr0j3/5cM9HbrcnI6Ng2bLr5829PD9vTnxCqkbT27ox6Eat1pjN8SmpOdnZhVnZkzxuZ1NTVU1t3f4DB0PBYG7OOKMhJp7liKsQW1b/v7/t+ejjuDjrTTded8lFF+p0pzflWJKkxIR4k8l0uPhoTW2dp6Pj4hXn9zmREAAAYDQjruobcRUQPYFA4JnnX1z9/x4rr6gMBoO5ubMuvPC2goL5VqtdTVA1UOGV6e32rJycmR5Pa23t8dZW5/4DB53OtokTxlss0V9/nVEniCGV1TUbNm2WJKlw0sRvXnfNwObxabXaC85dfs7ZS3Q63Y4Pdx8rKY14nQAAAACAoXHseMnqP/21ydEsSarZsy++8sqfjhkzVavVs07x4KnVmoSE9EsuuevCC7+r1mjb2lwvvPSfbTs+9Pv90S6NuAqxZEPR+z6vV61Wz5oxrffvAeydRqOeMD4vId4WCoXeeOvdCFYIAAAAABgygUDw9h/e4w8ETKa4Cy+87corf5KQkMZ6LxEkSZLJFLd06bXXfePXiYkZwWDwd6v/UlFZFe26iKsQMwKBwNZt24OhkEatnjdnziB7mzihIDEhQQjx7saN/kAgEgUCAAAAAIaOz+f789+eqKisUqu1hYXnLF789WhXNJIVFMxfvPgao9Ha0Nj493/80+lsi249xFWIFVU1taVl5bIsJyYmzJk9Y5C9FYzPz8rKVKlU5RVVR4+XRKRCAAAAAMCQ2blrz1PPPC9J0rhx05Ytuz7a5Yx8U6Ysmz79fK3W8J+1r727sSi6xRBXIVbU1dcHAgEhxLSphYP/JgK9TlcwPs9g0AshKmNgHCMAAAAA4LQUbd4aDAbVat2SpdfGx6dGu5yRz2yOnzXrK0lJWUKIt955L7rFEFchVjhb2wLBoBAiNSUlIh0mJsSHvxOwsbEpIh0CAAAAAIZGR0fHocPFoVDIbLZlZxVGu5zRIjl5bHx8miSpPj1wuN3tjmIlxFWIFU5XWygYEkKkRSyuSgjHVU3NzRHpEAAAAAAwNCqqqusbGhRFSU3LNRjM0S5ntNDpDElJ2RqNrrml5Ujx0ShWQlyFWOFsbQuGQkKI1NSIxVXacFzVRFwFAAAAAMNJadkJr9cnhEhOGhvtWkaX+PhUjUYrhDhw6EgUy9BE8dxAV61OZygUngyYHJEOEz6fDNjUxGRAIFbJIdnnUvxuxe9WAl6hKNEuCGeApJJ0RklvUenMks4iJCnaBQEAgGHA6/UpiiyEaG2tjXYto4vL1Rx+b+5xe6JYBnEVYoXZbFar1EIIp9MZkQ7d7e5QKCSEiIuLi0iHACJIkUOysypQvjPkbhKKIgkhhEJaNSJJklCEJCRJEpLKnKzNnqO250S7KAAAMGxUVh2W5ZBKpY52IaOCLMsNDScCAW+0CyGuQsyw2axqtVoIUVffEJEOHc0twWBQCJGUlBiRDgFEjBwM1n7qL9ncuUERkpCEEIy7GYEURRGKEEJRhAi1VYcOVmsyZuhyl0i86AQAAP3Q4Wmrrj6anT0p2oWMCg5HldPZGAsfIxNXIVbEx8WpNWohRF1DZOKq5tbP4yo7cRUQQxQ5GCj/MFC5WwghJJWkNUk6k9BbJLWBaWIjkyIrQa/wtSv+diXoFYoSrN0vaXTaMWeRWAEAgD4Fg4GtW/618op7TSbmzZxZPp/nk4/faWqqiHYhQhBXIXbYbDaNWi2EqI9UXNXSGgiGhBBJdntEOgQQESFH6WdZlVqrtmWp48dKer7qZVSQPQ65tTrkqhNyIFh/SJMwVrJlRrsoAAAQ6xRFPnZ819YPXlx+zo1arSHa5YxYwWDg0wObPv5kvc/njnYtQvDNgIgdSUl2rVYrhCgpKQuPihqMUChUVVXt9/uFEJkZGRGoD0BEyMFg5R4hhJBUKmu6JnUyWdXooTLZNRnTVNY0IYTi7wjUHxJyKNpFAQCAWJeWluf3d3y6f+Phw9uCQX+0yxmZZDlUVXX4o71vOZ0NiYkZGo0u2hURVyFmZGVmZKSnS5JUUlZeXl45yN7q6xtLSk8EAoGU5OTxebkRqRDA4Ml+d6ijRQghaY3q+DHRLgdRoEkYKySVUEKyp1kJRn8VTwAAEOMKCuYLIVpaajdtembfJ++53a3RrmikCQR8xcU7i4r+UV6+XwiRnV2o15uiXRRxFWKG1WI5e8lCrUYTCgZ37t4zyN4OFxc3t7QIIc4/d1l8vC0SBQKIAMXvDi9PJemtKiO/m6ORZLRJWqMQQsghJdAR7XIAAECs02j0F1743cTEzIaGExuL/rFl879qao6GQoOdkYOwlpa67dv/8+67T5SU7LVY7YsWfS01NSYGfBBXIYacs3SxWqMOhkIf7hp0XHXkqKO5RQhx0QXnRaI0ABHicwtFEUKIBgA3AAAgAElEQVQSOuYAjmJ6qxBCyEElBr4jGQAAxDi1WrNgwVUXX/z93NxZTmfD7j2vv/7a6p0fvtLcXB3t0oa3tramjz9Zv3btbz744MWGhrLk5LEXnHfL2cuuj4tLjnZpQrDUOmJKfl7u3Nmztnywfe8n+97ZUHThecsH1s/H+/Zv/mCb2+2eMnnSlMkTI1skgMGQAx4hFCGEpNFHuxZEjaQ1KkIockiEWH4CAAD0TavVjx9/ltVi3/rBi0cOb6usOtjYVL5zxyvTp507uXBpRsaEaBc4zDgclYcPb9u3b4PTWe/xtElCGjtm6rJzbszJmaHVxsqrdOIqxBCNRnPxigu2fLC9tq7+b//7j+yszMkTT/t5p7qm9rkXXvp436eKoixfttRojP6cWwBfUMKDqyQhpGiXgiiShBCSJCmKEu1KAADA8KBWazIyC1as+G5GRsH2Hf9xtTV1dLi2bHlh1+7XJk1aMn3G+dlZk2MnaolNoVCwofHE/n0bDhzY7HTWh0IBIYRKpZm/4Mq5sy9JSh6jUqmjXeMXiKsQW7565eXvFb2/oej9o8dK1ry87od33GazxUlSv97WKori9XqL3t/y/tZtsizPmT3za1dfodVykQMAAADAsCdJqvj4tKVLvzGlcNlHn6zfsf0/fr/X7W7ds+f1jz9+OzU1b+LEhRMnLUqyZ2s0WpVK0883kiOYoiiyHJLlUJurqfjItsOHt1dWHgwEvEIIlUqt1epnzlpx1twr0tLzol3pKfBOHjHnZz+5e+9Hn7S0tr7z3sbsrMyrLr80Ls6qUvWxzpqiKB1e7wfbdj734kutrU6rxXLLN69PSU4ampoBAAAAAEMj0Z553rk3T5963sf73tn3ybsdHe1+f0dNTXFNTfHWrS9mZ03Oy5+dnz83Li5JqzVotQaNRhvtkodUKBQKBDoCAV97e0t5+b7jx/eWlu71+TxCCEmSdDqjwWAuKFgwe/ZXsrImxdSIqq6IqxBzMtJSf/i92373x7/UNzT+/aln3G7PlZdfkp6Wqlb39lvkdLa9V/T+X594sqKyymg0rrpq5cwZ03s/BAAAAAAwTCWnjD3v3G9PLTzn6NGdFVUHmxor3e4Wr9ddWvZRadlHW7e8kJk5MSU1Jz19fFJSttFoNRrjzGZbzKYzg+fxOD0eZ0dHe2trfU1NcX19aW3NMVe7I7z8gk5ntFgSExLSsrIm5+fPzcqapNMZol1yb4irEHM0Gs2lX1lR19Dw9jsbTpRX/PP5F6pras5ZuiQvd9yY7Cy9/kuzkf3+QG1dXXlF5fYPd736+lv1DY3JSUnnn7ts1VUrk+yJ0XoIAAAAAIAzTaVSpWeMT88Y7/G01dQcrak5WlV92NFU2dJa5/W6S0r3lpTuVanUVktioj0rOXlsenp+XFxyXFyyNc5u0JuH+1pXwVDA53W3t7e0tTW6XI66upKGhhMOR5XT2RBel0oIodUZ4uNS4hPTs7MmZ2QUZGQU2Gwp0S27n4irEIvi423fveWm/Nzc5174v0NHiv/9yqsfbN85oSB/8sSJaWkp8TabxWz2en0tztaGhsbiY8ePFB87UV6hUqlyxo352lVXXnHZxclMAwQAAACA0cFkisvPn5OfP8fZ1tjUUN7QVF5ZcbDN2ehsa3C5HM62RmdbY1nZx5KkstmSExIyEhIzTKY4kzHOZIozGuNMps4bttjMsIJBf0eHy+Np6+ho6+ho83jawrc9nrbW1vrm5uqWljpZDoYbq9Vamy3FFpcSZ0vOyJyQmpKTnDLWnpgZ3YdwuoirEKMsZvOK85cn2RNff2v9B9t31jc01tbVb922w2K2WCxmo9Ho9/td7e3t7e5AICCEsFotC+bN/cqK85ctWRQXFxft8gEAAAAAQ80Wl2yLS87LnzNp4hKPu6Xd3dLmbGxqqnQ0Vzc3Vzc3V7e21re21peVfSyEUKs1er3ZYDB3+dtiNFktpgSD0WowmPR6s15v1utNBr1JbzDr9Cad9kxNoAsG/T6fx+fz+Hxun9fj87m9Po/P5/Z2tLs9rR6P0+tt93rdPp/H63X7fO1erzsY9HcerlZrkpKyExMz7fYsuz0rIT7NbEkwm+NtthS1elgmP8OyaIwSRqPxrLlz8nJzLr7owi1bt23asvVEeaWzrc3Z1ta1WVpqyqIFZ513zrKJE8anpiQbDDE9/xYAAAAAcKbFx6fEx6cIIeRQyOdzd3hdHR3tXm97k6Oyof6Eo7m6taW2zdkYXu+p64EqlUan1as1Oo1Gq1ZrNWqtWqNVqzVqtVaj0Wq1BoPBYjRa9TqjWqPVaHThP2qNVqvRqTU6rUbXuV0SUjAYCAZ9wWAgGPIHg/5gwB8MBkIhf+f2QMAbLszv7wgG/aFQIBQKBoOBUCjQ+Xcg6A0FA90eoEajS0zMjE9IS0zISEkZl5Iy1mCwGo1Wo8GqN5hHwOryxFWIaTqdNiM9LTUlecbUKTded015ZVVVVdXG97cWvb9l6pTCS79yYV5uzpiszISE+DirVaPhegYAAAAAfEGlVhtNcUbTZ1Nwxo6d6vd7g0F/MOgPBHzt7mZHU1Vzc7XDUd3cXO1orgr4fV5fUPjcPfQnqVQqlUqtUqkkSSWEJEkq6TPdbwghKYqsKMrnf392Q4gvbZHlkCyHwgui90Sj0cbHpyUmZtrtmYmJWfakLFtcsk5rUGt0Gq1Op9VrNHpJkiL9w4sm3t5jGFCr1TZbnM0Wl52V2diUv2vPx0IIk9F41pzZhZMnqlSqaBcIAACA3siy/PmbNwCIpvC4p/BtRVFSxNhxY6criqwosiwrshx0Ohscjmq3p9XtbvW4W93uVrfb2e5u8bhbPR5nMOgPp0sRL0yt1hiNcSZzvMUcbzLFWyzxJlO82RxvNscnJKTFJ6RpNXpJUoVjsi6J2IhFXIXhRJIktfqLrx1VqVRkVQAAALHvX6+/8fyrr549b973r7/OajZHuxwAEEKI8AAotfpLbyqNRmtaWt4p2yuK7PN1uD0tHo/T5+0IBLyBgDcQ8AUCvvANf8AbCHiDfn8g4PUHvIqi6HR6rcag0em1GoNOZ9Bq9VqtXqv94oZOZzSZ4szmeIPBolKpT3ne0Ym4CgAAAMAZ5A8E9h057Gxvb2pp0WkHuJzKc6++9td//WsAB97xjW9cf/llAzspAHQlSSqDwWwwmO2JWdGuZeQjrgIAAABwBjW1tBw9Ua5SqS5aukSv0w2mqxVLliydO6efjY+Ulj677tXBnA4AEC3EVQAAAADOoE+LjzY4HFlpaTMmTRpkV3ljxiyfP7+fjQc8kgsAEHXEVQAAAAAGq9np/NnqP9Y1NZ28q7WtTQjR2Nx8689/0Wc/aUlJv7rrh4k22yn3/vVf/xrYlEAAwPBCXAUAAABgsGRZqXc4ahoaemrg8/t72dtJkiRZ7vHb3JkMCCDqZDnEmuhDgLgKAAAAQGQY9fqbrr46MzVlAMf2J13KSEmeNmFiPzv0+nwDKAMAeqEoyrtv/q68bO/FK+/PGjOt30fJHR6nosj9aSxJKqPJJkmqvpuOaMRVAAAAACJDq9XOnTplYm7uAI7tz1JT/3j5lX+8/MoAOgeAiOjwtNbVHFGp1VZrcv+P8rhbXvzn91pbavrTOD4h45ob/2K22Ada4whBXAUAAABgeGAyIIDoamwoaWmumjbr0rj4tNM9duny2+YtvKb3Nru2v7j/49cGWt2IQlwFAAAAIOYoiuJsbw8GQ+G7Z8+dM3fqFJPBYDKa+tnDxNzc5fPnmwyGppbW8BaNRm2zWCRJOiMVAxhZnK11e3f9Oxj80rTihrpjoVCgxVH13tu/7+nAhMSsWXOvVKt13bbv2vHCvo/6yNB9PrfBYBlwzSMJcRUAAACAyHO53c+9+mpbu7uXNtnpaV9dseKU0wA7fL6frf7jngMHIljSnClTfnvvPSaDIYJ9AhipvB3OQ5++4+1wnbzrROmuXg4cM27W9FmXq09ajX3mnJUzZq/s/aSf7F13+MCG06x0ZCKuAgAAABB5Pn9g446d1fX1vbSZM2XKFeeff8q4yqjX/+quH3aOrooIjUZt1Osj2CGAEa8/M/g6udsdL/7zez3tLSvZ5Xa39N5DQ92x0yhuRCOuAgAAAHCm9PRdgX0uLCVJUrzV2nn34PHj9U1NAyggPi5u+sSJatVo/44tABheiKsAAAAAnCk9fVdgf74HsKuX33n3rc2bB1AAEwABRIujqbypsUwIoSjy7LNWabUGrc7Y+yEZmYWBgLeyYp8kqYQQSck59qSxQ1Fr7CGuAgAAADA8PPrjexfPnt11S1NL660//7kQ4okHH0xKiO+660hp6Z2/enhI6wMwcpWX7Xn3zUdPuSvOlnrplb80mRO6ba8s/2T3jhcHc9K5C64hrgIAAACAmNbW3t75NX9hzc5WWZHDN7o1bnW5FEUZuuIAjGjBgN/ZWmsyJ2i1XUZrSsLtapYkSVHkkw+ZMfvyGbMvH7oSRxbiKgAAAADDw4N/faynXTfc++OhrATA6HThxffmFSzsvOv3d6xb899tzrrej6qvLf73C/91yi8ZPJnBaP3qtb9PTZ8wqEKHP+IqAAAAAMPDz++4fd606V23NDtbf/zoo0KI39x9d6LtS5MBj1eU3//HPw1pfQDQs4su++m43Lmdd0+U7n77tf85eeOm9/4SjepiDnEVAAAAgDOlw+t9Zu3aeGtct+11jY0D6C3OYum2QJUQQiWphBCJtvhuu5pamiVJGsBZAOBMcDSVa7pMJHQ0lfe0EYK4CgAAAMCZEwgG3/9wV6R6u/s3v+1p1yW33hqpswDAmdBQd9zr/WI+YFtrfU8bIYirAAAj3pFjpd//71+3udq7blSrVcn2xNyxWZdcsGzxWbP0Ol20ygOAkc2o19909dWZqSmn3BsfF3daz8Dzp09PS07uusXr823ds0cIsWTOHINe33VXq6tt296PTr9kAOjRx3vWlhzf3nlXDgWbHRUaTb+ex2bOuaLrulclR7efKN118sa3Xz8cwYKHL+IqAEPK73K4/DprvFWnjnYpGN1CIbmuoamuoWn77k+S7Qm/vOd7c2YURruoKHB7OiRJMhkNfTfFSBUSgidknElarXbu1CkTc3MH2c9d37zx9muvjbOYdVpt1+1NLa2fHj0qhPjeddd1mwwYDIXa2ttVKpXxyzEW8JmQy+Gy2rvPLj0dn720tVsH87FXyO8P6fjgbLg4UXqK4aLxCRn9OfadN3+rffeLF12BgLenjRDEVQAiy19Z5srIsff8zmf37y64880Jd6174brsAXS/7b7Zd66fcNdrL1yXKUTZs9d+6425D//9rkWDeZGBfmtvb29sbMzIyNAP2xf92Znps6dPDt+WZeXw0ZLS8spQSG50tNzzwO8e/PH3l8yfHd0Kh9LmHXsef+al5pbWPz3804njB/s2EsNV5fPXXvVk0zk/efE3K+z9Pyrkd7W6/P1srLba43t+E+ZYd+dVz/svvv3+e5Znfr5p25OPFdVNXfWzlaP9K5H6p6GhIRQKJScnazQx98Leajb9103fCgaDGSmpA+5k1/5PH/n733tpEJLlpuZmIcTN992nVql6afmT73xn3rSpA64Ep6n6+WsvW53/570PLhpUN9semn3XxpWPvnv/0i7PJP7qot/fs2bM7x7/RuYXGz1lu7eXuTKmL5/cv+ez1vX3XHRfUerNL7x8+4QBp/Y7H7ngrvUrVu99eGnfbf0l69a1nLtqjrXbdsfaWy/4bdnyB1//3Yruu4Yvr9dbVVWVmZlpNBqjXUuEdVsZPUySVEaTrZej1GptXFzaWYu+kTVmWufG8FLrZ597W9cOqyr2f7jtX2q19lTdjC4x978agOHL/+FvLvn+GjH//idWr8xRn/r9jMsnhPC3ORwOU7ejT/dzKZfLrfeVPH/nBdtW/uaJ+885jfdZGJjKysq///3vmZmZhYWFhYWFmZmZavUwG5IxbdL4n955S9ct9Y2OX/3h8V0ff+rp8D675rWZUydZzN0vzZFq87ZdpeWVcVZLtAtBNDk+3FgccmWOyzm959CaNbeuXF3cz8aff8Zw6gI2vbrNVWYNWrs08JYVrVtX7F1OXNU/e/fuLSoqGjduXPjJOfnLE+WiS6/TLZw5c5CdxMdZ502b1kuDzsmAMydNMvT6gUp83MjJAoYlx7an/lZU03ubwlX3X/GlX/3ij3eLUEZOzpdfJKoduzcV7259aN15j6/szEId21b/eHXxxf0OyOKXrzzfWvTmU6tf+9rjV5z5V5L+bQ9c99D60GPFj758/9Iul2Jo/5N/3y/E8ouWjqjrs7W19a9//WtKSsqUKVMKCwuzs7O12mGfv1htydNmXZqcmme2nMYF43I11lQdFEKctfg6IURV5aedu0651LqQpLMWX+dwVDgcFRlZhVZrDD2rDzHiKgARo5uz6oYJa1Zve+jW/za8+OsV9h7fz5Q9dfMFT3XfuOLPex8+nU/frNO++/S7ix+79ean1t19jf25d2+fPPDK0R8ej+ejjz768MMP33//fbvdXlBQMGPGjNmzZ6elpUW7tIFLTbb/7Ee33Xnfr09UVB8+VnLoaMm8mXzwjtHDsfW9/UJMu+7KgeRC/RlNsO3ns+883sv+4pee3y9E5qoru39MfSp+v5/JMqfgcDh27Nixc+fOxMTEpKSkKVOmzJw5c+rUqXb78Psgx+lqF0Ko1WqV6ouv8ysYN+4n37ml54N6mwyI2OIp27h2XR9Jt3/5l+Oq6t3bq0XGzXOzhRDF63615tO05bd/e5FdPe32Hy1fc1/RH/+67SsPLur9icGx7anHNvWQknkydKJ495++f8/BSd2/ulIIITKWf/fmRfbqNXd+9/mynh5UoxCi6IHLLuvx065z7n/9rrlCCN2ih1+8q2zV6nV332p/6onbp34WTjnWrl7jELpFE8X2oqKeH0Xm1OUTBj5IMQr8fv++ffs8Hs+WLVuSkpLy8/PDrxuzsrKiXdrApaSOv+Ard5/uUc1N5Vs2Pn7KXeF5fwf2vV18aNMpG1xw8d3EVQAQCeqc6575j/jm1as33HeN3vryL1Y98e5F3UZX7f7tBfdtyLn5qSe+1n0yoG4AnyhZp97+wusT1xyavoqsaqj4fL7a2tra2tqjR49u2rTJarVOmTJl0aJFs2fPjqmP9PsvNdm+bOHcZyqqA4FgSVkFcRVGquK1D6052G1b9e49Qlh9u//3oV7eQE796v2nHObU69uzz7Q1CZHT8+4969ZUCjHjuq/1Iy5zbXngql+5bvj9w9dNHVEDECLF4/F4PJ6qqqojR46sX7/ebrdPnz594cKFM2bMsFpj9Cfm8Xof/tvjh0tKwnc75/SNSU+zmExCiGan82er/1jX1NR7P/2fDCiESEtK+tVdP0y09TZnB2fUhB+89sINpxxwue2+2Xeu77bNsfuDYmH9+uIJQgjRtHvtuvUTcm769iIhhPX8b9/8eNFTb/7myW+8dnuX55AJ+eO69eEt2bhuba8pmau46NQNJuTcePOiHoPftsaaz6YR+Furq11We2pcHytBjrvuiUcPX3XX+qduvjVuzQvXjRPCtf6R3+4XQvi3PXbPtt4OXbF678PDKq4KCwQCDQ0NDQ0Nx44d27Jli8VimTRp0oIFC+bNm5eenh7t6iImEPBqNDpJUgkh2pwNXq/LFp8hic9i97E5c2753v+d8sCSo9vXrvnphRff23WpdXQirgIQUeqc6x57eN8Ff9AtnGhV64RV5+jf8iY6Y3gmYPXz117WxwyT4tWXzV7dbdtvOm/1fwQ4Bsfv9/v9/paWlurq6o0bN8bHx8+aNWv58uXz5s2zWIbZ/LLOCYDBUKhz42vriw4eLdHrdNdc8RVbnPXpF9e+s+mDpuaWqy+98Ee33djZzNPhfWvDllfXF5VX1vj8fiGEzWqZP2f6DasuzxuXLUlS1xO52t3Prnmtrb19TGb6Vy+7sKW17akXXn7v/e2eDq9ep5s7c8oPbrl+TFa6EEJRlE8OHHns6RcPFh8PhWS9Trf4rFl33HRNZnpqLx0qivLa+k3/t+7tmroGWZZNRsPyJfNvXHV5uM+woyUnXn7zPSHE/sPHhBAdXu8z/7fOZrMKIeIslhtWXWa1mCP9A0ZMaPp43bo3T7Wjx/dpn/EuPXVctfhHT/9kfh8n3f3bC+6r7Gmnv+jfa1zCuuLGlX2PAjrx/K13r3eE7Idb+mw62nm9Xq/X29TUVFJS8tprr6WkpMyfP/+cc86ZM2eOqq8oZ4iZDAa9TlfT0NB1Y1JCws1XX607nUlDapUqNSkp0tVhoIrXPfTv8FyntsM1Qniee+hX4TFDU1fd2Ntxp+TY9OpuYV11/qlmg6onXH/b8qfuK3rqf9df/2ifaz51XTi1yyitL59t25OPFYmTt2eu+vNrq7r1569e98C3HqrPWXVFxpr/bFt08coj69eJaT/82y9WZvY61su69OEnflB27f/lJBmFEK6iRx4pCllXPPyvH83tMemqfvHWbz3d0+CuYSMQCLS2tra2ttbW1oZzq+nTpy9fvnzBggXx8cN+UGRl+SdrX/qposidWzKzp2h1BiHE26/9z8H93WPYbtau+Wkvewunrbjost4ajGDEVQAizbri4c3LP5uwsfORC+46+Qn6FJMBP/+ozZCzfOXKHodKVe9eu7vaOmH5eaccsC2EEKKQF6xDLRQKhUKh+vr6t99+++2337bb7QsWLFi+fPncuXM1Go1Go4m1N0j99MmBI29u2BJntSxbOPeRPz+5c+++8Pb2dndnm+27P3nw0cdanG1dD3S62t/ZtO29zTu+fsVFt934ta5f0O7zBzZu3VldWz9nRuHE/Jxf/PYvjY6Wz3f5P/jwo0PFJb9/4N6CvHGPPf3ii2vfkmW5c+/GrTs//vTw7x+4d/KEvFN2uHjerAcefexg8Rczrzwd3jfefb9o686f/ei25YvPCmdn9Y2OdW9t7GwTCAQ3bfvsC24y01O/tvKiGB2Ggcg4vWnX1c9ee9mfekyyit987LGP++qhWIieRmAdevKPG4TIXnXD0r4m+Lm23fed1cUhYb/iFz8ZWWu7nFHBYDAYDFZUVFRUVKxZsyYtLW358uXLli2bPHly+Mm5W54+eHqd9twF831+v83S33+mG1Zevnj2rM67aUnJ+WPHdGZViTbbY7/8RWSLxBlXv3vd2i6v/Vy711XuFkII4V1+46TT7Mux8e39QkzI7CHStp5//ao/FK3Z9IfnDq24fbIQFWXFQvRjsOaXRml14S0rWrdOnLy9G3/1htU/uH9NWcKiH7/46KrqB9b8R1jPu/+NGyfc/f2HLjv7+VU/ffj2iydYe17eM+eGZzZ/XafTCdemRx5c77Ku+N1PVmT28jvjjRtRs6DDrxt9Pl9RUVFRUZHNZps3b144t9Lr9Wq1OqaWRg2vj67T9zGW2J40bubcK4NBX/hu9tgZ4ycsCd9efsH3ly7/zmBq0GiG63ccDR5xFQbO6WzrOhJhaLQ6nZ23291uR3MUPma1JyZ4PB6/v7/fiTQwiqIM+HWkoiidtyP1YrRrn127ValUcXHds6MvFheZ/5N33/1R1109TQbUGcOvROyLvn1/z68Rtt23dnd1xld++LMeV+3tJMuys8vVgsFzuVz9aeZwON5444033ngjJSVl0aJFCxcuHD9+vMVi+f/s3XlcVOX+B/DvObMCM2zDOsMqIAiGC+ICrmjmUi5pVEaLade00iyt+8tstzIr01umpVlpVraZpZImmoobrqggKvu+LzMMs8/vjzEcYdgUGMDPu9vrDmd9xsbDOZ95nu8jFou74KxVRKTXG65mZBMRy7K+XhYmIf5z78GTZy+4uThH9u+r1elsba9PcJNw5MQbH3ym1mg4HHbIwPB7x48ODQ4oLCo9kHjyz70HlXWqbb/sUtapli54kstteOOVV1D85ofrbG1t3n7q0bDggHOX0r75cUd2bkFFVfXqDd9G9Av9/rfd3jKPuY/MbLD2y60/vb/8BUGj+j3VNYo3Pvws7Vrm5HEjx42K8vXyTE698uOOPalXMpR1qvfXbvRwcwkLDiQid1fJtEljiej0+ZTc/EIejzt88MD63lUCfqeWQVWpVLqqKmp0xav/0fxFaw7YeC+GYSwezbT8Ntvf4LD1jW+82e2fq8FJmzpX/elMmwmFQqGwhbEpViKP/2pTPhGF92vh2VKeuGzGwvhykkxe+8ur0eZPdCqVqq6uriMb2T0olcrWfMCKioq2bdv2448/+vj4DB8+fOjQoV5eXvb29iKRqL2+VBDb2S2YNatNu/jJZH6yFn+ldy1KZd2/z6Rt0Kb7Oosb3+bCVp7L9FlqsHtTB2yw3NbWls/n08gVp0+vICIq3/H0+LeTzLu95279rJXNMkn7ceu5ZjfghM999eVI/2kxprtKvaq5jRNXT/nOVB6oppSIrm2cfd/2m6+PqppiIjJf/m/Zqes0+YkbP1m1JSGX/Geu2vlijIxPlH99HT8gdu2O6ISPFi17c9b29/wnzF88d2a0v+WUg8/nE2VtnfdyvFwyYe1/Y1qR74rNb7eVSqVa3fZPYeeqrq5uzaWpurp63759+/btc3Z2HjZsWFRUVGhoqJ2dnb29fVcoze7i1uuxpza2uJmDo0fM+OcsrhIIRQLqZsMOuo6u+OQA3cX6jZuLikta3q69lZSWEVFVdfUPP/3a+WcnolXvvrl///6TJ0926FluOa5qKle6/fZYPKxYLH7ppZeIqDwl4Xx9FUtpv5hQceaJI5mN8o3UMiLS5F8+f75RJQpx4PBIv+sP4fIL6xYuz5+7ZUV041/gafsTi+Nibx69n/ntwo1ur68wm4e9trb2o48+asM7hJZUVla26d6opKTkt99++/33352dnSMjI4cPH+7r6+vBKrraV4SXr2UcO3WeiNoiUUsAACAASURBVDzcXAL9fRqsVdQq/zqYeO/4UUsWzDYPifIKitZ8sUWt0Qj4/OUvzh83cqjpL4Wnm+vA8NAHp05Y8uaHmdl5e/4+PHbE0Mb1sIpKygaGh65c/qK92I6IZJ7uUZH9X3ztg0tp15JT0pJT0gYPuGvFK8/Xrx0Y3mfx8pWZ2XkXL1/LzM4LCerV4IBXM7LtxaJVry+NHnx9Ei6Zp/vdI6M2bfvlq22/1sgVG7f+bMq5egf4maZHfOvDdbn5hTZC4RMPTWt8wE6g1+uPHz/+z/ksujk/ahwwtT7rabxXp8VV5qdrvFn7xlXNnItufstjxoyJiYlpr1PfuM7rRNOWvswXu9i39I2vJiw4Rs+/8HeCqY9WfalgzaH337dcVfZmVQnLYpfGl5MkevmG1xv+Qjh69GhCc4WJ7xRZWVlarbaVG+v1+szMzMzMzG3btnl6ekZHRw8dOtTT01PqbHPnfn3fFjqdPuHooaRzF9u6Y1O5Elm6VeuIuKqV52p9XFV//alfNXXq1EGDBtVvoElKTCIL0r6aPeUnizF6TenNPyf9uj3f0nbmJCNjG17jOqBrjqY87ciubzd+FZ8mJ35A7Kodi2O8Ld3O8GUx//fzP3EJn73z/tY1C+PXkDg0JnbqtLFjIoNt8pOO1t8Xi/2jIu1z8jUcyYRXI3ePjlho6aQ3T2chNe9itm/fvqQki3+6XYhSqWzTNwoVFRW7du3avXu3o6Nj//79R40aFRAQgO+e73CIq+DW7T946Fp6hrXOnnblatqVq1Y59cp3Xr906dLu3butcvauxtXV1RRXXf5h6dL6qiiT155+yy9xzdImqlDlx69a2niIYPCindv8rn/FWnb2SHJu2sIHhWt/XN4osUre+G1y7NIbVQzkh5bNW5NYTg/LfG7MD6hSqfbs2XM7bw3ahcFgKCsr27Nnz4EDByIiImZPHtK7pdrMnUan0/996NgnG76tkStYln3gvnukHm4NtjEYDKG9g56d80iDDk17Eo4UlZQR0dy4GfVZVT0vqccLTz++5PVVao3mxx17+vcNaVCHhcfjPhY7xZRGmTg52N83frRpKJ+drc2cR2aYr/V0cx01bFBmdl6NXFFYUmYxXXosdkp9VmXC5XIemj7p5JkLFy9fbSrnsiKj0ZienrF791/WbkhP5u3t3URc1dxEV36Pf752poUOLxnxn3zSmoypaWNejQl2J9Inr34nvsXumur07Qvnr0w0ZVWrp/k3egS9du0arvO3TK/X5+Xl/fjjj3/++eeIESOeenSmlwTf/7fMYDRcSr2Mm0CLBgwYYBZXle/46fbS5OLt635uVbfuG/RERP7eTfTXi16886HFRHS9pnvg3M3bGvTWz986a8pqari8/Oenx7+XRERib//IcdOmDZVS2pGEG7e4Y1etHEuahIS/b+zS74H/9hm6f/eRzOQLCZveS6PQncHixNUv198XBy/esS1u5Ms//7OY+EnLiKh/3KqH+93Y/9KWpd8mN/NGL1682FOvfkajsbKy8sCBA4mJieHh4S7u0nb8vge6HcRVcOvC+4ZJnJ07/7xV1dVpV67KpFIvmYVhO52AYRhvb++IiAirnL2rqS+OGLl0795FRJT0/vhlCUREsrhtp+Nu9bD+j21Ye23Gwl07Fi7w//nruAZPKeU/vL/1oev1MuWH3p6xJL6cJBM+/GWBWdErHo+H/0btSy6Xp6en69s4BJhhGLFYHBgY2Ldv3969e7u5cUlR0UEtbFFy6tX31n5JREpl3eVrmWXllcq66wMHpkwYEzt1gsW9Jo4d4SC+6SmuRq44lnSOiKQebuNGDrPYhzG0d0BwoH9yStrVjOyy8soGQZivl7RP74AGuwQH+otFdnJFbZ/evXoHNJzYqG9IkOlFXkFR49NJPdzGjrBQ9dpBLBodHXnx8tUauSIrt6BLxVUMw3h6euLvaYdqZt4lTVl+fnGjeayUpflVGpHS8i6RL+zc+YLlVW2S/PGS7eUkGRRpfyqp6erB8Usfjic9Saav+uX/YixWgcHnx6S4uLigoKC+1F0rsSzr5OTUp0+fsLCwgIAAe3t7orYd4c7EEOPtJcMHzyIX84L39eP41Jc3zdkoWL457t9fa8FPbm7NzIBJX61LpuDg4LS05mfgMZOf25Z65Lqa8vLym3t5ldfoLDwfS2auWk+/awbFRnO2z5q2etlvrT3DhNWnDw4tT8uk4GAi/fX5svO/nzd7879b1H8TJhscM86sGAZ/P5nFVeXFBUQ3PfX4+vp2/Q+hWq2+fPmyTqdr6452dna9evUKDw8PCgrKybdwzwN3DsRVcOuenvuEWt2x9ZsaU9TW/vDTr2lXrnrJpLMfmyWzxgSoXC537NixAwcObHnTO0B9NSK+WCIhIhLf3De6PHHjuoQWf9GExS6f3qB6iTj69Q2LM2euTlk9703/X94y62IlFovlaavf2TFxwzT+obdnLNlRTpJpH/6yfMxNvbBEItHixYvJrI+6xRE63WJ5U6uaemu38JappYFFRJSamrp69WqlsokH2UYcHBz69u0bFhbm7+/v7e3t5+dnY2OjzT+vUVxu5RHaXW5+YW5+YYOFtjbCuXEzH5w6sXGFKSISi+xCG+VKFZXVxaVlRNTL18tF4mTxXCI7Wz8faXJKWo1cUdoornJ0EDee94plGdN/IHcXia1N2+oNST1cHR0sz0Dg9+/3zKbuYF0Hy7JDhgwJihxn7Yb0ZK6urs2tbty54NCyCAvzYzTSys2uu6m+u/zQsiU/lJNk2uuL/D971NJgFk15qalHhV4S/X8bPpzp39QI4mHDhgUGBrayEY0HN7Vyx6YO0tQRmr/Ct3L3Fo9gvnb37t2//PJLKwdrsyzr5uYWFhYWFhbm4+Pj5+fn7e3N5XL1tWVGJaZdbBmXy4kZPTJiCOYgtsA8H0/6dXu+ODzcLTm5LiMjNzk+dhZt3xbX+mF6uVtX/ywXT37mMVq4rNVxVXlxAVFwH//WbZ2+aXbDiX+IyGKpdnHkzDgiolyiG7MDNav+IsmXBJsOyLl+p3wLddMbFw8dN26c+bhLcw1qPt5CVRDzHW+nlm5hYeGbb77ZysqnRCQWi/v06dO3b9/AwECpVOrv7y8SiX7buavdJ4WAbgRxFdy6wAArfEtvXltd5ukZFhrS+W0gIg8PDw8PD6ucurtRZSbs2HGt0Rf49fQ1+cVy0sQ0iquIOP5x69amPvgmRYXcFERJY+eG7lj929vPLU4oO5RYzvGPXbf55UENRwxyudw+fdo6AQ00R6lUtqYcr729fVhYWERERL9+/VxcXCQSiZ2dXYt7dQ5bG6F5ptO7l+/o4YNHDYtsJhtiGIZlG94nqdRqjVZHRA5iUTOzrfvIPImoTqWukStut+ktaSbhkjg5mjpt5eQVWNzAWhiGkUgk7i4N00DoJhpOmmHqMmBxoTlNSUE5SWI/WB4ttlB0WX5u67JXVicWE1Fw3NcbFt/VXAFiFxeXm3pz3KlOnz7dmouzRCIZMGDAgAEDQkNDXVxcnJ2du2oZ/i6NYRgPd1epjaO1G9K1mcKmmROHX0hOdpy04otI+X/eXh07i1aObe0RJC4yTmTsM9HiNtRm1xQUy4n8pa0cfREwZ/PnDzYYDPjj/NmWEqyOt2/ZlLPmpdRLm96UqJs8idja2rbm0mRnZxcaGjpw4MD+/fu7urq6uLiIxZgBFq5DXAUAHc9CdYB/5W6dNa2JCldEJI5e8cdeU8lMTW7CZ++8H09EZD9m0X9T/14afyiRJNEvf/5hbEBXK959J7KzswsLC4uKiho0aJCLi4tIJLKxsbF2oxoaEz34tSULrN2KzqZQKlVqNRHZ2XWZsmHQEzScNKOsUENEFheak0x6dIHaf07/6/0UbhyuPGn7O8tWHyr/d4H/4GazKmglR0fHgQMHDhs2bODAgWKxWCQSCQQoqg4dSh6/ZnUahb/8ZLTGVCrKb9raLxSz31ZH+whaW/TLNmbupuBgd0ps8WTn1u1RL4gdQqRPOnyIKKBX4zp3ihoF3TQ1W/S/kxc2IFmw/XSLdwlNl4o301Le1HatjuG6CaFQGBISEhUVFRkZ6eHhIRKJbG1xl9IkZW0llyfk87vcrXVHQ1wFAB2vYPcn72RaHqckT22hvweHNOVJ2997+7MD+TceesQx/31rQtLi+HIS2IuQVVkTy7JhYWExMTHR0dEymYzL5daPDwVFrZKIeDyuQGDNT2mtsk6r1RGRm4sVqg1Cz1WTeTYx0SxQqsmpISKLC29iGzPnkZuXyJO3r3pr9a5MDRG5Ry9+d676g9nrWj38ByyytbXt379/TEzMkCFDnJ2dcXGGTiM/8P77B0g8c0GsO22tX+oXt3kTUe5WIkpbMyViTYuH4Qff1dKgPk3+jjdnvx1fPuHDBbFEdPZIop7EkZGNdysryTeN8Uv6eMrbrZsvoqkZJ4hI7N0vMtjyXe0NBUn5J1qc1dDM3St2vmU2wtTSgGtBB8x4aBXBwcFjxowZOXKkr68vl8vlcDhWHO5nMOhZlkNEytrKP359w90zePS4BablRGRaVV6W/fO2JQFBw8ZOeJ5hLPcXq1WUf//NszLv8IlT/q/dG1lUcPnn75e6e/SeMvMtgaCrDFnoHPi9BQAdT1lw/oSiqcGAzY1or0rb8fmylT9naoj43jGLX408P2+laZoZ8cgVGxZlzlyTsOzRpbRl1QT3Dmg2WMIwDIfD4XK5QUFBI0eOjImJ8fNrWBS8x3NydBDZ2ZqKl9fIFfZiC9NpabTaa5k5ROTs6ODl2eEf0OKycmWdyuJ4wDPJKUTEsmyAn09HNwO6mcbfJRRcaPXO0knPLo8zH/f3bWpCCllc2AJbsfxapobvH/v2qsVj/Pmc/K1NbZmblKgJiQwQ42uKxliWNV2cw8PDY2Jihg8fbq2xQmWVVfNee42INrz1lotTw0FzlzMyFr6zoref3wcvLbX9dzSixYXtSF5bu+X334no0alTxV1mfHpPJdBr5JyYFc9GElnOa8ShMWMtxz35Sb8ltTLjkZ9bt3D+pmQNkXt0H3cNESX8tF1O4tgx4Y22LS8tJiJ/f2+y94+MVFLp2R2JWfzgMZP6NB7Tqc9P2pmUT+THb/JzKL37+eWtqF21o01xVbPUbZvkpmsx3TfyeDxfX98RI0aMHTs2KCjI2o267mra4UP710+ettxDGmI0GuQ1JfYOHkRkMOj+jv8kPyd5yoy3JK5+1VWFCnmZvYNnU1lVY9mZp/bu+rDFzewd3O+7/w1bO8tVUOu5eQT27jMq+cwfhxI2jL1nkSlEu0MgrgKAjncLgwHNgipyj56z7OW50TI+JaaabfLv7IEJy6bNzvhi7QIMG+lgXC7Xzc3NyclpyJAh0dHRgYGBd+x39S7OTn2CehUUlVzJyLqUdm3YoP6Nt8krKEpJSyeioF6+TZVjb0cZWXlFJaW9fL0bLK+oqj517hIRebi5+Hn3rIEEcPvkaQm/3XIvprSN86ZsN7tnVsnzicjSwpa6SHD856zbGyuWWJz+7yaZOxYujqfJa0+/hULXNwiFQg8PDy8vr6FDh0ZHR3t7N7wOdHeXrl0rLmvVTBFcDqd/n1B7UcNASq3R7j92nIhiJ04SI63qYPwx05a/GjKh6ZuypuOexGWtiat0qVsXj99+qJyIHz53w9r/hIs5RLlbN/5NRFJL5ezy09KIAnpJifynL18+nUges2zGwvgUmrtteYx5YqXJ3L5k3g4i/4fWr5giaer8msYzCjYmb+NsVPknE/42my3hkvnYg/yCtkx42HWwLOvi4uLr6xsZGRkdHR0SEtLVRiK7ewSxHO6eP96b8dBKDudGKdLLlxIunN1114DJThIvIsrPvcDl8WXefVt/ZJ1WU11VaGvnxOM1+VFRKqsYhjEab0zJWpifWlNTbHFjT2mfvOzzYrHL1bTDFjeQeoWJxc1OrtI93aFPGgDQCTS5SZf5UqK2DQbUlCftWLPy+qiQG1+2W9xZHP36L6v4M5b+lrzpiRmXF3244pHwlp924FZ5e3svX748KCioCxal6mQcDnvfPaMPHT+l1erWfLnVz0fm6XbTLYJOp//x9/iKqmoej3vv+NHNlGNvLxVV1Ru3/vL60gUC/o1+JwaD4Yffdmdk5xJR9OABnu43NZLD5RCRVqtVa7Qd3TzooixUGiYi4ts0+Zx2ncBFJo2MXbliolnHQVNV9dh3byq1XrZr2dKfXFruDOUoac0XDqZZ6oMD77genc0zTW3h5+fH6/hLza0xz5vyi0u0Wm1FdfWhpKT6a6PFhe4uLmGBgUT0y197d//zT2tOZC8SrX11GZcrfemDVacuXvzw5ZeGR0R0wBuCZnGip03pmCMX5xcQUXr89nQi9wnLN7w+zdt0dcnf+orpu8+0df9ZFvLLimjzC0pB8nk5UbT/jeBcHL3ii8UFD69eOjFjzudrF/QXk2meh5dWJ5ZLov/v52YmJCWizM2zx29uenWbaDRkOtO5rUvPNdmvtJtycnJ66aWXQkJCRCILndC7AnsHj+iRT+75493Ui/v79ptgWlhWmnkoYYOP38BRY+ezLFejqSvMT3F0lDlL2txF/Z7JLwX0jmpq7Z6d7+XnJpsvOXd6x6Xk5mbdPXKwyZkApse+h7gKAKCVSpO/Xbjk08TID3f2obYMBtQkvDlxabyeiCOJfrYV8RNHHPPqL5slC+dtTE5cM3v0D9GL310R1x/drDqEs7OzszOKH10X2f+uyXeP2rF7f2Z23qJl7z3z5KzoyAFcLsdoNGbl5H/61bYjJ84Q0eS7R40Y0kkPS/sPH1drNM8+OcvPR8YwjCnA+m3330Tk4+X5yIx7G9SGCA0K2Bl/oE6l/mlnfKC/j52tTWl5pb3Yzjzwgp5L6B8zbRr1k0kkLUVTN9FkJR25Jifq9/yiflRw/rzZFw4WS62TNPb5RST/OyGBxP5Rkf63V0i3vKCAiGRuPfCO/Hb4+7fUf83aGudNGbm5b/zv0wabNVg4adQoU1w1457xwyMGEtGhpFPxhw9PGDFiZOQg0zby2toNP/xIRPMeelBsZ8flcKRuqA7QY6X9tDGZiIjv/8iHmxdF/3uLqMncvHR1CtGg5ZsnxM9+J37hgj4/fx1XX3C9/MSRNKLIQf1uOpZf3OYdLstmL9s0Z/SOkXETac/WQ+XkHr346xVxLfXW95+9ecPDLQ0GPP7++NcSmt1Ck//3ykXf+K/Z4k9ENG7F3pciG2zBv94QjVp3vXdY92JnZzdo0CBrt6IFgcHDn5RtEYldlbUVpiUSF7/77n/D3sHdVCWqsjynpPiqTqvZunkeGW/aN3LYw2F33bN396qCvEtGg0GhKKut/Scv57y9g3ufvnffWnsEQtF997/u6nZj0mSDQZ9yYZ+Ts5eHLITDNpneCG165uMP4ioAaFdKuYaIdr09m4gfEDspmDKpLYMB+TELng1Py390zYsxstY+MovD52/eO2zdwvmbkosTv/01eWr/6J55wYauhMvlPDfnEYVC+fehY9m5BS+9aaFCwbiRw56b8wiX2xld/sJDgz3cJHsPHjXFZOacHR2Wv/B0g65VRBQ5oK+Hm0tRSdm+f47t++cYEck83b/46E2BM+KqO4Ekeu7yWxhQV3pqyyffZFlcZRoMmPjtJxcsf+T94kLbFFdlZuZS9E3D2tKOJMqJZP4++Ih2M/37hNT3maqS1ySePuMgFg/t34/L4TazMDTw+gNbWGCgKbfKLy4hogAfn5ihQ02ryiqrvt3xOxFFD4yor5OlVKk66Y1B5wp+/PUJf2+UvW1e/0GTufmJmZ+mkWTC2g+nhYvHrj07Y+Gu1fPe9P/lLdPdYPn+P5OIgocPapTMu8e8sHJOwRObkg9t3UpEFDzn3ddjm8+qJNGLV0opMEQiaekqdPdre4f+l2/pYBq9hqhsx4v3rk4vJ+85CnKJnD5NGObf5HcHxUlH0olCrTppS09UVpKx+/d31WqF6UfzvMm0xFRYKv3qUbWqViSS1GdVSmWVTqsWiSREZCRjraKiuqrQtMqgqavW1DEMY6rUnp93QadvclhoTXVR44UMw9jYONiJbnwYykozT5/8ycHRc8ZDK4U2LdX473EQVwFAO9Ikf7kugcismkB+88PtNTmZBUT+/je+MZI9tvln8y2U8vI6EjuK+RxNefzupuYzFvdfsPmfqQk/XPB/BFkVdBKRne3b/31u5LBBn276rqSswnyVm4vzs3MeuXvUMJZtbVXO28Tnc1+Y/4S/j9fXP+xQa67fG7EsO3jAXS/Of8LHy7PxLl5Sj5efm/vWh+sqq6/P3cbhsCxrtdl5oGvQaJR8/vVQSZ6WVkBEQrP4STZz7c6ZlvfM/3bWlDU0d8O2uNstnSTzDyRKS1s97+nUKFl9z9ya5N0JuUSS6OHBt3l86GxTYmKmxMSYXl/OyDhzKcVPJnth9mzzUuuNF0JP1bqZAS0RR6/YYRaz/zszIPHDF39hGgAojv7v69OOL9yxa+FbUQdXTRDTuY0bzxH1nzax/rqklGem7Nnzw57ticlyDRFHHDx97vDy7VsOpG2aM34TX+w/IDomZmzkgH4hnhKxLRFReeKmdQfMupIeT2xuvJYl0jEL5kRLiIj0mQn7MokoM53v/8jazYuixUTBry6fZraxPC0xqcwlOMRFSERVl799Y2UykSwqsqUOXdA2PL6tl28/nU5NRGQ0ZmeeNhj0DiKJt98A0wZCobi2tiIt5YCDo8fDj39aHyHt2fleVkbSzEc+krj4ElFs3GpqNDNg+pWjRHTy6Lbm2+DoZKHPnJGMdcpqg0Fn+jHlwl/K2sqBkffr9dpaRXnj7RmGFdqI2aY7XnVHBqNRo9Fp9YYe9a4AwNr44VOnBu86P+mj5rpSZ26eOfNT8xRLMnFA0wMZTrw/fslNdwWyEU38wubLYlqcqAXuSCFBvfb9tLGte722ZMFrSxY0vw3LsveMiR4/OqqyuuZqRraiVunkYN/Lz9tBLLI4K7OLs+Ovm5u8SW++nSOGRpyI/6GZxgj4/Cdn3R/3wH3XMnIKS0qdHOxDgnpZnCuwXlRk/z+/+zwnvyAzJ9/fR+Yl9eiEMlvQtZVunzdltflcfpyY6Ou37vlbZ02xNDXGTVZPi1jd9NrgRTu3teJCHb10fdzlhVvTk+J/S7pphXv0y/9bHI4ahV1PnVr93oYNF69cJSK9wVBWUUFEc5Yt47AsEY0ePHjhY4+atuRxuR4uLs6ODuYXSYsLoaeSTXj5+TEWKqITnd/y8tZkSyssSN86K251mobIfcKKzStuzBBtG738g9jDc7afP5oknyDb8sr2chJPeHwaHVi37KeEpJTM8n+LUIj9IuMeX/zYhGAJn4jiFigzE3/euuX3/Ukn4jediP+3RFDk8r3rI9P377j1WSmIiIJ9npxjytmUBRllRPzwOU3PEaRJ2bL0nZsvfZIJL8chp29nDo4eMeOfIyKDQXcicZu8poSIRGIXd4/eYeH3cLkCIjp59PvysmwHJ09Tbyki0mjq5DUlPJ5AKGy5INf02PfMa1dlXDuelZEUMfgBB0cPIjr497riwrTGsw1qNao/fn0jJ+umzvJHDm5qqnCV0Eb8wKyP3D17yCdEp9fXqXV1quvfvCKuAoB25Tdn2x4is2cJvotMRjf1X/aPipuWXz9Xusj/7sfiLMyr9q/gftHSC9dHnthII2MXPD+9h1yOocdgGMbZ0WHIwMaTZ1sBn8cLDQ4IDQ5oeVMiIuJyOb18vRtPKQg9D99RJpO2WPVcFnn/tGn1V1lb/5gHYqOvd7aSxa7bO/H25lO/qYg7h+8ilSkcLbVIHLl4+7HFSnl5ndkwCr5YIsZomC7KaDRWVFUXlJSYL6wvr14ll9coas+lpuj0eiJ64v7pRHTs7Fnzjc0XCgWCiLAw1NHrqUTB0THjLMbWgv3U6rgqIHbFf/YvSp64ZmVsw7ro/V/esC1WFuzPJ5q7Mu7ID/3+O5IvVvajNzfJObLwMWPGTpg0MSpY0mBssq1/9GPLox9bTkp5ZkpSUlJi0omkzEELpkmIZm7YO7mNM/3d7MalTxz9+ifrH/SODG96LIAk6tE502X1vWgkIROmTolsdYkMaBuVSr5v14dX0w4PjJxx9crhgryU/NwLqRf3TZyyTKutO5P0MxGpVQplbaXY3o2I9DpNnbLa3sGDx29zLcayksyUC3+F3TXeFFeNHmf5O1GW5fgHDnF0lhFRbtbZqsoCv16DxQ5NFm3kcgVCG4e2NqZrUtSplf/+3ufzuHweB3EVALS3m773lsWu3RnbYIPgactfnUatJI1d+0fDAwAAQFtFvrBz5wstbxZsmujdEr5j2+qyt6DFy7utuOHzJHRVtkLhp68tN73+bd/fK7/8UubuvuGtt+rrSV3OyHjn8/U1CkVrjmbaV8Dnm3faIqJapZKItv7++2/79pmWNO7JJbK1XTLnyXZ9c3DLZHHbTseZL/BuuOBm0StOn17RYNFbp0+/ZXFjvv/szTubOJB/8PVu+/y7Fm8LJSIi2+gVB0+3qtW2Yv9BMf6DYmLn31jSjtcifmhkC99uuUcvePUWSgtC2xiNxsxrx+P/eF+rU99z70s+/hHXrhwJCYsJDh2z+/d3vv/mmf4R0xiGDes3ISV5b011san7krymRKEoc/MI4vObnCa7viuWSlVjPnxPq1Uajca6umrzhY2H8nG5/MihDxFRVUV+1rWTHtKQydOWCW3s9XrNmaRf65TVQ6IeEbSib1f3otPra2rVOp2eiGyEfBsBj8thCb2rAAAAAACgXegNhqQLF5paGx4c/NozC4SCJgcpV1RXvfzhjZkrLHbaqlYoqhvFXvU9uexFIlMfLoDrMHwYLEn856vjR751lvhMn/qKp7RPfYTUK3Dow49/9sevbzhLfGY98Vmdsjor4EilsQAAIABJREFUPSk3+1xQyEgiqq4qrFNWS73CLB6zIO/id5ufdpb4mjbes/O9xtv8vG2p+Y9NDeUzGo1nT/1WW1sxctzTpgrrer0+89qJmuqiiMEzBdSj4iqtTl8lVxqNxOVyRDYCPu/GX1rEVQAAAAAA0A6Ky8ouZ2Q0tZbP4zk7OjZfTJ01q+Ri3mlLbzAs/2RNwvHj77/44ughg00Lyyqr5r32GhGZ9+TCzIAA0KLwAZMFQrt+A6fy+TY5WWcunNt196QlHp7BRCRx8X38qU1EDMMwPJ6NvYNbYUGKqk4utBHnZp/j8YUurte77xmNhory3JQLe9OvJFZXFRmNBi5X4ObRW6/TENHgqFnmOVT6lcSraYeGDX/CwenGBDgclutgqeB6fu6FC+d3+QcOCezdw7va6fTXsyohn2cvavjbAXEVAAAAAAC0g0tXrxaVlRGRRqvd+NNPLMu8MHs2l3P9q/Ks/PyPN2/mNl2NRKVWV9XUONpbmKzdFITZi0QerhardN9gqicodXPj81DvBwAss3fwMI2502jqjh/ZUlWRHz3yyfpBdvUV0IU2Yk9p6IXzu8rLspycvXKyzjg6ypwlPqa1NdXFP29bIq8pMY3mCw4dM2nqKxwOP/3KUQ6H5+sf4es/qP6M1ZWFGdeO+foPbE1Z9AvndmnUyoK8S5vXP359EUO18gqDQffdV/MZs4mnBQLRpKmvuLj1uv0/E6uoqVU3lVUR4ioAAAAAALh9eoPhwImTLMMQy6o1mrOpKbmFRVI390fuu9e0QVll5Z8HDrZ4HItx1f5jxwtKSsKDg708PJrf3UYgeGvhwltoPwDcOU4e/f5QwnrzJRvXzTL/sX5ev+DQMRfO77qckiD1Cisvyx4waLqN7fXS5jye0K9XZEBQlKtbwE/bXuByBRwOn4jKy7J5fKFQ2HRF/UYMBr1WqxIKxSKxCxHZ2Do4OHq2uFd3p6hT63R6LpdjMasixFUAAADdl4NY9MbSBRqNTiyyFfB51m4OANzRsvPzz6WmhgYGFpWV8bjcV+fPf3f9hs+3beNxuf1CgqnttavqpVxL//7PP1mWvX/83SLbNle9LiwtaarTFgDcmQJ6Rzk4edYqyhP/+cpZ4h0xJLa+R9XV1H+uph3m/ts908Wtl5t74KXk+KuXD/H4wpCwsfUHsbVzuufel4jIvHo6EVVW5Jo6av24ZVFNdbFpoVpdq1bV7ti+jP23h6nUK2z8pKU8vpCIdDqNqq6GZTmmZowet6DB1IEaTd2O7a/UVBc9/PindqL2nPjEWnR6vWkeQJGNoKltEFcBAAB0VzweNzy05S7lAAAdzWg07kxIqJLL46ZO+eWvvUTk6eq2YNbDr36yZv+xY35eMmp77SqTK1lZr37ySUV19dB+/UZGRramMek5OZ9u/c7dxYWINFrtsbNna+vq/GQyPg/PPgBARCRx8XWW+Bzc95nRaBg1doGXz/UJG6urihIPbvQPHCLzvsu0RCCwGzDo/l073tGolSGhMR7SFu67tBpVTXWxvb07n28rrymxsXVw8whqsI1Br8vKSKpVVBjJ+O9eyprqIgdHKY/X5JyDPUydWkdENkK+eW31BnDJBgAAAACA25JfXHzgxEmpm9uAPn1McRURDY+IeOPZZ8NDgksrKojowpUrcUuWNnMQvcFQVlHh4epav6RGUfv+F18WlJT4e3n99z9PNR911XMQ2+cUFh47d65+CYdlxw8fbi/qUdNpAcDtKC/LunbliFajOn5kS/SoJz2kIRqNcu+uVSqVYmj0o1zujS4/Do5SgdBOVSd38whimBYmm1QqKyvKc/x6RfIFtkTUO2T04KiHG2xj6iplvqSqsqC2tsLbd0BB/sW9uyx0Mm2qdhV1z/JVBqOxTqUhIhtBc4MDEFcBAAAAAMCtMxqNP//1V3FZ2QMTJrg4OdUvZxhmzNAhRGSKq9QaTUFJSZuObC+yWzrnyc++27ZkzpPmMZaJi5PjL/9bW1hSuuX3HQI+/9GpU8V2dkTkaC9+8cnZx8+d02h1QX6+Tvb2vf38Wix6BQB3FBdX/zkLtl65fOjIgS+/2/y0s8SHZTlVlQWjxs03r4ZeU10U/+f7qjo5ER099LWjk6x3n1HNHLYwP0UhL/PxG9CmxuTnXtRqVG3dq/vSaHRExOdxuZyGPWrNIa4CAAAAAIBbl11Q8PfRo3Y2NuOHRzONRvMREY/L9XBxGdq/3//Nm2cjEBCRUqV66YNVV7Ky1r66LKTX9U4BFdXVr67+hIhYlqnft09AwKevLW/m7NUK+Z5Dh8V2drETJ4ntiIi4HE7UgAFRA+6UBz8AuDUsyw0JjQnsPfzooa9OHv2eiERiF6FQbDTqGYZLRFUV+Tt/ea28NCt84H3ePv3/+vODPX+8R2QMChnFMEzjA+p06pQLe+0d3aWyvq1vhlpdm371iJ1I4ubRW+Li+9SzPzTepofVrtLqDUTUzDBAE8RVAAAAAABw61ycnKRu7h6uLqGBgZXVNY03CPDx+faDlQ0WGgwGoUBgPkDP2cFh3RuvN969tKLiwpUrTZ09v7hEq9XWqVSJZ06beldZdFfv3q7Ozi2/GQC4YxgMutzs80cObiwquOws8endZ1TymT927Xj76KHNsXGrFYryP399s7qq8K7+k2PGP8fh8BXyskMJG/787a1hIx6PHPYQh8NT1cmFNuLysmylsoplOZnXTmRnng4feJ+9o4eytoKIDiWsbzAFYT0fv4GmFzmZp4sK0nqHjHJy9uq8N29VWp2eiLgcxFUAAAAAANBhRLa2M++5x89LxmEbdq2qUdSeS03R6fUNlstra7Py84ko6cIFixmTo719v5AQ0wHTMjNf+Xh1822oU6vf2/BFMxt8+PJLiKsAgIiMRkNO1pmL5/dcu5Ko1dQJhKKRMfP6RUzl820GRz1y7tRver3uatrhwwe+1GnVkUMfGhHzFMtyiWjQ0Ae5PME/f3+e+M9XFWU5MRMW/fHrGzlZZ4iIYVg3j6CTR7fZ2Dr0Gzilvu+VhzSkqVLrptcqlfzk0W0Mw/btP5FlW4hvegy9Xk9EXG5zIwEJcRUAAAAAANymcVHDLA6NKSgpfufz9TUKRVM7NpUxDerb94OXlppqq7tJJNPGjWvqCFXymsTTZ/g83ohBg4SCJidEd5N0++EzANAuGIatVVSkpRx0cw8cOHhGYPAIPv/6fHx8vs3gqFlGo/HU8R9Zhp1w38uhd91Tf3FjGGbAoOkurv6HD3wxZHicjY29X6/I6qpCRydZcOiYvv0miEQSeU2JxMXPdBaxvVtwaEz/iKkNGqDVqPbuXkVEDDFCoThy2MN5Oee9fft34p+BlRmNRESspd8a5hBXAQAAAADAbWEb9asykbq5vzr/6Qa9q9Qazde//ZadX0BEXA4nbsqU3v5+DXZ0tLcX8Pmm1739/P77n6eaOvXljIwzl1LEdnbPxsW5ODne1tsAgDtDSFhMUPBIHt/yZKMMw0QMmRk+4F6B0MJ0ot6+/Wc9sc70enDUrMFRs+pXBYWMrH9ta+f04KNrLB6fxxdOnnajJF9QyMigkBEWC//V4/NtYuNa6GTa8yCuAgAAAACADmEvshsZGWm+RKfXf/3rr7mFRQNDQyeMHPHRV5v/PHjwvYgX7urd21qNBIA7DctyWX5zYQjLci1mVR2BYRiiFvoZ3ZkQVwEAAAAAQGcoKS9f/c03/5xMchSLn42L6xPQS6PV/m/L1kXvrHhy5swHJtxT36MKAADucIirAAAAAACgY5WUl/+wa/eOv/9WqlRSN7f3l7zY28+PiGaMH28rFH646atPt279cffup2IfGBcVZSpZpdFqf4qPzy0sav7IVfKaOpVKr9d/unVrM7WrTLw9PR6YMIHP47XX+wIAgA6CuAoAAAAAANqfTq/PKSg4fPr0X4ePZOXnGwwGDsvGTpw476EH7WyuFzZmGGbSqFF9AgJWfL7+4tWr767fsPKLL3v5eI+KHHz/+LuPnT136uLF1pxLq9PFHz7c4maD+vadfvfdiKsAALo+xFUAAAAAAND+NFrtx5u/NuVNAj5/7LBhT0yf7iP1bLylv5fXF2+/deDEiS+2b8/OL0jPyZ04cqSDWPzkzBn3j7+7HZtkXsEdAAC6MsRV0M1oNBqdTkdEeoNerdEYDIamZqIBAAAAgE7Gsoy7RGJ6YSsUPnH/dBuhcOLIEUP79zcN8Wt6R3bssGFjhgzJzMs7dfHSfTFjOCw7MDS0sxoOAABdC+Iq6E7yCwpXfPBR/N79RHTq9NmVH69Z+vxzA/rdxeFwrN00AAAAACBnB4d1b7xe/+Ogvn0H9e3b+t1Zlg3w8Qnw8emApgEAQHeCbinQbWRkZb/57gfxe/fb2Nj4+fo4OjoknTrzwcdrTp89ZzAYrN06AAAAAAAAAGgfiKuge7iYkvr2e6v+TjgoEAjGjRm17OUXZ06f4uzkeOrMufc+/OTYiSRrNxAAAAAAAAAA2gfiKugGTp89v2r1/w4nHuNwOBPHj3326bljR498Im5W7IzpTo6O55Mvvrtq9f6Dh6zdTAAAAAAAAABoB6hdBV3diaRTn63fdPLUaYPBMHP6lAX/mePn60NEUk+Px+Me4nA4W7b9mHo57YOP16rqVJMnjrd2ewEAAAAAAADgtiCugq7LYDAcP3nq0/Vfnjl7XqPVPvLgAwvmzfH0cK/fwN3N7YlHH+bzeJ9t2HgtPWPNug0ajWbKvRNReR0AAAAAAACg+0JcBV2UXq8/fvLU6v+tu3ApRavVPRE3a8G8OS4S5wabSZydn3hslkAoeP/DTzIysz5d/6VWp5t232Q+n2eVZgMAAAAAAADAbUJcBV2RXq9POn32vVWrU9OuGI3GJx9/ZMF/5jg7OVncWCwSPfnYIzZC4evvvJ+Vk/u/z780Gg1T750sFAo6udkAAAAAAAAAcPsQV0GXo9frT546vfyt9zIys/h8/qMPx86bO7uprMqEy+U+HDvDSMYPPl6bX1Cw5rMNRqL7Jk6ws7PttGYDQGswXAHDMEaDwajXWLstYDVGvZqIjMQwHPSEBQAAAAALEFdB16LRao8eO/Hmuyuzc/Ic7O1n3j/1qdmPNh4D2BiXy505bSrDsOs2bCouKV3z6XqtVjt18iR7e3EnNBsAWokRiIxEREbS1Fq7LWA9KjkRMRwu8YTWbgoAAAAAdEWIq6ALUSrrEv45/P5HnxQWFkkkzjOnTXni0Vlurq6t3N3W1mbafZOI6Ktvtubm5f/v8y+1Wt2Mqfc5ONh3ZKsBoA0YgR0xDBEZ1QqjTsVwkVbccYxalVFTS0QMy2V5NtZuDgAAAAB0RYiroKuokSt2xf/16edfFhYVu7q4xM6Y9ujDsW5urc2qTMQi0dTJEzks+/WW7zOzsz/9/Eulsm7WgzOdnRw7qNkA0CYs347l2Rr01UatUl+Vx3UJtHaLoLPpq3LIqCeGZQQi5JUAAAAAYBHiKugSKquqftu5a/O32wqLil0kzo898tCDM6e3ZgxgY/b24vsmTeByuZu//e5qesaXX32jqK2d/ejD7m5u7d5sAGgzDp/r3keTfZwMOkNNoZ5vx9o4MRgRdmcwaJSklhvkhUREXAHHuRehdhUAAAAAWIK4CqyvvKLix59/++6Hn4uKi11dJPOfmjN9yuTbGcEnFosmTbhbKBSu27DxanrGth9+UtbWzps7Wyb1bMdmA8Ct4Xr21VXlGarzjGq5ruQyK3Rg+HbEs2E4PNM4QehpjEajXkPaOoNaTppao6aWiOE6yLiSXtZuGQAAAAB0UYirwMrKKyq/+/6nbdt/Li0rd3dzXfTM05MnjhfZ2d3mYUV2duPHjra1Ea78eG16RuaOP3ar1Zpn5z/l7SVrl2YDwC1j+CJBwChNVqK+Iou0SoNWSQyHOFxiWCLEVT2SkQx6MujJqDf9zNpJeH5RxBVYt1kAAAAA0GUhrgJrqqyq+nbbD99+92N1dbVM5vniwmfuGRdjY9M+lXeFQuHI4dEikd3yt95Lz8j8M36vTq9f9Mw8H2+vdjk+ANwy1s5FEBijL7+myT9vVFWTUU86vbUbBZ2BETrw3IK5Hn0ZISbBAAAAAIAmIa4Cq5ErFJu3bNuwcbNOp/f2ki1d/Ny4mNFCQXt+2c7n8wYPili9csXSV167ci195649er3+xUXPoI8VgJUxDCO050r7c9366OuqjRqFUSU3apVERmu3DDoCywjsWKE9wxexQnvi8Ihhrd0kAAAAAOjSEFeBdSiVyi+/+ubT9RsZhvH39Vn83PxxMWMEAn67n4hl2bDQkA9WvPHa2+9duJS6c9celmUWP7cAiRWA9TEs8Ww4vPbpUAkAAAAAPYmrqwuXyyUiRW2FtdtyZ6mrq9HrdUQkk0mt2Ax8vQlWUF1d8+n6Lz9dv5HD4fQOCnz+ufnjxnZIVmXCMExYaJ/XXnlp8KCBfB5vxx+7P167LjMr22hEPw4AAAAAAICuKLCXv62tLREVFlyzdlvuLOXl+TqdhmXZfnf1tWIzEFdBZysqLvnks/XrN37N4XBCegc9+/Tce+4eK+B3VFZlwrJseN+wFxY+M3RIpEAg+P3P3R+t/SwjK7tDTwoAAAAAAAC3xsPdTerpzjBMWVm2RlNn7ebcKbRaTWVlgU6ndXN18fP1tmJLEFdBp8rOyf10/Zff/fATwzBhfUKem//UhLvH8ridMSiVw+EM7B++cMF/RkQNFQqFu+P3rfzok9S0K51wagAAAAAAAGir0D59uFyOSlWbmXnO2m25UxQXX6uuLiEy9g+/y7ot4bzxxhvWbQHcOdIzMjds/Pr3Xbs1Gk1437AXFz0zZtQIlu28zJRhGA93dz9f35KS0tz8gqvXMvLyC/x8fDw83DutDQAAAABdjVGrJK2KjEQ6IgNj7eZ0SRwiLjEMw/BtGZ7Q2q0BuFMYDYZDR47VKpWquhpPaW87O0drt6iHq64uOXHit8zMcwI+98nHHgntE9wRZ6mt0xCRnU0L06whroJOcvVa+vqNm+P37Vcq6wb0C1/28ovDhkQyTGffDzEM4+7mGhjYq7i4JCs7Jyc3Lycv30smlUk9O7klAAAAAF0E4qqWIa4CsAZXF0lFZeXZ88nV1SVkNAYGDe78R8g7h9FouJCccOz4L3V18vHjYp54bJatTYfMiYS4CrqQa+kZ6774at/+A7VK5eCIga+9snRAP2t2LHSRSPqG9ikqKr6anlFUXJyTmyeTSr2sOusBAAAAgLUgrmoZ4ioAa+DxeL2DAs6ev5BfUCCXl4tEzh4eAdZuVI+Vm3Px4D9bysvzgoMClzz/rL+fbweFg4iroKvIzsn9eO26fQkH61SqqKGDX/3vkrA+IVYPxR0dHYZERhQUFV9Ou1pUXJKVnePtJUNiBQAAAHcgxFUtQ1wFYCUikchFIvk74WBtbU1ubgrDMO7uvbhcnrXb1aPo9borV47v/GN1aWkWn8+f83jcmFEj+PyO+kNGXAVdQklp6RvvvL//4CGtVhs1dPCyl1/sE9zb6lmVia2t7fCoIQWFhalpV4qKS66lZwT08pd6YlQgAAAA3FkQV7UMcRWA9Ug9Pe3FoqRTZxS11RkZZ1UquVTaWyCwtXa7egi9XnfixK+/7/hQoajg83gPPTAj7qEHHB0dOu6MiKvA+qqqql94+dWDhxMZhokaOvj/lj4fGmL9flXmBAJB5KCBZeXlV69lFBQWpV6+EhoS7O7m2qUaCQAAANChEFe1DHEVgPVwuZyQkN4yqeel1DS5vCYvL7WkJMtZ4mVra8+yHDy73Rqj0Wgw6KqqivfEf3bo0HcGg97ZyemJR2fNm/u4i4ukQ0+NuAqsyWg0FhQWPb/k/46eOMnn8aKGDVmy6Jm7wsKs3S4LbG1s7goLrZHLM7Oz8wsKL1xKCQ4Kcndz7cwpCwEAAACsCHFVyxBXAVgVl8sN8Pfz9pJl5+RWVlWXluakphyuqS53cHDlcvlcLg+hVesZjUaNRlVZWXDi+O+7dq3JyjrPsqy3l2zOE48+NivW0aED+1WZIK4Cq9Hr9SmX05a98c7JU6f5PF7UsMHPPzO/X3hfa7erSWKxqHdQoFyhyMrJzS8oPH/hUoC/n9TTA4kVAAAA3AkQV7UMcRWAtXG5XD8fb18f74qKyurqGoWiJi8/NS3tuEpVIxSKeDw+l8NHaNU8o9GoVivLynOSk/cnJHx16dJBlUphZ2cbGhI8d/ajM6ZPsbPtjCGWiKvAOrRaXdLps6tWrz195hzLsqNGRD//7NPhd3XFflXmHBzsAwN61SmVWdm5BYVF55IveHq4e3nJuFyutZsGAAAA0LEQV7UMcRVAF8DhcHx9vPuG9nF2clKrNVXVVQpFVV5eam7uJYWiUqfTEBn5fFsOh2PtlnY5RqOhsrKwIP9ySsrhY8d+Tk7eX11dwufxgnsHTp086cnHHokZPbLTHn5bGVcxRqOxU9oDdwS1Wp147OT6TZvPJ1/UarX3jItZ9My8kODe1m5Xa+Xk5n29ZdtPv/5eq1T6+frMf+rJyRPG29raWLtdAAAAAB1IX1tmVFYaDUQqIh3iKkt4RhISwzCsyIW1cbR2awDudFqtLjUt7cA/R/45nHjhUoper2dZjoO9q5t7L1+fvlJpbzd3fwcHN2s3s0uora0sKckuLkrPzDpXXJxZUVGg12tZlg3o5TcialjM6JERA/oLBPzObFJJhZyI3JzFzW+GuArajUqlOng48cuvvr2YkqLV6qZMnrjomXn+fr7WblfbFBQWfb1l2zfffa/T6X29vR5/dNb9U+8Vi0TWbhcAAABAR0Fc1TLEVQBdj1JZl5qWtv/AoaPHT15NT6+rUxERn2/r5Oju5Czt1WugVBrk4uIjFnds4fCuqa5OXlaWU1iYnpl5tqwsp7KisE4lJyIej+fr4z00clDM6BH9wvs6OVrhgtbKuAoDnaDd6HT6nNy87NxcrVY3c/qU5+b/x9tLZu1GtZnU0+OpJx/n8fmff7GpqKQ07cpVrVZr7UYBAAAAAADATWxtbSIG9A/s1WvyxPGpaVePHjt+8tSZouKS4pLM4pLMnJyLIpGTWCxxdw/w9AyUyUIkEi8ul2ftVncgo9FQVVWSl5dSVHStsDC9urpYoaiqra00Gg1E5GAvHhwZMXRwZP/wvt4ymZOTYxcfNYneVdBuDAZDaVnZlu+3G/SGWQ/O9JJJO+5cRqOxQ6voyRWK7374Ke3qteefedpLJu3if40BAAAAbgd6V7UMvasAujaNViuXKwqLik6cPP3P4SPHTp7S6/VERMRwuXw+XygQ2Do7y7y9Q3v5D/Tz78fh9Jy+OwaDriD/anrmmZzsCyUlWWq1UqtVabVqU0pFRP3C+44aHjUiOsrHSyYWi4RCKxfgw2BAsA6VWs0wjIDfgWNfKysrL1686OPj4+vbgSMNtVqtVqeztUHhKgAAAOjhEFe1DHEVQHdgNBp1Op1Op0tNu/LXvoSz55JTLqcp6+pMaxmGYVgOh+VwuXx//wGurr6urj5urn4uLt4CoZ11W94mep22rCy3pDS7rDSrtCwnO/tibW2VwaA3GHT1CY9QIPD3840Y0G/M6JGREQP4PD6Px+0iMyciroIe6+rVq19//XVMTMzYsWOt3RYAAACAbg9xVcsQVwF0T+UVFUmnzp4+d+70mfNZ2Tl1KpXBYNDpdA2SEAcHN1dXH1dXPzc3X1cXP4lEJhDaMQxD1/9lmX+ZUq92b6fRaCQymiMymF5otarKiqLSsuySkqzS0uzS0uyKinzz9jMMw+FwWJblcbkyqWdERP+I/v0iIwbKpJ4sy7Z7U28faldBz2QwGAoLCw8fPuzr6ztq1KhOm2sTAAAAAAAAuheJs/OE8WMnjB9LRIVFxRcuppxLvnD+wsWi4mKVSq1Wa9RqtVqjqa4uqa4uuXbtlGkvhmGFNiKxyFkkchaJncUiZ5FIYqqEZWfnyOcLWZbLMCzD0L/plSnCYq7/U/8jEZHx+j83MinTyxtL9HqdTquuVVbL5RW1igq5okKhqJArKmoVFXJ5uVIpNxh05m+KZVkbG6GALxAI+AKBwNVFEtonpN9dfQf0D/fz8e68P9wOhkd96GZqa2tPnz5dW1ublpZWUFDg4+Nj7RYBAAAAAABAV+fp4e7p4T5+3BgiKq+oyM7Jzc7Jy87JzcnNLSktk8sVilpFba1Srqitq6urU9bUKWtKSrIaHIRhGIHAzs7OkccTclgOy3IYDofDcBiWw7IclsNhGZbDchmWZVkOERmMeqPeYDDqDQbT/wymUXsGvd5oNOgNep1OU1tbpVIpDAZ9Uy3n8/likZ2dnZ1IZCeyE0mcnXx9vH19vX29vX19vF1dJD2yG0cPfEvQs8nl8pMnTxLRlStXcnNzEVcBAAAAAABAm0icnSXOzgP79zP9KFcoCguLCwoLCwqLCgqLSkpLVSq1WqNRqVSmHlgqlar+R5VaVVlZYDAY2qUlDMPw+Xyx2E4oEAoEfKFQIOALhEKBien/nZ2dZJ4eUk8Pqaen1NPDyemOGJKMuAq6E6PRmJOTk56eTkRFRUXXrl2LiIiw+rwGAAAAAAAA0H2JRSJxkKh3UIDpR4PBoKyrUyqVSmVdXV2dsk6lrFPW1an+/bGurq5OrdHotDqdTqfV6bRaranEu/bfJTXVVRqN2mgkLofj6CzhcblcHpfHvY7P43F5PC6Hw+Vx+TyeUCi0tbGxs7O1sbGxtbGxtbGxsbGxsb3xmse7E6ObO/E9Q/el0+mOHz9umpHUYDBcunSpoqJCKpVau10AAAAAAADQQ7AsK7KzE9k1N12gXq/X6fR6vV5v0Ot0uuuvdTqdXq/T6/85cGD//r9VKtXgwcPunzGDy+FwuRwul8dhWQ6Xw+VyuRwuh8NyOJweOY6vXeDPBboTnU535MiR+h8vXbpUVlaGuAoAAAAAAACuizpiAAAgAElEQVQ6E4fD4XA4Ta1NS3UvLi6urKy89957A3v5d2bDeoyuOKkhQFNSUlJycnLqfywpKUlJSVGr1VZsEgAAAAAAAAC0L8RV0J0cPHjQNBLQxGAwnD17VqFQWLFJAAAAAAAAANC+EFdBt2EwGBISEhosPHv2rFwut0p7AAAAAAAAAKAjIK6CbuPUqVNFRUUNFpaXl585c0an01mlSQAAAAAAAADQ7hBXQbdx4MABi8uPHTuGuAoAAAAAAACgx0BcBd2DXC4/fvy4xVVnzpypqKjo5PYAAAAAAAAAQAdBXAXdw7lz50pKSiyuqqqqOnHiRCe3BwAAAAAAAAA6COIq6B6OHj2q1WqbWtu4BDsAAAAAAAAAdFOIq6AbKC8vP3/+vF6vb2qDc+fONa7CDgAAAAAAAADdEeIq6AYuXLhQXl7ezAZKpfLIkSOd1h4AAAAAAAAA6DiIq6AbOHv2rEKhaH4bjAcEAAAAAACArsBoNDZ4AW3FtXYDAFpQWlp68eJFlUrV/GbJycm5ubne3t6d0yoAAACAHohDxMGTFQDA7WIYpsELaCvEVdDVXbp0qaysrMXNdDpdYmLiQw891AlNAgAAAOhZWCJiWCKBtRvS9eHJEwCgUyCugi5Np9NdunSpoqKixS31ev3x48dnzJjB4/E6oWEAAAAAPQbLtzFohWRoclobMDGyXIZrY+1WAADcERBXQZdWWlqalZVlNBptbK7fGRiNRq1Wq9frWZbl8Xgse6P+Wl5eXlZWVlBQkJUaCwAAANAtMTwbjtjDoFNbuyFdHcsTMiweoAAAOgOuttClcTicmJiYfv361S9RKpWHDh1KTU2VSqUjR450d3evXyUUCrlcfKQBAAAA2o7DYznoog4AAF0Fnu2hS3Nzc5s4caL5ksrKypycnNTUVHd390mTJvXp08dabQMAAAAAAACAjsC2vAkAAAAAAAAAAEBnQVwFAAAAAAAAAABdCOIqAAAAAAAAAADoQhBXAQAAAAAAAABAF4K4CgAAAAAAAAAAuhDEVQAAAAAAAAAA0IUgrgIAAAAAAAAAgC4EcRUAAAAAAAAAQLsxGo0NXkBbIa4CAAAAAAAAAGg3DMM0eAFthbgKAAAAAAAAAAC6EMRVAAAAAAAAAADQhSCuAgAAAAAAAACALgRxFQAAAAAAAAAAdCGIqwAAAAAAAAAAoAtBXAUAAAAAAAAAAF0I4ioAAAAAAAAAAOhCEFcBAAAAAAAAAEAXgrgKAAAAAAAAAKDdGI3GBi+grRBXAQAAAAAAAAC0G4ZhGryAtkJcBQAAAP/P3r0HRF3l/x8/n7lzGRQGL4CaiImioqZYilmSGWnrZTVzzSyzjc1ai76Zu2tuv3LdXdc2y90s28y2zNLNldwsMrVS0RQVL4mOilg6CMIIMlzn+vtjFLkO12EGeT7+gs+c+XzeOPWBec057wMAAAB4EeIqAAAAAAAAeBHiKgAAAAAAAHgR4ioAAAAAAAB4EeIqAAAAAAAAeBHiKgAAAAAAAHgR4ioAAAAAAIAW43A4qn2BxiKuAgAAAAAAaDGSJFX7Ao1FXAUAAAAAAAAvQlwFAAAAAAAAL0JcBQAAAAAAAC9CXAUAAAAAANBiaLXefMRVAAAAAAAALYZW681HXAUAAAAAAAAvQlwFAAAAAAAAL0JcBQAAAAAAAC9CXAUAAAAAANBiaLXefMRVAAAAAAAALYZW681HXAUAAAAAAAAvQlwFAAAAAAAAL0JcBQAAAAAAAC9CXAUAAAAAAAAvQlwFAAAAAAAAL0JcBQAAAAAAAC9CXAUAAAAAAAAvQlwFAAAAAAAAL0JcBQAAAAAAAC9CXAUAAAAAAAAvQlwFAAAAAAAAL0JcBQAAAAAAAC9CXAUAAAAAAAAvQlwFAAAAAAAAL0JcBQAAAAAAAC9CXAUAAAAAAAAvQlwFAAAAAAAAL0JcBQAAAAAAAC9CXAUAAAAAAAAvQlwFAAAAAADQYhwOR7Uv0FjEVQAAAAAAAPAixFUAAAAAAADwIsRVAAAAAAAA8CLEVQAAAAAAAPAixFUAAAAAAADwIsRVAAAAAAAA8CLEVQAAAAAAAPAixFUAAAAAAADwIsRVAAAAAAAA8CLEVQAAAAAAAPAixFUAAAAAAADwIsRVAAAAAAAA8CLEVQAAAAAAAPAixFUAAAAAAADwIsRVAAAAAAAA8CLEVQAAAAAAAPAixFUAAAAAAADwIsRVAAAAAAAA8CLEVQAAAAAAAPAixFUAAAAAAADwIsRVAAAAAAAA8CLEVQAAAAAAAPAixFUAAAAAAADwIsRVAAAAAAAA8CLEVQAAAAAAAPAixFUAAAAAAADwIsRVAAAAAAAA8CLEVQAAAAAAAPAixFUAAAAAAADwIsRVAAAAAAAA8CLEVQAAAAAAAPAixFUAAAAAAADwIsRVAAAAAAAA8CLEVQAAAAAAAPAixFUAAAAAAADwIsRVAAAAAAAA8CLEVQAAAAAAAPAixFUAAAAAAADwIsRVAAAAAAAA8CLEVQAAAAAAAPAixFUAAAAAAADwIsRVAAAAAAAA8CLEVQAAAAAAAPAixFUAAAAAAADwIsRVAAAAAAAA8CLEVQAAAAAAAPAixFUAAAAAAADwIsRVAAAAAAAA8CLEVQAAAAAAAPAixFUAAAAAAADwIgpPFwAAAADASzkcdnvhJXux0dOF3LxkcnmHUJlPoKfrAADvQlwFAAAAoHaOwktlhz5yWMo8XcjNS5LJdb00/SdJGq2nSwEAL0JcBQAAAKB2lkvHbfkXPF3FTc7hcNiuXlRo+nm6EADwIsRVAAAAAGrnsJYLIYTSR6YN8XQtNyOH3Z5/XhIOh83i6VIAwLsQVwEAAABwTZL5Bsq1XT1dxs3GknPS0yUAaAGbN28uK6uyaDo9Pb28vFwIcfTo0U8++aTyQyqVaty4cVot63/rQVwFAAAAAADQRF27dp0/f77dbq/50J49e/bs2VPxrSRJiYmJSqWyFatrq2SeLgAAAAAAAKCtGjx4cGhoaENG6nS6qKgojUbj7pJuAsRVAAAAAAAATaRQKEaOHNmQkf379w8ODnZ3PTcH4ioAAAAAAIAmksvlo0aNksvl9Q4bOHBgp06dWqeqto64CgAAAAAAoIlkMlmvXr3Cw8NdD+vUqVPv3r1ZCdhAxFUAAAAAAABN5+fnd9ttt7ke07t3727durVOPTcB4ioAAAAAAICm8/f3j4mJcbEeUCaT9enTJywsrDWratOIqwAAAAAAAJpOJpOFhYX16dOnrgFdunS59dZbVSpVa1bVphFXAQAAAAAANEtwcHD//v0lSar5kCRJ3bp16927d+tX1XYRVwEAAAAAADRLYGBgv379lEplzYfkcnmPHj169OjR+lW1XcRVAAAAAAAAzSKTyXr27NmrV6+aD+l0ukGDBikUitavqu0irgIAAAAAAGiusLCwWlf86XS6qKio1q+nTSOuAgAAAAAAaK6goKA+ffr4+/tXPqhUKnv16tWtWzdPVdVGEVcBAAAAAAA0l1wu79OnT2hoaOWDfn5+Q4cOrbWnFVwgrgIAAAAAAGgBERERYWFhlY/4+/sPHTrUU/W0XcRVAAAAAAAALSAwMDAqKkqr1Tq/lcvl/fv3DwkJ8WxVXkWShBDC7nC4HkZcBQAAAAAA0AIkSerfv79Op3N+K5fLR44cKZORvdwgl8uFEFar3fUw/skAAAAAAABaRr9+/Tp16uT8WqVSjRgxwrP1eBulQi6EsNpsrocRVwEAAAAAALSMgICA8PBwtVothLj11lsrZlrBSSmXCSHMFuIqAAAAAACA1jJmzJgOHToIIR588EFP1+J1VCqFEMJssVptrtYDElcBAAAAAAC0mKioqK5duwYGBg4fPtzTtXgdmST5aFRCiNJyi4thitaqBwAAAAAA4Obn7+8/bNiwHj16BAYGeroWb+SjVpSWmUvLzGqlQqWU1zqGuAoAAAAAAKAljRw5srS01NNVeCmFXO7royopNReVlgcpfWsf08o1AQAAAAAA3Nz69evncDg8XYX38vdRmy02q9VWWFQW4K+pOYDeVQAAAAAAAC1Jo9H4+Ph4ugqvFuCnliRRZrYUFpXVfJTZVQAAAAAAwEvZTCVlGdkOq80tZ5dJqq6Bqi6BQl7/bB5rflH5+csOm1sqkeRyVTedQqeVZPVVYrdbcgvLDUZhd7WzXnMqUffsrAj0d8fJK1PI5R21vgWmkjKzxVpo9/dRV+5jRVwFAAAAAAC8jsNqy/j1Pwp3nXD3hdThnXv/a746vIuLSvRT/1Ly40/ursSnf48+6/5PHlB7OychhCXn6pnZfy87e8ndlfgP633rxy9Iitr7oLcUpUIeGOBbWFxutdoKTCU+GpWPWqmQywRxFQCglZnNZlNRkaergIfJJJmvn69apfJ0IQAAwHuZdqcXHTjTChcqz7x85fMfuj79gFTHLnUFyYdaIasSQpSe+Lkg+ZBu+p11Dcjf8kMrZFVCiKKDZwu/Pdbh3iHuvpBCLg8K8C0qLS8pNTu3C1QpFSqlnLgKANB6TEVFX3z59YGDhz1dCDxMrVbH3jF83NgxarXa07UAAAAvZc696nDPerdarpVdIOrujG6+lN86ZQghzIYrrh5t1UqMrXYtfx+1RqUoLbeWlpnNFqvZYiWuAgC0nkOHjyz562tlZbU0U0R782N6eq/wnv2j+nq6EAAA4K2q5keSQi7zU8tUypY4sd1eVG4vM1c96JAaWIlSLvf3aZGFcg6bzVZU5jBbbxxxndBVq0StkPv71N/uqiGVWG22olKH5UZnLru9VXc2VMjlWl+5n4/KbLZabHbiKgBA67lw0WC32eQy2bChbp9XDK9ltdkOHT5SXFySlZ1NXAUAABpIodMGTojx6RvW/FPZi8uv/O9A8eGMpj1dFaoL/EWMuken5ldiyS288vkPZaezmvZ0n96hgQ/EKHTa5ldS/lPulS37zRfymn+q5pBJkkat1NC7CgDQ+uRyedxdo0fcHuPpQuAZW7/+5tDhI56uAgAAtDHyAN+AUVEBdw1o/qmsV4qKj2ZWiavqXgkohBBVH1TqtB3jBvkOCm9+JWXnsk37TlWOqxyuK6lKGRIYGD9U1RLBWXHaOdOedI/HVRWIqwAAHqDRqAf07+fpKuAZX379jadLAAAAgFdrgfWNAAA0Vquug4eX4dUHAACAa8RVAAAPkESdjSxx0+PVBwAAgGvEVQAAAAAAAPAixFUAAA9wsCCsHePVBwAAgGvEVQAAD2AxWHvGqw8AAADXiKsAAB7A7Jr2jFcfAAAArhFXAQA8gPk17RmvPgAAAFxTeLoAoNGCgoJGjx4dHBzs6UIAAAAAAEDLI65CG6PVah988EHn10FBQZ4tBgAAAAAAtDjiKrQxCoWie/funq4CQHPRvag949UHAACAa/SuAgB4gET/onaMVx8AAACuEVcBAAAAAADAixBXAQA8wMGCsHaMVx8AAACuEVcBADyA5WDtmSTx6gMAAMAV4ioAgEcwv6Ydc/DqAwAAwBXiKgAAAAAAAHgR4ioAAAAAAAB4EYWnCwAAtEcsBmvPePUBAECDVO13aTeVmvadsuYXNf/EtqIy84W8xlRS5TvLFdPV746XZeY0vxLL5QLL5atNf3p2QcG2NEVwQPMrKf/pcov827YU4ioAgAfQar0949UHAAANUrXfpSX3at6nuySlvCXOLGzF5Y0ppEol5ovGyx/skBQtsF7NYXPYS8qa/PTS04bst78Ushb448phtdtLGvFv4m7EVQAAoHWRVgEAgMZz2Ow2U6lHLl3twzaH1WYrLPFIJdU4zFar2erpKtyCuAoAALQuVgMC7du6L3av+2L3Gwsf6xse6jxSUlZeWmZ28RSFXB7g7yNJLZl2W222fUfPDOnb099X04KnBdCClJ0CZEqFrRXiGElSduko6r7JqLp2lGQyh93u9kJkMlWozsUARdeOQpJaY59lmaQOCXT7VepGXAUA8AAHiUU7xqsPoJr/bj+wasM2FwOGRvValjjTV6N2fmsqKVv3v12FxY2bZKFWKR+6b0RIp2vvvjZ+/cOqDV/fPvDWV+Y96EysUn/MWPb+5w051cLHJ8UMiGjU1QE0gTY2KuDugcVpGY5yq/v+fpAUcnWPTkG/GC5T1ZmQdBg3JOCuAyWnLgqLzeG2qEhSKjS9QwLvH+pijG7yiMLvfyz/KddhcVeKJ0mSpFL4RPXoMGaQmy7REMRVAAAPYDVYe8arD6AmH7VqzuS7QztX/yTfYrF99MXuagfNZsvOAycMl6806hIBfj7xsYMr4qqJdw/df/zMvqOnX/9o6wuPPlCRhblWWm7OLywut1gadWkATSNTK8NXPlmcds58Mc9hc8/MJklSBGn9BoXLA3xcVeKjjnj3t0WHzpov5Qv3zLGSZDJF5w5+g8NlGpWLYcouHXu//2xxWoYlt1DY3RKcSXKZMiTI/7aIFmmJ1WTEVQAAD2B2TXvGqw+gJqVCPqx/RMXywAolZeVf7Dpc7aCuo/Y/f09s5hX9fTVLfztj0T8+Td5zRK1U/N+jD8QMiPjs9eddP2tP2qkXX/+4mZcG0Ch+Q3r5Denl6SqEkEn+Mbd6ugghhJBpVNoR/TxdhdsRVwEAPID5Ne0Zrz7QPmVcyFmyelNRSVlRaVlRadnCNz5WyuX+vprFCVOFEBVHqj9NEsYC04DePdxRkr+v5vdzJ7/w949kMpnN5lC0xG5jAIAWQVwFAAAAwMPkMln/Xt06aH2rHbfa7PuPn3HfdbsGd/zH7x/v4O9bVFq2//gZq83mYnCvbl3cVwkAoDLiKgCAB7AcrD3j1Qfap4juXT740zxxfWfAZc89XLH0b9/R0z5q1eyJd9W6GHDhivVuLSwwwE8IkXU5/8//2uy6ffu8h8b1DOvk1mIAAE7EVQAAD5BYENaO8eoDqMlitR08kZGVW717usViyy8sdiZKLchUUmY2X2uXrlIptb6a0M6Bf/j1lHpnV13MMbZsJQCAWhFXAQCA1kVaBUAIIURJWfmPZy8MjuwphCgtN6/asK2ukUOjrnVZPpWZ9dyyD1zPgXItwM/njYWP/Wfbvq/2HHEeuX/U4MUJUwP8fEYPrb91MXEVALQO4ioAgAc4WBDWjjkcvPpAe2ex2v6zbd++Y2eCO2j/8fs5fj7q3t27PvfI+FtCgquNLDNb3vrka5VSIUmSEKKDv0/8qMHl1ydG1ZSdV7D/+NmoXmG33hJS6wC1StnB32fq2Ntjh0RmXc5fm/RdC/5cANzBYbUJu8NNfz9IkiQkSVLIhFTP52kOh0PY7O6tRCZJ8vorEQ6Hw2oTDnf9TXWtEk9vP0FcBQAAAKCVlJSVZxsLSsvNX+050qtb5yemxmn9fKbcM3zKPcPresqfn/1VxdchnQKfmzXexfn3pJ3af/zs3TH9Zz1wp4thIZ0CoyK6ncrMWvfF7srHl6zeVDHrqjLnDCwXJwTgDg67vTT9QvHhjPKfLjssrtbqNp1MUnbu4Duwp/9tETI/TZ2V2OzFR86VHD1vvpjnsLqnErlMFRLoN7iX35AISVlnVGQvtxQdPlt69Lwlp8Bhs7ujEEkhV3UL9rutl290T0kmc8clGoK4CgDgAXQvas+kej8zBHAzumoq+fB/uz7/NrWkzOyjVr3w2C/uGzlo71H9qEf/2MAzDI3qtSxxpq9GXXHk9E+XSkrLB0XeUteNxW53HPjxbK9unTsHdWjgVfx81KNu66tRKZ3funtrQgAumA1XMp74hyX3qrsvJCnl4W882XHcECGr/WZSnplzZtbfHWaruyuRqZV9Niz0HXhLXQNKjp7PeOxNd0VmlSvxVff78mV1d4/tL0FcBfcqT0sr+/47/4cekodU3+elIRzl5fbCQtvly7bLOTbDRVtBgd8vJiluqfN/XQBtB8vB2jEWAwLtUvq5ixu+3hsSHBjZMyDjQk54WGeZTOoc1GHSmGHVRp756dKZn7NjB0d20PpWPt69a7BCfmPGQUlZ+T/WJ6dnXFw6f8Yd0bfWetGv9x5d+q//Do3qtfS3M/x965w3UVlHrd8zM+7TddRWXMXdWxMCqEtxWoa1sKQVLuSw2IoOnA4YM1CmVtY6wPTDqVbIqoQQ9nKLad9JF3FV4ffHWyGrEkLYS8qLftATV+HmZD52tPjT9Q6r1fTxxwEJv5FptRUPOcrKyo+kCbNZCGHLy7MZrzetNJfbcnOFw+Ewmx1mcy3nPH6sIq6ynD1b9Ol6YamzeUGjKZX+M2Yqe/dusRMCAHCzMGWknBLRg3pqVQ3oZWEuMJpsQgih8tFVDRwaw2Y2C1VDLoc2Iaxz0J/n/2rk4D6ffrU340KO82CfW0IWPj4p/dzF/313aMo9w/vcEiKEWPfF7os5V2ZPvKtvuKvPO3cfOpV2KjNu+IBh/XvVNSZu+IDvD6bvOnRy887UWRNGMbsTaFvspeZW+5TLVlzmqpLi8tYpQwjhOqGzl7RiJaam72vRfMRVcCPVwGj17XeU7U2xXcoq3Zbs98tpFU3j7CZT6Vdf2ouKGn42SaWSVCpbfr6w2YTzgzWrxVFcXGuq1TSSSiWsLRd+AQBw8zCnvD1/0bdCO2Ptdwui6xl7ft1j01fobUII3awPtiUObNIFC1JWPPnCuqLxy9cvjuvYpDPAy/QICe5Ro5O60+H0zG8PnJg0JqbhZ7uUm7/28++COvg/NumuylOuqlGrFM/NGn8h2/j+5p3dugSNienf6LoBeA25v0bTO0ShC2j+qRwWa9npLHN2fsWResLsqg/LO/j59AmVBzT5A5kb7CXmUv1F6xVT056uCA7w7RMm+aiaX4ntaknpaYOtVaazNQRxFdxJknzuHWc5d852Kats/35511BNbGz1ISqVpFJJ2gBZh2sNBWRaf0VomBBC0moV3boLIWQBAZJaLeom1wXLOjVrjqI9N9dmzGvOGQA0CovB2jNe/bbp1NGDQggRO6y+rMqUsuhJZ1YlhDCu+9u6yR/MCm/0DClTytsr1mWYhUhaML1s5aalsdr6n4M2yuFwZFzM8ffTBHXwqzhYWFz6+B/frjyscuMqm92+buueiznGp2fc16tbF9fn7xrc8blZ419csW7FR1tvCQmud7zd4TBevfGRamm52WxpjRVAAOql0AUEz7jLf3jti38bxXq1OHvVl5XjKtd/n1Tbg0/dTdf5sbE+/bo1v5LyC3nZ//iiqKlxlU+fsC7zxqtCg5pfSWn6hUv//KKUuArthEyr9b1/fNHHHznKy0u3f6PsFV6tiZU6Jsbvl9OaeRVl38hmnqT4v5/ZUoirgNbTplut22y2I0eO5OfnR0REhIeHN3+MEKJ///4hIbXvue7kcDiOHTuWm5urUChuu+22gIAW+FzRU9r0q99+XTh21CSEiIlxnVbZMtfNm59sFEIeOe/P9+z4wyp9+oqEV8I3vdrYuEkb+/vPtg1Z8KtFO43G5Pnz+n3WlMwLbUOBqeTMT5c0KqVSceO9iVIhr9a7qnLjqr1HTn+5+/DQqF6/uGtoQy4xrH+vx6fEvb1h25sff1VXEyvH9b3pL+XmP/bSqmqPduvSAm8F0Vxms1C1wBSStoeV0ddJKoWycwf1LZ2bfyr5lSJ53fsA1nLpqn+9yNRKVUhgi1TisNklTe0NsxpC5qtSh+lUPVqgw5T1SlFdrbs8grgKbqeKilIPiynbm2IvvFq8ZYt27hOSgv/wgPbO0ZZn2JSXl//rX/9KTU2dP39+XVFUo8YIIeLj41999VV53etZLl68+Ic//CE7OzsgIGDVqlVtOq5qqVc/Pz9/37599957r1LpRX9a3azMJ47qhRCRo2J0dQ+yZSYlJqxIF0Lo4l9bPXe0Nj5nx8TX9cat8xN6f7Z+du3/I7igi1+++vLMaW/qRfqKhL+Ef/FSbLt8n3rzO3ji3PmsXLvd8Y9Pkl949AHn/Ckftaqu3lXZeQXvbPzGV6NJePDeBnZPlyRpSlzMwRMZqT9m1NrE6srVotc//MK5GjEwwD/hwXuqnbmrzquXpBYWFh46dGjIkCEdO3p1nS6ZUt5+r/yXiXF1zH4zbF0w55WjMa9tWjq6Mel3wbFVf9rQa8HS+Hom1dVn16KhicnxKw4tHe38PmXR0PnJE1YeerX62pHqzCajqXGtS1Ranbbaze6HZSPmJ0U+25QbaWWm40mpvuPjIriVom0gNYD7XV8S6Cgu0tx5J1kVANR04MCB8+fPR0RE1DXgyy+/zM7Obs2SvJDNZrPZbFevXj18+PCOHTv279+vVCrvvvtu4iq3Maa8t2pnthBC5KbtFEKIkj3v/ymz8oiBDy6eHCmEuJZVLUkxCqGLW/qJ8/1k2MOrV+qnzt9q1L85c458/dqHG/1GK3z26pVnp87fajRufmXZmC8WE1jddIpKypJ2Hgjq4D/xrqEff7nHWGBaOGeSi/FWm+3fW77/6VLuU9PH9astzMrLr31Bjb+v5ukZ9yX+7cNv9h4be/uAkE6BFQ8dSs+c9Yd/mopKH7hraEetX8+wTnfe1jcwwL+ZP5pb2e12q9VaXFx87NixnTt37tu3z2KxvPvuu203rjKlvPHKe0nGtSnTV6xdWNt0zLBhsb3EzuQXEvptXD+rZwPPatZvfS/p2xTjMbP4aHlzE6t6L5aj3/P1l3nDEqdHVTr6w1/HJSY36jyVQrFr9GmpQoSNGtasrEoUJC+auyRFbEy88Q+oT/rTxuP1PS90zLy5sS4+qQDcheAArUGm1WoffUzy8ZH5e/UvfgCthuVglYWFhRkMhu3bt9cVV125cmXHjh1BQUF+fn5Xr15t5fJaXGN35jKbzcXFxSaT6cSJEykpKYcOHbp8+bLzocDAQNfPRfOUZe5MStJXOnAhNelCapURoxdPjhTCdGzVvDlr0oUQqujnVy+Pr3hjo419efXigoQlKcZjr0+blrVy7fOx2jSqf5sAACAASURBVMatZ9HGvvza9B/mbDQak15ZMemrhdEsh2njHA6Hqbi04uvPvz149PRPj0686/EpcWGdg/7+4RcPLXhDo1ba7Y6zP1/qFHgjtvg521hWbh7SL3zUbX1Lysqn3BPjvJlczDH+eOaCSqUQQpiKy9Z9sVsIUeusqz63hKx5JSEwwF+tuvYm6Kes3KLSssLi0ltCgpc8Pf22fuF3RLvqieNwOC7lFrTQv0RTWCyW4uLioqIivV6/d+/eAwcOZGVlOR9q07NuhRDa2MWbXhNTFyZtnD/V8NLqlVNqRDNdJi9flvqLF5JXPLkieltifV30nFSRD6/cFLpo6gvJixLXRH40t2Frig0b5z+1LrPqsZLc2seWmDLTv/rq06+SDh4zmoQQQjtx+OSXqyfrNROo2u1aNLSWbEu/42uD0E4fFVXLM1xHTlWSpo7xS1/bPTUxecX0meJaYpWXujmp3iwtssfjc+ubQwa4A3EVWom8jlbo5amp5qNHG3gS9e13+I6f4HqM1WAo/eZrR30dMSWlwufe+xRhYQ28NAC4z4gRIz7//PMdO3Y8+OCDQUG1tEdJTU3NzMwcOHBgu5pgZTabr1y5YjQaz5w5c/jw4bS0tIp3ZWgtnWKfXR5qEiJvxxvLkw0ietayRwZVHREWKcwZG194almKUQihi635JlMePnnFapGYsCTFmPnp/HGp05f+Y2Fdi31qJ49e+OfpXyVsNBk3/vXjWetn87u7rUr9MeOFv39ksdqEEKGdAwP8fb7ac+S9/+6I6NZl2r23y2TS/XcOGdq/1/ubv9v+w7HScvOf30uqdoa44f2HD+wdOzgydnBkxUGrzf7Whm3GghuTqsLDOteVOnUNvjH5yGa3HzvzsxDi/lGDn5/9gJ9P7Rv7nMrMem7ZB4XFN3Zz9/NRd/T3q3Wwm1gsloKCgry8vIyMjLS0tMOHD//888+tWUDr0I5ZvGmNLmHumpQ/zVnSedvCaFP1VXTRTzwRayx/fHqY0Wis+kgtC+hunHbp6mczp725KuH1mG31bmwqhBCasOiYmGotibJSDfsN1Qcmzx+6VQghVB3DB8XOfWL8PfdEh9dax/FPlyzZ1YArZ9WWO+l3JGcJITbOGbqx+kMTVh56VbiInKolTdrRzn8K/YonFwRXTDeLTNyyflbtN9ba4zOglRBXwcMcZrPD3NDl3I6y0vrHmAoten2955RUKs0dI4TgT17AU9pw76oWFx0dfebMmePHj6empt53333VHi0pKdm8ebNcLp80adL7779fWlr/ndDbOVy9+larNScnx2AwZGRkpKennzhxwmAwWK1sy+URqvDb48KFMCd/tUAIMWzS7LFxVRaE2EzHPp7/wJspzveNqoi+nU6sW3KitjPp+oZrUzJNwpyxccEvdsTM+N3iZ+LCGr6wz1cbIIRJCP0/30iesjyeXQLbpi66Drf2CCkwFd8S2unRiaNDgjsaAgNuvSXkhUd/UbHyrnNQh9/NnfS7uZNMJWVms0UIcbWo9HzWtQmVUb26yWWyaqfVddSOHzW4Ik6K6tXtrmFRAf4+9dYjl8kSpo0de8fAwZG3uJj12UUXENGja05eQcXlHp4wqn/vFtgOrF4OhyM7O9tgMGRmZjrvhxcuXDA3+C/ntkg7cN4HnwSs+CF2Yawq5Y/j5m+tbVDKxOqd8OubvhT+8NLEb6at+PSvax5cP7f+hYS62CcWV59OtGtRUs24qvf0pc9Pj40Kv7ElwIV1M3+R1O+l1YvHVrlZ5upTUy/Ue93a53Ad27LRIIS2S1iAvDA3y2SWa3VdAq7NHuyoEsIshDO3qlryhXUzJ6+oebZrK6xPBOt8az4IeBfiKriFvbCw5H+f20tuvKeqazaTsndvVf8Brs9mKygo35visFiErBELABRhYZK2lknRDlOh1VDjlw0AeI5Wq42Pjz969OjWrVvvvvtutbrKJ/xHjhw5cuRIVFRUdHTDlj60WVlZWWfPns3IyNDr9WfPns3KyiovL/d0URBCiNS9O4UQkbFV2qybLyS9krAkOUcIIYQuduGLg5IWrkrKqPssE5ZvGbZjzp+SjTZj6scLJm6f/k7SwpiGJVb675Ov/ea27Vz1b338M5Gux8M79QgJfu+VhMpHYgZExAyofRG01lcjfDVCCF1Hba9urvbe0vpqnnpoXNNKCvD3GdK3nvQiMMD/rT883rTzN1lOTk5GRsbZs2dPnTqVkZFx8eLFsrKyVq7BU1QRsxZGCCFE3xnLl1dLoE58tODDY2LwrOW/qjbRU4S5vivIw++fFL0i/diqvyRNXj25oX2YbGZTgeFUWmrqD6mp3+6pZUDvUfHV+kmdPak3ZYbLq18h7uUtTVwMWJKyYatJdJ+7OmlepLO/e+8n1laZDJXSoJ/lBm3sy1/sY59BtAXEVXALR3m55fRpe1FRxZG6ZjOpBg3WjKxnMXTxfz9zWCySWq0aOLDhNajvGFHrmcv2plg3fdbw83ibnJycs2fPMtEAbVRu7uXrX9K7qorY2NiwsLADBw4cOnRo5MiRFcdtNtvWrVttNttDDz2k1d4sU0qqzmK4fPnygQMH9Hr9Tz/9ZDAYLl261PCUymq17t69W6NpxEbUaIg+ffqEhIRc/+7Ynl1CiLBRw8IMn81/6t/nez769sppYSqVxmwVQghdbOJrS2dFyzPDl4XX3uPaKXRQWFTcttvvWfbbRRsztNP/3NCsSghD6u4bnzMZPlyR9OA7kxuznPD06dOXLl1qxBNQSYg5r6una2g/8vLyDh06dPLkyZ9++unixYtZWVkNT6msVuuhQ4fa3KLp63cbU8qfEjb0XfratPCKG4MuKi6uWrcm1Q7x4TERNjxubGN7KZlTfzgmhBAH33jv4OSFw1wNNe1f8+rbn+sv5BoKKiayqbQ1Wthr5EL8kJSU0ffOiofKz214P1mIuDtvrz545ysTJzZkNlON2VXGL99LNonoZx5qyZBermryphU1b6eVZyY6asyerjZvsfIAFw8FBARERES09XZsaD7iKriHTCb5+TnnajusVofLX7S2S1mmdR/5xN2jHlrLrw5b9iXz8eNCCEW3bopbGroLyE3s5MmT77//fmFhoacLAZoiNKy78wsHiwGrCgsLmzBhwrvvvrt169bbb79dLr/2oef58+cPHDgQHh4eExNjt9s9W2SLcTiEEHa7/fjx40cPH9Tr9QaDwWg0NiGILykpeeutt2Q1FgehmebNm3cjrkrfk2ISQhs7KkqIg3mGLIN/iRBCiC7xy98V684OnD7WuaovPGZsA3at6hK3cOP3s86bwhr+K/3Ct1/qhRAibEK8bmvyMVvq+//RT27MBKvt27dv27at4eNR2UNxAyfQO8HN7Hb7iRMnvt2w49SpU877YRNW/JWVlX344YeqpgcRnnHtbpOVsmGXPmXztAd2LVz92vTwFv8hSvbs2CWEVqs1mTa+vfGJNdNdTLDSqvNSjxtEl+i4KTExd8TEDOkbptOqqs97ip31bPSXr+9cMn1ntaeHP/FEfI1kqu/E5x7pX/mAufD8ySzdoL7VPodyTh+rNMxgUodp4x4Z37yN+fRJS/5T0RUrNO6ppm/01zq308jIyDlz5hBXgbgKbiHX6Tq++Dvn12V7U4przGay5+c7LBYhScJuL9r0mS07u+iT9ZaMDL9fTpUUlf6zdDhKkpPthYWSQqEZOarKQ+1VSUmJwWAoKPDkrjRAkwXqgj1dgvcaO3bsZ599duDAgfPnzzu3CHQ4HJs2bbpy5cq0adOCgoLy8vI8XWPLcEaVDocjPz//wvlzp06dslgsTTuVzWYzsL7bDYoqzY82HNxjEEKMHhUtRPV/657xszqbarQ8FkIIIdfqOtZ8x3ltv60xL21JbHBcpf9iozOtip/xct/y5AXbheHD93Y+vjyuwY1X8vPzL1xoSNsY1MJU3NvTJbQL+fn5J06cOHHiRJNbU9nt9pycnJatqhVcu9uExq/cFLrquYQ1KcumTT66dO3S+EZtyFAf896vdtqEdsLSP+bNX7D9vfeOTF84uO7RAxO3HVhYfa1c5Ozly+6pvOQw/OG1+6aYjKVVX6+aLd/v+N22bc9XP6xfNXHhurIZ91Rv/T46Ztsss+pGhqWKnvPOltlCNHPhXk5q0uaKrC0y/NGmx1WtczsNDAy8uXu0oYF48w/PsBdedVgsklIpDw72nzHT9MFa26Ws8v0/WH/+WfvYHHnwtTe05qNHLSfThRDKPpHKAfW0uGonIiIiZs6ceTP0Wka7lHulYF/qUVF3R9v2rGfPnsOHD09OTt6+fbszrsrKytqzZ09QUNDYsWM9XV3Lk8vlsbGxd//uxTNnzmzatGn37t1NCOJ9fHymTp2qVCrdUWF7FhlZ8Z7MmJqiF0LE17H0xvBZwsQ39bWd4vpWUyUmY6lZ5aNztiI25xkMWSKv4U3JbKlJGwxCCNE9/p4oVeTjc8O2rzHYdr7xb33cUw2dYDVy5MgOHTo0+JKoYkAXmxCnPV3FTU4mk40YMWLExMczMzM3b978/fffG43GmuuqXFOr1ffff39gYKCbinSTG3cbbfS8d7/o9YdfLdqeultviu/SguvfjUmf7BQibPqE2Dj53LDtazauS543uO49G66vlTOfT91ztsoSZ8PxnYba9u5z0vYeFdOzUihV77Z6n84Z+mmdD95oHt/8JlOjlx46tFQIYfhw5sQ3m3Wm1rmddu3atVMd28qjXSGugmfYLl8WdrukUsl0wfLg4A7P/LZow6fm48dsl7IK//Gm7+RfqocMsV3KKv48yWG1yrRan/j7mVrlFBkZWeldBNDGfLR+A1lVXeRy+cSJE7/99tsdO3Y8+OCDQUFBKSkpBoNh8uTJPXvenEuh5XK5RqMZOHDgwIEDhRBpaWk7d+7ctWtXXl6e1WptyNpAjUaTkJDg68v+Rm5j3J18UAgRd6fLVi9CqwvTXu8gZis05Nx4g+fMsyKf3bJ+dlNWlJm/3bjRJIQQkb+cFCmEiHzo8WFrlhwUhg0fpjy6NLZhr/yYMWPGjBnThKtDCFH24+dmPXGV28nlcqVG069fv379+v3hD384fvz4zp07v/vuu8uXL1utVpvNVm96pVarZ8yYceutt7ZOwW4h18Uv2xSpN4dHaoVwdjo3VZlj4/yuvPqkzopAvHb6DeuOOCNvIcRDjw9bs+Tb11cdiXc1wUoIIUTurhULao3j6xD57Jb1PSvd6CJnL192T8OfXo1zJlfKH4dW3x5Rv2Li0Iot/+JXHhrf5Etck/XlG3/KrH3dXVb1cI7bKVoT7//hCQ6H9cIFIYSkDZD5+wkhJI1GO/vR0u3flG7/xl5UVPTJx5Yzp60//2QvvCrkcp97xtbcUhAAbj6DBw8eNmzYvn37UlNTY2Njk5OT/fz8Jk2aVNHK6uY2ZMiQIUOGPPPMM4cPH967d++RI0dyc3NNJlN5eXljZxmgpRh3JacKIYbFxrgMhiIfX3sjjbqwbubkFY14h+fy+kmfOPvCRE++z3l+3eRfT3/j4EaTKXnZv2dvafAEK6Btceb4zzzzTFpaWkpKSlpaWnZ2dlFRUVlZ2c1+P9SGV/xvnbUxodabyfZF47ZXOeAyEDcl/2uNQYiYR53dynWTn5q+au7GjW8nPdGwLQJvzHJyodaJVF0i47pECiHMBUaTrQFXuqbKwsHgIZMnV3xjOrlju97UM3bykIqZRwNboMmCSb9zcwvds4EWRVwFD7AXFNgu5wghFKGhks/1v38lyefecfKwsOINn9qLisr3/+A8qLljhGbUnZ4rFgBaj1qtnjBhwr59+7Zu3apUKtPT04cPH97eJlSq1eoRI0aMGDEiPz//xx9/PHz4cHp6enZ29pUrV0pKSjxdXbtTZioUQoiDS8YNXVJxUP/mxKFvCiFE5LNblrv18gffW3VECCG0E564sRXgsCfmDd647IgwrH0vedbyutfzAG2eXC4fNmzYsGHDTCbTjz/+mJaW9uOPP2ZnZxuNxsoN5m4qOfrU0vBrS+p8w++ZMrlf5UezUpP2G0T3mMnDqoRToRF17w97ZNXr3wqhmz5v4vVsavAT84ZtXHJwyV+T72mVO4hh47yJjYnw41ceWlqx+jpyyuLFU65/8+2ipO368AcSF8+pvK9FSnMLrFi7XVO96xkBdyKuggdYzpy2FxYKmUzZp0+1h1RR/aWZD5s+WOswm4UQkq+vKnpQ05YOFW/6rGaLdwDwcjExMeHh4UeOHDl//rzNZpswYYJarfZ0UZ4RGBh455133nnnnXl5eenp6enp6Xq9/uLFi9nZ2eRW3sZcaDQar79dNBa2UINcw7rXnQsBw6Y/HFupH4xu+m+nvzd3o9G286/LU+JejW1jG6GhYfaknfrT6v++sfCxvuGhlY8vWb3p2Omf31n8hK6jVghhLDD9Zsl7k8YMm/VALZ9ulpSVL1yxvnNQwOKEqQ2/dFFJmUatVHjTtFatVuvM8a9cuaLX69PT00+ePOm8H5pMpvqf33YYvn7lN2/qY1/+buVErdDFzn2pate8XYuS9htE9COLX6q9m151tsw1f9toFCLu+XnRN15P3eRn577/yJqdf/3rztilcfUFVsmJQ1sgsImYu/bth+pdLWL4JGHO2jof1Z84LoTIfHvBsoFrFw5rkaAt5nfbtj0v19Y5y8zZJ96nefsSAk1FXIXW5rBayw+mCrtd1rGjMqL6XjPm9BPFGz51XN8JwlFcbFrzL98HJmpGjqTfDYD2ICgoaMKECStXriwuLo6IiIiJifF0RZ4XHBw8evToO++88/LlyxkZGWfOnNHr9RkZGez11grCZq8/NPvGt4YPZ1ZrRGX4UAghMtfOGVf3W6ymMSW/4ZyPoJ2w8IlqUwyvTY4Qpq2vrPjltnob0AAVzBarqbhUCGGx2s5eyDZbrBarLT3jYpnZcuanS8arRcYCkxDiL8/OvPO2vp4uthZBQUHO3CovL+/cuXNnz549depURkbGzz//7OnSWoQx5Xu9EJHDh7TMpKfMDxet0gsRlfhctVlUUfP+NCNpzqfJf10+PubVWNcXi569/JH+9V3pxEcLPjzmaoAiQKfT1Zv6lAW4iN/1O7Y7d2fN3DgvIWzj+lnNbGtpM6WkZcUOixRCCFPKus3aSQ9Ha6+HesZvk84Nmxyj1dZfNOA2xFVobZYff7T+9JMQQnlrH1mlvUscZWUlW78o2/+DsNmEJKmH3CaEKE877DCbizdvsuVk+02eImSyhl/IN/5+1eAhNY+bj6SVJH/V7J8DAMTKlStXrlxZ7eD8+fMfffTRRo2pZuzYsZs2bTIYDNOmTQsKCmrBgts0SZK6dOnSpUuX4cOH5+bmGgyGc+fOZWRktJPGXl4uLH7hc2Oud1DJ2/HG8mRDM89o2vnXv+4UQgh5zHNP15w/pZv8+3kbp67SC+PG/7dq8qZ5kfxXcFM7lZn13LIPCotvbIv8i9/+rfKAVRu2rdqwzfn1355/eNSQOpOmAz+effH1j2t9SC6TBQdqu3XRRfYMKSopa4nC3Sg4ODg4OHjo0KFXrly5ePFiZmZmRkaGv7+/p+tqHuPunUeEiBw/pnsLnMy0a1HCP/VCHpm4pJaVbtFPvzz5m/lJW+cn9P5s/ezwWp5/XeiQuLh6e1epdgjXcVWV/uiu1VFM+o7kC0KMWbpt4u5fJSaveHJR+Kal9SRtLpiOrXouYU3p01vWR4bZMtfNm78iXezx3fbONJ0QwpS84IFFO8099e98sDCGBdfwHOIqtCq7yVSy7WuH1Sr5+WnuvH7jdzjKDx8q+eJ/9sJCIYSkUvmMu8/n7jFCCHmnTiXbvxE2W9neFFturvaR2VKDt3+S/PzktW2AKvn5tcwPAwDuERoaOmrUqD179sTGNmyxQzujUChCQkJCQkIGDRqUn5+vUrEUzPP8I2Pjxla0Ws96b3kzl86Ykl9ZkOzcEPCphTe6VlXWc+7vZmyY86lRXFiz4O17tjzTvlq8tTcd/H3iRw0uN1uEEIdPZl65WjTqtr4alVIIUWa27Dl86paQ4FtvCXEO7hzUwfXZfNSqOZPvHjk4soO/j/OI1s9HpWyTb4vkcnmnTp06deo0YMCAq1evduhQz8/u5cypKalChN0Z0/wtlkzHVyW8kGwUuvjXVtc+C8k3duHLk3fPT9K/mbCo56alo+tMZXa+MnFive8/SnLrGVBjMWDq38Yt2h63dNvvKk+irnsxoCn5/TUGIeLi43Sj41c/mzntzeT58/p99sGs8MaH9blp6+b/c0WKURf7+9hOwpTySsKKdKGbsHL5tGszqbTxf3xt79H5Wzf+Zl5Y0y4BtIg2eV9G21W6LdmWk+1soO7c7M96PrP48yTrhQvC4RBCyDt39p81u2IfQJ9x90labcmWzx1ms+W0/uqqt7SPzZEHu9oBQ9m3X9BflrkYoBkZqxnJO0AATefr6/vOO++4b4wkSS+++OKLL75Y7XhwcPDnn3/eqFJvbkqlsnPnzp6uoj0zmwpEC7WpqiLzw4RF3wohhOg+9+W6Zz1cmxxhFIa1v10U7erdJtq6kE6Bz80a7/za2bvqmRn3VfSu+vHMhbtj+lfuXXUpN3/D1/vKzRarzf7TpdzLV64ue/9zIUT3rsFddB2UCvmw/hG9ut1Udw+lUhns8i/ktsC8c/tOIcLi72pu+mw6viph7hq9TUQ+u9rFnUEVu3j1syenvalPTpxqXvrJ8vjal711ioyJCa31kUqyUg3765pUGjZr/aFZQghhNmx/633T5MVTwoUQWrUQQqXV6XRCGLYs2WiOnzw+JvqZzw49U9tPtOuvr38rRPe5T4xVCSHCZy9P/GbiivQVCX8J/+IlIYQQhgM7t5dXeU7eySIhqk23KyosEsKw7hW90MUmfrB01kBt5ocz5281iqjE1S9XnqqljX15dWLmtBXpKxJeCd9U33pJwE2Iq+BmDoftUlbFd76Tptiu5DtMhT533W05fbrkiy3WrCxnUCWp1T5j7/W5e0y1FX+aESPlQbqi9evsRUW2S1klW7/QPjK7UasCAQBAs5SYjKWFeaf0R/VFQgj9+3Mm/ttkKDCLqMSV9wohRNY3byz5OeDaYNPJrLrPVC/TrkUJb+qFEEIemfiGy1V+vrHPvRS/OzHZKIzJLyT0a34nF3iBdV/srljWJ4R4/I9vCyEC/Hwqeq5PHXv72DsG+vtemxjl7+vz/OwJIZ0CK5/kalFp8p4jlRcPXsg2CiGGRvX6xd1DW+GnQFOU7NmxSwht7Kio5pzFnPnZCwl/STEKoZuwcrXLVX5CiPDZq1eenTp/q3HnonHTDi5/88W4sBoTdgfOWLy43sWAzh7wdbGZ9FvfW/HOutQcIbRZMWOWx3es/HDqxne+XJeTtO4vqrDbpz/+zOzxUboqVZxf55wpNnlBRR+/sFmrVp6cOj95y0dJv35ECCGOrFtwZF3NK1dJ/kpSNm4xCCFUg+eufmNetFZkfjxn5pt6oYtfuarGFCp5+LVLNGC9pHtV7V9szTflf3mwJL0FmrU5Ss2l+sasXK/aSNmcXWDctLdw78nmV2K9UmS+kNfkp5efv5z78Xfyji2whMhy6YrlckHzz9NSiKvgRg6rtfiz/5QfTBVCOMzm8mPHlH0i/X81U9jtkp+fTOtvNxUJh0NSKJQDBvpN+aWsjvX2yshI7RO/Nv37A0nj4/fLqWRVAAC0itQV4+evy6kxg8pkvPYHfni4MyAype9MSm+JC157VyaEEJHPLK03ftKOfvnlKanzNxuFTd/cTi7wDqNu6xvaOdBmc3z6Vcr5rNw5k+8O7RyokMtVSvmD/7fCcPmKi+eGdQ5y7hjYNzw0+Z0/CCHOZ+X+9i9rhw+IqNgZcE/aqdb4MdB45r1f7bQJ7X1x0UIIYVg3c6Jzs4VabJ0/dGuNg5GJWz6ISVn422W7jEKI8BnvrF3QkLZL2tiXNy0XUxdsNWZuXjDx4Ky1GxOj611ibjaZhFZ7Y5g583SmEELUjNdLMlP+vWrZhzsNZiG6xMxatvDpMeEquRDClHsjE4hJ/HLf0+dTNr7/1nvJ65Y8sm6JNjL+8aefmBYb7itEwc5FT67Q24RuxmuLK/fx08YufXftQx2jozumHBVCjF267cWqe7Nc2JAwd02VI76xs2ZF7j4x+5M/x+vkInPz/ITXj5l18SvrunNqY5e+m5g5fYX+zWkzhecSK4ej8nfWPJPxsxQPVVLlO3OWMffj7zxTSVVlZy+Vnb3k6SrcgrgK7uKwWos++dh89KhwOGQBAfbi4vID+x2lpf4PzZA0GiGEPCTUf8avzCfTfe4eI+vY0fXZFN17dHjueUkmq7V3lS0np2zX982p1paT05ynAwBwMwrtpDML529IuVbXJThYlac/bwqLX/rm8zHBWp1WJQwfviWECJ+zdvWvKnpXbUiYuyaz8RczZ6x57Fer9DYhGjYtQgghhCr296sT9dNWpAthTJ4/VSzfuDSunr8p4NV6hnbqGdop90rhvzbtcK7ac06qcm7YN6Rvz6n33l7rEzd9s//ylcJqB/Xns5xPrKywuNQ5aasu948aXBFvobWY93yzUwgRG+vMXDThcZMnN2qaVddwjSoyZkiw2CVif7/6tWnhDe1rKNfGvbppbcj8hPcMcc8/UX9WJYTI+Txhco0wTR45fnTVplsFyfPHLUqxCVVEfOKz86bHhqlKkhcMn7azYkBkv4pMXtUzdtarsbNeMqZueX3FP5OT33xv0H2x4b6Za55ckGwUqsGJq5+Prl5Gz+gbh9Ta6hsPltSyy2D47PXbbELIhSl5wcw/pZh1cUs/cpny95y1+rWTUxOT9f9ctvG+d6bX2knQ3WSSJEmO+se1AEkuc7UVvbz15kzIXHfTU7ReJVIr/tQ1EVfBLRxWa9G/PzCfTBcOhzwkNODJJ0u+3Fp+paYqKQAAIABJREFU8KD52NF8/SlVVH/1iBHyTp2VkZHKyIauTpckyV5cLIqLJYVC1rFj5XmhlrNnLWfPuudHAQCg3Qq7//fLI9WDenXW6rQqIYThw5kT39T7Rw4Mr/q+SFV5i/aq75HCpq3eNsGs8qlnL3RTyrI5iRsznVlV7OKqXVRcqlixYhTCmLxguinx70tnDWSSVdt26nxWVu4Vfx9NaVl5cWm5n4/aebxrcMe44QNqfUpKmr5aXOVwOA6eOOf8+qqpJMDfR5Ikcb3Vuqm49LNv9jtnb1U8Jety/tqk7xQKOkt7QOSDC2eZMgcNc36ni31icRN6zepmr942Qa3TNXYLDm30U2u/f9Ss8m3YE7vH3DMwrMh444Cqe8z0p56bXm1Dw47xC1/N0/edHtfz+ml9B8bcHqa/IIQQusj4RxbU2LJQpYuZtnT9lJczL5jCuwghwuf+LfHom/6Jr02uu99539nLlt8TWmM3TF1s4rJQ0bvGxlNyIYTQxv9xZWao8ZeJ8fUlUNrRS1e/Oigrdnqshz4J0PTsLPPT2Mst7r6QpFJoeoe6SGd8eofIfFT2Unf0bKxCplFp+rjab0Bza5ikVjjKre6uRO6n8XVZibsRV8EtbBcvWDIzr2VVCb+RabV+06YLmbz8wH5HeXl52uHytMNNPrlq4EDtY49XPiKpVFLzdoZymM0Os9tvPQAAtC26qLh6cqZ6+Wp19WyqZTr29vyE9445fw2rBieuXuHijVltKlas2IQwpqx4bNyOJ1a+Njem0e9Y4R0cDseuQyflMlm5xfLSPzf07tF16W9nOB/6as+Rr/YcqeuJYZ2DKn97Kbcg7VSmECIlTf/9wfS5v4ybET9SCOGctGW2WD7/9mBkz9CYAREVT9l39HS5xXJbP8+16Wm/VGHDpicOa/55tLqm3rNqZlVhs9cfml3r2Mi5H2yZ24BzhsVXC6TCpq/aMr3ep8lV4T2v/xg9Z61c4Xq0LnJsXC2f//uGx4x18V+yNuapxHoLcQqfMN2D/0v4DerV+bGxpv2nbFdLqi0MbDGSJPdVayLDOt53m6g7rdaO7Nt5ztjitHO2olJhd08lMknmp/EdcEuAyxZuHe8dXHbaUJL+s7243F3/JjJJHuDrNyTCb2hvt5y/YYir4BaKW3oqI3pZf76gffhhmVYrhJAUCv/pD/mMHl2ybZvl9GlHaUkTTy2Xq4fcVu2YOibG75fTmlNw8X8/K0vx0CpoAADarYJjq/4vYc2Ra58Y6WIXNzqrcuo5a/WaQudeYEKYj733m3EfxixOemeyR5auoHku5RakncwcNaTvofRzj08Z8/7m79769OtHJ94lGrkYcN+x01arvXtXXc/QTiql4q1Pv7ba7LeEXNs+r2twR38/jf58VuW46tjpnzv4+93aI8RtPxyAxpFUiq5Pj+94/21Wo8lhs7vlEjJJrvVR9+wi83H1KYekUoYkTio/l2PNL3JTJUImKTr4acK7SCpXQY0i0D/sxaml5y7ZC0sd7gnOJLmkCApQh3eWPNo2mrgK7iFJvvH3O8wWeUiVfV/lXUO0sx8VQjisVvvVgqbE0jKZPPD6nG2FUvLzk1QqSePT3Ho1PjJ/f6FUCoWymacCAKBdK8gtqvSdMT0lr2PfYLUQQpRlfv7lWSGE0FwPpEzHNiRdz6rCZ6xc+3ystqnLsLQD533wSfALTy1LMQohhG7CI+PJqtqmnQd+FJKI7nPLofRzURHdZo6P/eh/u4ZG9RKNWQyYX1i05duDt0WF5+QV+PtqEh+ZUFhc+nXKkSn3DHcO6Kj1Cw/tnHbq/IPjRqhVCiFEYXFp6omMvuGh1WZpAfA4Ta+uoldXT1chJJlM09sr4mxJpfDt273+cW0ccRXcpVpQVY2kUMh1wc28hLJ378CX/tjMkzj5jp/gO35Ci5wKAIB2yLj5N+P+dFQbqi7PMpmFEN1DnR1TytLemvl61ZbE8rjYIde+1I5euvrZzGn/zIt/9ZOl8c1dd6iKmL5yU991f3zhrbzZq38fy1rAtujylatf7k4bENG9S3AHIYQkpIfiRzww+jarzSYasxjwu9T0izlXnph6z8av9wkh/H01S555yGaznci46BygUipih0S+9enXZ366NODW7kKI9IyLZ366NP/h+9Uu5zUAAFoH92IAAAA0l25ITLhIzcwyCyG0UbOWvxTnTIvCevYT4kZcpeoe9/SSP8ZV6mYVPnv1dxO12pZq4quNnrXii+lmlYpm2W2Qw+H4eu8xw+Ur8x++35lPCSEUcnkHrW+1nQGLSspW/2dH7x5dJo251u6o8mLAiznGD/+3a3DfngN6d9v49bWTB/j5CCHOG3IrLjd8QO912t3/23WoX0SY1WpP2pka1jnozttqtKwGAHgCcRUAAAAapNPoxOWhJm2lraZubPznO/ezQ7W1Ho5dfOjQYpdnbbms6hpV8/ZfgcdIkmQ2W4b1jxjSNzz1RJVNn3Udtf/5+43O0MYC00f/2x3TP6JibWDlRYIFhSVmi21G/Ei1qnqTh+LSco1aFeDvI4QI6dTxvpGDNn69b/yoIbn5hfuPn3ly2tjOQR3c9eMBABqDuAoAAAANouoZE9ez6qH6N/4DGuHumP53RN9abTne/747lH7uYuUjpuLSvILC71JPGC5fqXaG0UP7DYq85clp9wzp19NsqbLRu9liPftzdnCg1t9XI4SQJGnSmGHfH0x/6Z8bhBDRfW75xV1D3fJTAQAaj7gKAAAAgFeI6F5Lh/wj+vO1tqxKP2dIP2eodjCsc9CIQX2ciwSrxVV5BaYzP2fHDIjQ+mqcRzoHdXh8Stz/W/UftUrx+OQx/tePAwA8jrgKAAAAgPdanDB1ccLUim/TzxkW/H1daOdAU3FpF12HJc885OxLVa99R09fvnJ1WP9ekiQ5j5y9kP3uZ9uFEKXl5n98krzk6ekhnQJdngNAa3NYbbarJbbiMuFo/LbyDSBJkqRWyjv4yjT1rCR3WGzWgmJ7abmbKhGSJPNRyQN8Zep6dqu3l1tsV0vsZWY3VuKrVnTwk5Se7ARJXAUAAACgDXA4HAdPnFvy7qaOWt8lT0+/Uli84O/rEl55d/Fvpkb16ub6ufmFRVu+PRjaOXBg7x5CCLvdsWn7/tX/+UatUr32wqy8fNPyD7bM/X+rF/16yshBfSryLACe5bDYjEn7Sk/8bMkpcNjsbrmGJBQd/TQRoUGT71B2rrN7ncNsyft0d9mZS5a8q+6qRCYpdQE+t/7/9u49Lso67//4dc2BgWFmIA7qEKYgpoiaSkqmeEprN/SXmWdbyw536Qqit3lqTQwP4LI/RFszTTe3pLs8LD5WXCvTxNgWxdwURBSVAgRMOTswzMDcf8zjnsc4MAMKyGy9nn9d872+1/X9zPCPvh/fg5/39JESpcJer4Yq3a3PT+mvlhrLq02NHRPhSSUyHw+3vg/7zAgXZZ2WWBFXAQAAAHBqxoaGi1cL//w/X2ZfLejp57sucmY3H89uPp6Jy+auSvr0v9buGBrSa97kMf16+cukzfzPymQy7f8q48pPJQtmPK319fz3pfytyUdzrhcF+ndZFzmzp5+vyWRyVbhs2HlweeLe0aH9fj/zGb8uTLMCOl/dlRs34g8Yy2s6eiBRKpF5unu/8KQglTTb4c75HwvXf24yNnR4JXKpa5CfemSwvQ7V3+UWxR8QOiaosiZxlSsf6+nev2fLXTsGcRUAAAAAJ5V1pWDnwa/PX/5RX29UurrMn/701AlPWPZif7SHds/63+/Yf+zgsdMZF/LkMunSlyZNGmO7Y/qJMxeTj3wbEtQ9PDR48aa/Zl68KgrinIiRr015yvwqURTHDQvp5uPxznufnziTrVG5/fdLE5tNvgA8SLW5hY06/QMYyNTQqMv60eu5MNFOXKW7kP8AsipBEEyGhpofrjmIq+6cu/oAsipBEBrrDLof8omrAAAAAMBWYPcugiD06t5t2oQnwkP7Kl1tF8i4uykW/y5i7qRRB45lFJaWjR0W0vQlw/r3Ch8SPPO3I3pofZ4b97jBaFz68qSAh7vYdOsX6L87dv7hk9//vzGhZFWAM2isN5o6aHumpmPpDSZBsLcS2FRvtHOnAyqpdZTQmfSGB1fJAxyrKeIqAAAAAM5l5OC+R7evMl8nLX+5xf7enur/mjreplHpqti6cp75+t3fTzdfjB0aMnZoM5GWmcbdbfazI+6nYgAd4e6N5KQeSlVokIvWq+0vbtQb7pzNq7te2upK7vok89GoQoPkPpq2V9JQpavJzKsvLru/x138fVShQVJVOxxsarxVVXM2z3Crqu2vahfEVQAAAAAAwPncPbVK7uvhM3OUemS/tr/YWF5TFLe/9XGVzSQvhb9Pl3njlQPbYaFc/Y83C9d9ft9xldujft1+/6yLv0/bK9H9kK+/UUZcBQAAAAAA0GqiKMqkEoW87W+SuMjtbVPV/Mh3T68SJaLERdYulQgyqakth5FKRIm8fSoR5VJR4kTnot7DnwcAAAAAAADoaMRVAAAAAAAAcCLEVQAAAAAAAHAixFUAAAAAAABwIsRVAAAAAAAAcCLEVQAAAAAAAHAixFUAAAAAAABwIsRVAAAAAAAAcCLEVQAAAAAAAHAixFUAAAAAAABwIsRVAAAAAAAAcCLEVQAAAAAAAHAixFUAAAAAAABwIsRVAAAAAAAAcCLEVQAAAAAAAHAixFUAAAAAAABwIsRVAAAAAAAAcCKyzi4AAPCrYxKE4pLS+P+/pbMLQecw1Nd3dgkAAOA/UGNjo97QWNsO/5BorNObGhpb398kmO762Ghqr0pMeoNguuvloijew/MNpsa6dvpN9AZTo6nlfg8KcRUA4MFxdXUVRNFQX//Bh3/p7FrQySQSiUKh6OwqAACAE7s7uNEX3i7adKDk/SNtf7HJ2GAoLr+HQiR3LU2rvVz00+pPJMp2+JeMSW+oLyq7q+VeHq85m3d98Q7RRd72Shru1N3Tb9LRiKsAAA9O6OBBQwYNLC4p7exC0MkkEsnQIYND+vbp7EIAAIDzEgWTKIqW+MakN+ivd9g/I0XR0bSmuydANer0dXnFHVVIC7fvut9Qpaut0nVUJfcyzavdEVcBAB6cwIAeCRtjs3MudXYh6GRyubxP7yBvb6/OLgQAADgvicrtgUUmUpWro7tq5YMpQxAEmYe7w0rcHlwlGkeVdPjonTg2AOBXyE/bzU/brbOrAAAAgLNzH9hT2b9HTeaVjh5I0aOLJryfKJPa66Aa1lvZ7xHdxZ86uhLX3n6q4X0ddFCPCik/kll3raSjK1EO6On+eO+OHsUB4ioAAAAAAOB0XPx9Hl45VXc+33CzwtTQMbuAi4LUw13Z52HVsEcFid2ZXK69tP7vzNRl/Wi4VSV0zH7kokSUealc+3Z36+vvoJv7oED/d2bWXio0ltfc2zZXra9EKsq8NcqBPRU9fDtkgNYhrgIAAAAAAM7IfVCgsn+PRp3eZveo9mISBKmri+Aia/E8PtXQ3u6DAhtrO6oSQRRFhVyiaGHTdFEq0YSHqIf1aajTd9Q6SVGUuClEud25Zg8GcRUAAAAAAHBSokwq1Ty4raMcEOVSqdw5KlHIZIpfeJ4jabkLAAAAAAAA8KAQVwEAAAAAAMCJEFcBAAAAAADAiRBXAQAAAAAAwIkQVwEAAAAAAMCJEFcBAAAAAADAiRBXAQAAAAAAwIkQVwEAAAAAAMCJEFcBAAAAAADAiRBXAQAAAAAAwIkQVwEAAAAAAMCJEFcBAAAAAADAiRBXAQAAAAAAwIkQVwEAAAAAAMCJEFcBAAAAAADAiRBXAQAAAAAAwIkQVwEAAAAAAMCJEFcBAAAAAAD86tTX13d2CXYRVwEAAAAAgF+s27dvL1y48PPPPzeZTPf3BqPRWFZWdquJioqK+3hnWlra2LFjc3Jy7q8Yi4yMjBkzZly8eNFehyNHjsycOfPMmTPNFllbWxsdHf3888+Xlpa2pQydTvf111/r9fq2vKQpWfu+DgAAAAAA/LJVVVV9//33RqPRQR+ZTDZkyBCNRtPuo+v1+szMzNra2oEDB3bp0sX6ltFo/P7776uqqry9vR977DGJRCIIQn19fWlp6ebNmwVBmDZtmiiKKSkp2dnZLQ40derUPn36CIJw5cqVBQsWVFVV2XQYOnTo66+/vnTp0qa3LDQazbZt24KDgx0M1GI9CoVi9uzZfn5+lhaTyXTz5s2CgoJFixatW7cuLCzM5pGCgoI///nP5eXlVVVVoig2fWdZWVl+fv6AAQN8fHwcDN2iXbt2ffTRR1OmTFm+fLlMJhMEIT09/ZtvvnH8lEajefnll9Vqtb0OxFUAAAAAAOAeFBUVrV271kFGI/xfTNMRcVV1dfWmTZsKCwsTExOt4yqj0fjee+/t3bvX09Nz8+bN5qxKEAStVhsTExMdHb1582Y3N7eJEyeeO3fu8OHDLQ4UHh5ujqvM1q5d+8QTT1g+JiQkVFRUeHh4REREWOYWZWZm3r59e/To0a6uruYWhULh4eHheKAW69FoNBEREdZxlSiKEydOVCgUMTExK1asiI2NHTlypPVPsXv37pKSkqlTp44ZM6bZd54/f760tPTVV1+VSqVN7zqInGySpnnz5uXk5Bw8eFAQBHNilZeXZ/7ogL+//6xZs4irAAAAAABA+7DJaCoqKk6dOuXi4nKvMU07MplMycnJe/fulcvlK1asCAkJsb4bEhKyefPm6OjorKys3/72t2vXrl27dq2Dt+3Zs2fLli02jRqNxnoikkKhEATBz89v6dKl5pb6+vply5b5+vquXLlSqVTeU/3+/v67du1qdqLTnj17Pvroo6btoihOmDChoqJiy5Yt//znP4cPH24Jnr788svDhw+HhYVFRkY2m0Y1NDR8++23giBs2LBhw4YNNl9z27ZtDiInm6RJpVKtXr06KioqJSXFx8fn1VdfNbcnJiaOGjWq6eM6nW7JkiXFxcX2fgoz4ioAAAAAAHAPrDMaQRBycnIyMzM1Gs2iRYvauLLsvh0/fnz79u1yuTw2Nvapp56ytKekpOTl5c2ePTskJOSzzz7z9PS0zLq6V7GxsW5ubpaP5eXlNqGYTqcrKSnp3bu3dTez+vr6zz777KeffhIEobi4uLa2dvfu3Z6enoIg2Jv9ZE91dfVHH31kmdpmMpkCAwN1Ol1cXJxlrLS0NIlE4ubmlpSUZHkwJCRk8uTJ5uuffvopMzNTqVQ+9NBDNTU1lZWVXl5e5rJVKpVcLhfsLGNcs2bNv//9b5uSzPPX3nrrrYceeqjZdOw+EFcBAAAAAID/YNnZ2XFxcQaDITIycty4cda3zp07l5aWZl5J5+Xl1ZZR+vTpo9VqLR8zMzPNF2lpaYsXL7a0X7ly5ciRI+Zry5wpo9GYnp5+5swZS7fjx49b+txTGXq9/tixY4WFhdaNzW59ZbOar76+3hJXpaWllZWVrVu37plnnjFPJVu9erX1ZKj09PR7qiokJCQlJcXFxeWennKAuAoAAABAC0yG2obqks6uAsB/pMrKyhMnTpw7dy43NzcwMHDYsGFjx461WSdo3rtdLpc//vjjgiCcOnXq5MmTP/744+DBg3/zm9/07du32c3CzYqLi2NiYsrKyqZMmTJ79mwHPdto+vTp1oHOmjVrLGfqyeXy8PBw82wpi9zc3MrKSvO1Uqncvn27+fqPf/zjkSNHrCcurVmzpvVleHl5/eUvf2lsbGx6KyEh4V//+tfGjRt79+7d9K559aIgCGVlZampqQEBAUOHDm39uC1qx6xKIK4CAAAA0AJjXUNZfmcX8YvUzNHywC+J0Wj89NNPd+zYodPpzC1Xrlz54osv/vSnPy1fvjwiIsISLZn3btdoNLGxsRs3brx8+bK5PTs7Ozk5ec6cOQsXLjSfOmejpqYmNjb22rVrYWFhixYtaraPtWY3pTJzsHuU2eeff37q1CnLx/Pnz3ft2tV87ebm9sorrwQHB+fm5v797383n+K3Z8+epts/VVVVZWVlNX15cXHxSy+91OxKupqaGuuPEonE3jQxhUIhiqKnp6fjJZnV1dXu7u5PPvlkW6abWS9vFO5eadguiKsAAAAANE/q2V0QBMHUKBh0nV3LL5Yoc5W4e3d2FUD7M+99vnXrVrlc/sYbb0yaNEkul9++fXvHjh1paWkbNmxQq9WjR4+2fqSqqmrt2rVqtfrDDz/s3r37nTt3Pvnkk5SUlL179/r7+0+dOtVmCIPBkJSUlJGRERYWFhcXp1KpWlNYizOh7MnNzbWkM4IglJeXW+Iqi9LS0tTUVJtT/KxlZWXl5uY23dzqQerRo8fu3btNpjYl5jbLG61XGrYL4ioAAAAAzZP7DRRHLDDeyuvsQn6xRJlCrh0g0Whb7gr8p7l27drHH39ss/e5j49PfHx8fHz8wYMH9+zZExoaap0xVVVVBQcHb9q0ydzo4+OzatUqV1fX5OTk/fv3jx8/3iZj2rdv39mzZwMDA1evXq3RaFpZmGUmlHVjszOhLMwnIU6aNKlPnz6WxpSUlOrq6hbnc1lraGhITU01GAyurq5Hjx49fPjw4sWLzW/QarX3ejJgW4ii2MZVk5bljbdu3bKcBtiOiKsAAAAA2CGRybqFyLqFtNwTAO527NixsrKyESNGjBw50rpdJpPNnDnzm2++uXz5cl5e3qBBgyy35HL5iy++aB1giaI4efLko0ePlpSUFBUV2cRV169fb2xsrKioKCsrs94EvX1dv3796tWrgwYNKigoKCgosLSrVCqVSnXhwgWj0djKV+Xn558+fXrIkCFXrlwpKio6efJkfX398uXLW1/MjRs3kpOT9Xp901uNjY1nzpyxPnOwKY1G8/LLLxcWFi5YsMBytqCZ9W7xUVFRrS/JHpu1kxZGozE/P9+ykZY9xFUAAAAAAKA91dfX5+TkCIIQGhraNJjQarUBAQFnz54tLi62jqu6dOnSq1cvm86+vr5+fn5ZWVm3b9+2uRUVFZWampqRkRETE7Nly5YOSqzS0tLsbXclCMLQoUOtF8EVFBRoNBpfX9+mPRsaGpKTkwVBCAsLy8vLmzt3rr+//969ewVBaH3gVVlZmZqaapM02bCcOdiUv7//rFmzzJPFLJlXZmZmaWlpeHi4ZYZaUFBQXl5b59V+9913Du62eB4icRUAAAAAAGhPRqOxrq5OEISAgIBmO0gkEkEQbt68ad0oimLTvcZlMpm9nZ7UavXq1aujoqKuXbsWGxtrWUXYvqZNmxYREWH5uG/fviNHjiQkJHh7e5vL++GHHyx3KyoqpFKp+dvZOH/+/FdffTVx4kTzsX1yuXzhwoUGg+Gxxx5LT09vZTG9e/c+cOBAs8cCZmVlvf3223V1dREREZGRkc2u9ZNIJJ6enhKJZOnSpeYWnU4XHR3d0NCwZMkS66242h5XJSYmWh+kaKHT6ZYsWVJcXOz4ceIqAAAAAADQIe7cuePgbms2fjIajbW1tfbuarXamJiY6OjojIyMpKSk5cuX39NmUq2hVCoNBsOqVauCgoIWL16sVColEom3t7dlnylLMFRfX3/lypVHHnmkaWpWU1Pz/vvvKxSKF154oaioyNwok8neeustQRDS09MLCwufeeYZezVY5j3JZLJmj/MzmUw5OTl1dXVyufzUqVPTp0/v379/a75deXl5YWFhaWlpYmLiH/7wh3bJ+8wBn73dxNzc3OLi4hobG+2tWDQjrgIAAAAAAO1JoVB4eHgIgnDt2rWmd+vr6ysqKiQSSc+ePa3bTSZTQ0ODTefbt2+XlJSo1WrzbKamQkJCVqxYsXr16pSUlO7du//ud79zvIl4TU3NkiVL5HK5TaNarbb3iMFgKCwsDA0NNX8sLy9PSkpydXU1jx4cHBwREeHh4VFQUJCdnS2VSs+dOzds2LCgoKDx48db1kIajcYpU6YEBgZa4ipr7u7uo0ePNr/TRm5urvWeWc26fPnywYMHAwIC5s2bFx8fv23btlbONcvKyvr555/lcvlXX32lVqvbnvddv35dqVR27drVZDIdPXq0V69e5tlkgiDcvn07Nzd3+PDhjoMqM+IqAAAAAADQnqRS6bBhw44dO3by5MlZs2bZTAi6ePFifn6+Vqu1iatu3ryZnZ1tvSRNEIQzZ87cunWrd+/eDz/8sL3hxo0bV1RUtHXr1q1btwqC4DixamxstFmEaOYgrqqurq6rq7MsVLxz586RI0fM1/X19ZMnT+7Tp49er3/nnXeMRqNarY6MjJwzZ86bb745YsQIczeVSjV37tyBAwfaK+yhhx5atGjR/Z0MWFNTk5SUVFFR8dJLLz377LOXLl1KTk5OTExctmyZ4x3NjUbjN998o1AoNm7c+Omnn7Yy77PHZDKlpqbGx8evX7++a9eux48ff/fddwMCArZs2eLt7V1dXb106dLc3Nzo6Ohp06a1OARxFQAAAAAAaGcjR47s1avX1atXN2/evGLFCqVSaW4vKChITEw0GAxTpkzx8/OzfsRgMLz33nsBAQGWHa9++OGHnTt3SiSSiRMnOpiSI4ri7NmzCwoKDh48uH379ocffvipp56y11mj0Wzbti04OLj13+XmzZuVlZUZGRkvvPCCIAj+/v67du2yjpaqqqrWr19//PjxyMjI6dOnv//++5988smFCxfeffddy3ccM2ZM60dsvZqamnXr1mVkZAwfPnzKlCmiKL7xxhtXr15NSUkxGAzWv3xTFy5cSE9Pf/TRRwcPHhwUFBQVFdXir2ePTqfbtGnT/v37+/XrFxQUlJ2dHRcX5+7uvmrVKvO0OLVavXTp0ujo6M2bN3t7e7c4BHEVAAAAAABoZ127dl2zZk10dHRqampaWtqTTz7p7u5eVlb23Xff6fX6CRMmTJ061WaKjZeXl6ur65w5c4YPH+7l5VVQUPD99983NDTWqsu7AAAFPElEQVSEhYVZn77XLJlMtmjRoqKiooyMjLi4uG7duoWEhDTtNm3atEmTJtnbVsmeS5cuNTQ0nD17NjEx0WbyV2Vl5aFDh/76179WVVVFRka++OKLEokkOjq6d+/e8fHxr7zyyqZNmwYOHHhPw7XejRs3Vq5cmZWV1b9//9WrV5uTKZVKZd6BPjU19dKlS+vXr7csx7NWU1Ozc+fO2traGTNmqFQqlUq1cOHClStXxsXFmY/tMxgMp0+ftlm62HSLdL1ebzAYjh8/LpFIpk6dGhkZWVlZGRMTc+fOndjYWOu/gmXZpoM/kAVxFQAAAAAAaH8hISEffPDBunXrLly48MUXX5gb1Wr1/Pnzp0+f3nSdmlKpjI2N/fDDD48dO2Y+/E6hUMyYMWP+/PkOpghZWGKaa9euxcTEbNmyRavVNh2iNa+yVlNTc/LkyX79+j333HMJCQmNjY2WxMpkMh06dGjr1q0BAQHx8fGWza1EUZw4caKvr29CQoKDfeLbQq/Xf/bZZzt37tTpdGFhYbGxsdZ7e2m12vfee2/ZsmVZWVlz5sx5/vnnX3/9devpYEajMSkpyTwnKzw83Nw4atSoN998c+vWrYcPH/by8qqtrd2yZUvToc1hlsWJEyd+/vlnpVK5fPnyiIiIkpKSJUuW5OfnR0ZGjhs3zuZZy7JNe38gC+IqAAAAAABw/4KDg0+cONHsrcDAwN27d+t0Op1OJwiCRCLx9PSUSCT2XuXh4bFx48ZVq1bp9XpBEDQajYuLi00fHx+fQ4cONfu4Vqvdt2/ffX6N/2M0Gi9duqTRaHx9fQVBOH369MWLF+fNm/f888/7+vquXbv2xo0bixcvnjBhwiOPPDJixIgBAwb4+flJpdJbt25Zv+eRRx6ZP39+dXX1pUuX+vbt63jQVp4MKAiCTqf78ssvP/jgg5s3byoUisjIyFmzZjXN/rp27bpjx47t27fv3bt3//79f/vb35544omZM2c+/vjjMpnsk08+SUlJ8fX1NZ91aH7EvKZy8ODBISEhH3/8sVqt3rhxo83MrISEhJycHOuWp5566uTJk6+99lpYWFhpaemKFSvy8vIiIyOb3QPLetlmVFSUg8SKuAoAAAAAAHSge53TpFarHWx83hGSkpK+/vpr83VNTU1lZWXfvn3N207dunXLzc1t1KhRoiiGh4cfOnTowIED+/btS0pKas2bJRJJQkJCi3GVl5fXggULmv3WJ0+e/Pbbb83XBw8eTEhI0Ov1EolkzJgxUVFRPXr0sPdOhUKxaNGiSZMmmSe4paenG43G/v37Z2Zmbtu2zdXVddmyZb169bJ+RCaTDRgwwHwtiqKnp6fN7u9NczGtVrt9+3apVFpVVbVy5cqLFy++9tprs2fPtreZuvWyzeTk5OjoaMse9nd1s/etAAAAAAAAfg0CAgJKSkoaGhoEQZBKpaGhoW+//baHh4cgCOPHj6+trX300UfNPd3d3efOnTt37lzzlLHKysrr1687eLOrq+uQIUNaLECpVIaHhzd7MmBRUZElrnr66adPnDjh5ub25ptvBgQEtOYIv8DAwF27dl2/fv0f//jHlClTNBrNqFGjZs2aNXTo0JEjR9p7atSoUT169Gh6GuO0adOefvppm1jNnDdpNJrly5dfuHBh8uTJMpmjuEmlUq1ZsyYrK2vs2LH2ptqJJpOpxe8GAAAAAADQQXJychYsWKDRaGxO3MOvlt31ogAAAAAAAMCDx2JAAAAAAADQmeRyuVarValUDnZhx68KiwEBAAAAAADgRP4X3yAcTZdDt54AAAAASUVORK5CYII=;" vertex="1" parent="1">
          <mxGeometry x="80" y="50" width="734" height="400.61" as="geometry" />
        </mxCell>
      </root>
    </mxGraphModel>
  </diagram>
</mxfile>
